<?xml version="1.0" encoding="utf-8"?>
<!-- Generator: Adobe Illustrator 26.0.2, SVG Export Plug-In . SVG Version: 6.00 Build 0)  -->
<svg version="1.1" id="Layer_1" xmlns="http://www.w3.org/2000/svg" xmlns:xlink="http://www.w3.org/1999/xlink" x="0px" y="0px"
	 viewBox="0 0 296 83" style="enable-background:new 0 0 296 83;" xml:space="preserve">
<style type="text/css">
	.st0{opacity:0.55;}
	.st1{fill:url(#SVGID_1_);}
	.st2{fill:url(#SVGID_00000125570280648653749060000007901045844479401912_);}
	.st3{fill:url(#SVGID_00000000206229134597799860000006947235430320354689_);}
	.st4{fill:url(#SVGID_00000174600895310582573470000003619609251493478813_);}
	.st5{fill:url(#SVGID_00000101084347272622498760000001576357922374841512_);}
	.st6{fill:url(#SVGID_00000152964725474852093040000012971025772311226019_);}
	.st7{fill:url(#SVGID_00000033333866308563464770000011359932316047033986_);}
	.st8{opacity:0.75;fill:#176FB7;}
	.st9{opacity:0.5;fill:#3EBFEF;}
	.st10{fill:#E5EFF5;}
	.st11{fill:#F3F2F9;}
	.st12{fill:#A0D8F7;stroke:#A0D8F7;stroke-width:0.5328;stroke-miterlimit:10;}
	.st13{fill:#00A6DD;}
	.st14{fill:#C7E1F0;}
	.st15{fill:url(#SVGID_00000035515248502384816510000003211171293291385774_);}
	.st16{fill:#62BDEB;}
	.st17{fill:#F5F5F5;}
	.st18{fill:#3EBFEF;}
</style>
<g>
	<g class="st0">
		<linearGradient id="SVGID_1_" gradientUnits="userSpaceOnUse" x1="53.1538" y1="30.4793" x2="153.6364" y2="30.4793">
			<stop  offset="0.1511" style="stop-color:#FFFFFF"/>
			<stop  offset="0.47" style="stop-color:#6AA3B7"/>
			<stop  offset="0.645" style="stop-color:#32A8E0"/>
			<stop  offset="0.7795" style="stop-color:#6AA3B7"/>
			<stop  offset="1" style="stop-color:#FFFFFF"/>
		</linearGradient>
		<path class="st1" d="M153.6,30.5c0,0.4-0.4,0.8-1,0.8H54.1c-0.5,0-1-0.4-1-0.8c0-0.4,0.4-0.8,1-0.8h98.6
			C153.2,29.7,153.6,30.1,153.6,30.5z"/>
	</g>
	<g class="st0">
		
			<linearGradient id="SVGID_00000143575449489177422790000006349177451219045534_" gradientUnits="userSpaceOnUse" x1="479.0439" y1="344.071" x2="543.156" y2="344.071" gradientTransform="matrix(4.489700e-11 -1 1 4.489700e-11 -253.9462 556.6581)">
			<stop  offset="0" style="stop-color:#FFFFFF"/>
			<stop  offset="0.3568" style="stop-color:#6AA3B7"/>
			<stop  offset="0.5125" style="stop-color:#176FB7"/>
			<stop  offset="0.6544" style="stop-color:#6AA3B7"/>
			<stop  offset="1" style="stop-color:#FFFFFF"/>
		</linearGradient>
		<path style="fill:url(#SVGID_00000143575449489177422790000006349177451219045534_);" d="M90.1,13.5c0.4,0,0.8,0.3,0.8,0.8v62.6
			c0,0.4-0.3,0.8-0.8,0.8h0c-0.4,0-0.8-0.3-0.8-0.8V14.3C89.3,13.8,89.7,13.5,90.1,13.5L90.1,13.5z"/>
	</g>
	<g class="st0">
		
			<linearGradient id="SVGID_00000164515932035539764280000000874776761107388061_" gradientUnits="userSpaceOnUse" x1="479.2209" y1="398.0367" x2="543.3329" y2="398.0367" gradientTransform="matrix(4.489700e-11 -1 1 4.489700e-11 -253.9462 556.6581)">
			<stop  offset="0" style="stop-color:#FFFFFF"/>
			<stop  offset="0.3027" style="stop-color:#6AA3B7"/>
			<stop  offset="0.4863" style="stop-color:#176FB7"/>
			<stop  offset="0.699" style="stop-color:#6AA3B7"/>
			<stop  offset="1" style="stop-color:#FFFFFF"/>
		</linearGradient>
		<path style="fill:url(#SVGID_00000164515932035539764280000000874776761107388061_);" d="M144.1,13.3c0.4,0,0.8,0.3,0.8,0.8v62.6
			c0,0.4-0.3,0.8-0.8,0.8h0c-0.4,0-0.8-0.3-0.8-0.8V14.1C143.3,13.7,143.7,13.3,144.1,13.3L144.1,13.3z"/>
	</g>
	<g class="st0">
		
			<linearGradient id="SVGID_00000156545740805702527240000009770796156624099734_" gradientUnits="userSpaceOnUse" x1="479.0439" y1="442.2709" x2="543.156" y2="442.2709" gradientTransform="matrix(4.489700e-11 -1 1 4.489700e-11 -253.9462 556.6581)">
			<stop  offset="0" style="stop-color:#FFFFFF"/>
			<stop  offset="0.3638" style="stop-color:#66A4BD"/>
			<stop  offset="0.5248" style="stop-color:#32A8E0"/>
			<stop  offset="0.6917" style="stop-color:#6AA3B7"/>
			<stop  offset="1" style="stop-color:#FFFFFF"/>
		</linearGradient>
		<path style="fill:url(#SVGID_00000156545740805702527240000009770796156624099734_);" d="M188.3,13.5c0.4,0,0.8,0.3,0.8,0.8v62.6
			c0,0.4-0.3,0.8-0.8,0.8h0c-0.4,0-0.8-0.3-0.8-0.8V14.3C187.5,13.8,187.9,13.5,188.3,13.5L188.3,13.5z"/>
	</g>
	<g class="st0">
		
			<linearGradient id="SVGID_00000080178331035971108970000005720112643324063661_" gradientUnits="userSpaceOnUse" x1="479.0439" y1="518.5308" x2="543.156" y2="518.5308" gradientTransform="matrix(4.489700e-11 -1 1 4.489700e-11 -253.9462 556.6581)">
			<stop  offset="0.1112" style="stop-color:#FFFFFF"/>
			<stop  offset="0.306" style="stop-color:#6AA3B7"/>
			<stop  offset="0.4863" style="stop-color:#32A8E0"/>
			<stop  offset="0.5723" style="stop-color:#6AA3B7"/>
			<stop  offset="0.8142" style="stop-color:#FFFFFF"/>
		</linearGradient>
		<path style="fill:url(#SVGID_00000080178331035971108970000005720112643324063661_);" d="M264.6,13.5c0.4,0,0.8,0.3,0.8,0.8v62.6
			c0,0.4-0.3,0.8-0.8,0.8h0c-0.4,0-0.8-0.3-0.8-0.8V14.3C263.8,13.8,264.2,13.5,264.6,13.5L264.6,13.5z"/>
	</g>
	<g class="st0">
		
			<linearGradient id="SVGID_00000022538216209173238100000007745824379625153177_" gradientUnits="userSpaceOnUse" x1="147.1065" y1="37.3799" x2="247.589" y2="37.3799">
			<stop  offset="0" style="stop-color:#FFFFFF"/>
			<stop  offset="0.202" style="stop-color:#6AA3B7"/>
			<stop  offset="0.4863" style="stop-color:#32A8E0"/>
			<stop  offset="0.8118" style="stop-color:#6AA3B7"/>
			<stop  offset="1" style="stop-color:#FFFFFF"/>
		</linearGradient>
		<path style="fill:url(#SVGID_00000022538216209173238100000007745824379625153177_);" d="M247.6,37.4c0,0.4-0.4,0.8-1,0.8h-98.6
			c-0.5,0-1-0.4-1-0.8c0-0.4,0.4-0.8,1-0.8h98.6C247.2,36.6,247.6,37,247.6,37.4z"/>
	</g>
	<g class="st0">
		
			<linearGradient id="SVGID_00000163045688577038336350000004720490886303925380_" gradientUnits="userSpaceOnUse" x1="191.5175" y1="61.9738" x2="292" y2="61.9738">
			<stop  offset="0" style="stop-color:#FFFFFF"/>
			<stop  offset="0.202" style="stop-color:#6AA3B7"/>
			<stop  offset="0.3724" style="stop-color:#32A8E0"/>
			<stop  offset="0.5319" style="stop-color:#6AA3B7"/>
			<stop  offset="1" style="stop-color:#FFFFFF"/>
		</linearGradient>
		<path style="fill:url(#SVGID_00000163045688577038336350000004720490886303925380_);" d="M292,62c0,0.4-0.4,0.8-1,0.8h-98.6
			c-0.5,0-1-0.4-1-0.8c0-0.4,0.4-0.8,1-0.8H291C291.6,61.2,292,61.5,292,62z"/>
	</g>
	<g>
		<path class="st8" d="M127.3,61.6V36.7h-12.3v24.9h-6.1V36.7H96.6v24.9h-6.1V30.5h36.9c3.3,0,5.3,1.4,6,4.2c0.2,0.6,0.2,1.3,0.2,2
			v24.9H127.3z"/>
		<path class="st8" d="M144.2,61.6V30.5h6.1v31.1H144.2z"/>
		<path class="st8" d="M164.6,61.6c-3.3,0-5.3-1.4-5.9-4.1c-0.2-0.6-0.2-1.3-0.2-2.1V36.7c0-1.6,0.6-3.1,1.7-4.3
			c1.2-1.3,2.6-1.9,4.5-1.9h23.6v6.2h-23.6v18.7h23.6v6.2H164.6z"/>
		<path class="st8" d="M202.5,61.6c-1.7,0-3.2-0.6-4.4-1.7c-1.2-1.2-1.7-2.7-1.7-4.5v-6.3c0-1.7,0.5-3.2,1.6-4.4
			c1.1-1.2,2.6-1.8,4.5-1.8H221v-6.3h-24.6v-6.2H221c1.8,0,3.3,0.6,4.4,1.7c1.2,1.2,1.7,2.7,1.7,4.5v24.9H202.5z M221,49.1h-18.5
			v6.3H221V49.1z"/>
		<path class="st8" d="M262.8,59.7c-1.1,1.2-2.6,1.9-4.6,1.9h-22v-6.2h22v-6.3h-16.4c-1.5,0-2.9-0.4-3.9-1.2
			c-1.1-0.8-1.7-1.9-2.1-3.3c-0.1-0.5-0.2-1.1-0.2-1.7v-6.3c0-1.6,0.6-3.1,1.7-4.3c1.2-1.3,2.6-1.9,4.5-1.9h20.4v6.2h-20.4v6.3h16.4
			c1.7,0,3.2,0.6,4.4,1.8c1.2,1.2,1.7,2.6,1.7,4.4v6.3C264.4,57.1,263.9,58.6,262.8,59.7z"/>
		<path class="st9" d="M125.6,61.6V36.7h-12.3v24.9h-6.1V36.7H94.9v24.9h-6.1V30.5h36.9c3.3,0,5.3,1.4,6,4.2c0.2,0.6,0.2,1.3,0.2,2
			v24.9H125.6z"/>
		<path class="st9" d="M143.5,61.6V30.5h6.1v31.1H143.5z"/>
		<path class="st9" d="M162.9,61.6c-3.3,0-5.3-1.4-5.9-4.1c-0.2-0.6-0.2-1.3-0.2-2.1V36.7c0-1.6,0.6-3.1,1.7-4.3
			c1.2-1.3,2.6-1.9,4.5-1.9h23.6v6.2h-23.6v18.7h23.6v6.2H162.9z"/>
		<path class="st9" d="M200.8,61.6c-1.7,0-3.2-0.6-4.4-1.7c-1.2-1.2-1.7-2.7-1.7-4.5v-6.3c0-1.7,0.5-3.2,1.6-4.4
			c1.1-1.2,2.6-1.8,4.5-1.8h18.5v-6.3h-24.6v-6.2h24.6c1.8,0,3.3,0.6,4.4,1.7c1.2,1.2,1.7,2.7,1.7,4.5v24.9H200.8z M219.3,49.1
			h-18.5v6.3h18.5V49.1z"/>
		<path class="st9" d="M261.1,59.7c-1.1,1.2-2.6,1.9-4.6,1.9h-22v-6.2h22v-6.3h-16.4c-1.5,0-2.9-0.4-3.9-1.2
			c-1.1-0.8-1.7-1.9-2.1-3.3c-0.1-0.5-0.2-1.1-0.2-1.7v-6.3c0-1.6,0.6-3.1,1.7-4.3c1.2-1.3,2.6-1.9,4.5-1.9h20.4v6.2h-20.4v6.3h16.4
			c1.7,0,3.2,0.6,4.4,1.8c1.2,1.2,1.7,2.6,1.7,4.4v6.3C262.7,57.1,262.2,58.6,261.1,59.7z"/>
	</g>
	<g>
		<path class="st8" d="M144.4,27.4v-7.3h6.1v7.3H144.4z"/>
		<path class="st9" d="M143.7,27.4v-7.3h6.1v7.3H143.7z"/>
	</g>
	<g>
		<path class="st10" d="M74.6,53.1c0.6-2.6,1-5.3,1-8c0-15.6-10.7-28.7-25.1-32.4c0-0.1,0-0.2,0-0.2c0-4.6-3.7-8.3-8.3-8.3
			s-8.3,3.7-8.3,8.3c0,0.1,0,0.1,0,0.2C19.3,16.3,8.6,29.5,8.6,45.1c0,2.8,0.3,5.5,1,8.1c-2.9,1.3-4.8,4.2-4.8,7.6
			c0,4.6,3.7,8.3,8.3,8.3c1.6,0,3.1-0.5,4.4-1.3c6.1,6.6,14.9,10.8,24.6,10.8c9.7,0,18.5-4.2,24.6-10.8c1.3,0.8,2.8,1.2,4.4,1.2
			c4.6,0,8.3-3.7,8.3-8.3C79.5,57.3,77.5,54.4,74.6,53.1z"/>
		<path class="st11" d="M73,54.1c0.8-2.8,1.3-5.9,1.3-9c0-15.4-10.8-28.3-25.3-31.4c0.1-0.4,0.1-0.8,0.1-1.2c0-3.8-3.1-6.9-6.9-6.9
			s-6.9,3.1-6.9,6.9c0,0.4,0,0.8,0.1,1.2c-14.5,3.1-25.5,16-25.5,31.5c0,3.1,0.4,6.1,1.3,9c-2.9,0.8-5,3.5-5,6.6
			c0,3.8,3.1,6.9,6.9,6.9c1.7,0,3.3-0.6,4.5-1.7c5.9,6.9,14.7,11.3,24.5,11.3c9.8,0,18.6-4.4,24.5-11.4c1.2,1,2.8,1.7,4.5,1.7
			c3.8,0,6.9-3.1,6.9-6.9C78,57.5,75.9,54.9,73,54.1z"/>
		<path class="st12" d="M71.2,55.3c1.1-3.2,1.7-6.6,1.7-10.2C73,29.8,61.8,17,47.1,14.6c0.3-0.7,0.5-1.4,0.5-2.2
			c0-3-2.4-5.4-5.4-5.4s-5.4,2.4-5.4,5.4c0,0.8,0.2,1.5,0.5,2.2c-14.7,2.3-26,15.1-26,30.5c0,3.6,0.6,7,1.7,10.2
			c-2.9,0.1-5.3,2.5-5.3,5.4c0,3,2.4,5.4,5.4,5.4c1.9,0,3.5-0.9,4.5-2.3C23.2,71.2,32.1,76,42.1,76c10,0,18.9-4.8,24.6-12.2
			c1,1.4,2.6,2.3,4.5,2.3c3,0,5.4-2.4,5.4-5.4C76.5,57.7,74.2,55.3,71.2,55.3z"/>
		<path class="st13" d="M71.1,56.7c-0.8,0-1.5,0.2-2.1,0.6c1.7-3.7,2.6-7.9,2.6-12.2c0-15.5-12-28.2-27.2-29.4
			c1-0.7,1.7-1.9,1.7-3.2c0-2.2-1.8-4-4-4c-2.2,0-4,1.8-4,4c0,1.3,0.7,2.5,1.6,3.2c-15.3,1.2-27.3,13.9-27.3,29.5
			c0,4.4,1,8.5,2.7,12.3c-0.6-0.4-1.3-0.6-2.1-0.6c-2.2,0-4,1.8-4,4c0,2.2,1.8,4,4,4c1.9,0,3.5-1.3,3.9-3.1h-1.5
			c-0.3,1-1.3,1.7-2.4,1.7c-1.4,0-2.5-1.1-2.5-2.5c0-1.4,1.1-2.5,2.5-2.5c1,0,1.9,0.6,2.3,1.5h2.6c-2.6-4.3-4.1-9.3-4.1-14.6
			c0-15.3,12.2-27.8,27.4-28.2v-2.1c-0.9-0.4-1.6-1.3-1.6-2.3c0-1.4,1.1-2.5,2.5-2.5c1.4,0,2.5,1.1,2.5,2.5c0,1.1-0.7,2-1.6,2.3v2.1
			c15.1,0.5,27.2,13,27.2,28.2c0,5.4-1.5,10.4-4.1,14.6h2.5c0.4-0.9,1.3-1.6,2.3-1.6c1.4,0,2.5,1.1,2.5,2.5c0,1.4-1.1,2.5-2.5,2.5
			c-1.1,0-2-0.7-2.3-1.6h-1.5c0.4,1.8,2,3.1,3.9,3.1c2.2,0,4-1.8,4-4C75.1,58.5,73.3,56.7,71.1,56.7z"/>
		<circle class="st14" cx="42.1" cy="45.1" r="28.2"/>
		
			<radialGradient id="SVGID_00000090257977414524918730000012284622436776632731_" cx="42.1226" cy="45.0975" r="26.9055" gradientUnits="userSpaceOnUse">
			<stop  offset="0.202" style="stop-color:#009DE2"/>
			<stop  offset="0.8788" style="stop-color:#176FB7"/>
		</radialGradient>
		<circle style="fill:url(#SVGID_00000090257977414524918730000012284622436776632731_);" cx="42.1" cy="45.1" r="26.9"/>
		<path class="st13" d="M42.1,73.3c-9.4,0-17.8-4.6-22.9-11.8h-1.6c5.3,7.9,14.3,13.1,24.5,13.1c10.2,0,19.2-5.2,24.5-13H65
			C59.9,68.7,51.5,73.3,42.1,73.3z"/>
		<path class="st16" d="M17,61.6h0.6c-0.2-0.3-0.3-0.5-0.5-0.8C17,61.1,17,61.3,17,61.6z"/>
		<path class="st16" d="M66.6,61.6h0.7c-0.1-0.3-0.1-0.5-0.1-0.8C67,61.1,66.8,61.3,66.6,61.6z"/>
		<path class="st14" d="M17.9,59.7h-2.6c0.1,0.3,0.2,0.7,0.2,1c0,0.3-0.1,0.6-0.1,0.8H17c0.1-0.3,0.1-0.5,0.1-0.8
			c0.2,0.3,0.3,0.5,0.5,0.8h1.6C18.7,61,18.3,60.3,17.9,59.7z"/>
		<path class="st14" d="M68.6,60.7c0-0.3,0.1-0.7,0.2-0.9h-2.5c-0.4,0.6-0.8,1.3-1.2,1.9h1.6c0.2-0.3,0.4-0.6,0.5-0.8
			c0,0.3,0,0.6,0.1,0.8h1.5C68.6,61.3,68.6,61,68.6,60.7z"/>
		<path class="st17" d="M15.4,59.7c-0.4-0.9-1.3-1.5-2.3-1.5c-1.4,0-2.5,1.1-2.5,2.5c0,1.4,1.1,2.5,2.5,2.5c1.1,0,2-0.7,2.4-1.7
			c0.1-0.3,0.1-0.5,0.1-0.8C15.6,60.4,15.5,60,15.4,59.7z"/>
		<path class="st14" d="M43.1,16.9v-2.1c-0.3,0.1-0.6,0.2-0.9,0.2c-0.3,0-0.6-0.1-0.9-0.2v2.1c0.3,0,0.6,0,0.9,0
			C42.4,16.9,42.8,16.9,43.1,16.9z"/>
		<path class="st18" d="M58.2,29.7H43.1v3.8h-1.9v-3.8H26c-0.2,0-0.3,0.1-0.3,0.3v5c0,0.2,0.1,0.3,0.3,0.3h32.2
			c0.2,0,0.3-0.1,0.3-0.3v-5C58.5,29.9,58.3,29.7,58.2,29.7z"/>
		<path class="st18" d="M43.1,18.2c-0.3,0-0.7,0-1,0c-0.3,0-0.6,0-0.9,0v12h1.9V18.2z"/>
		<rect x="41.2" y="29.7" class="st14" width="1.9" height="3.8"/>
		<path class="st17" d="M71.1,58.2c-1.1,0-2,0.7-2.3,1.6c-0.1,0.3-0.2,0.6-0.2,0.9c0,0.3,0.1,0.6,0.2,0.9c0.4,0.9,1.3,1.6,2.3,1.6
			c1.4,0,2.5-1.1,2.5-2.5C73.6,59.3,72.5,58.2,71.1,58.2z"/>
		<path class="st17" d="M42.2,9.9c-1.4,0-2.5,1.1-2.5,2.5c0,1.1,0.7,2,1.6,2.3c0.3,0.1,0.6,0.2,0.9,0.2c0.3,0,0.6-0.1,0.9-0.2
			c0.9-0.4,1.6-1.3,1.6-2.3C44.7,11,43.6,9.9,42.2,9.9z"/>
		<circle class="st16" cx="13.1" cy="60.7" r="1.1"/>
		<circle class="st16" cx="71.1" cy="60.7" r="1.1"/>
		<circle class="st16" cx="42.2" cy="12.4" r="1.1"/>
		<path class="st11" d="M65,61.6c0.4-0.6,0.9-1.2,1.2-1.9h-1.5c-0.4,0.6-0.9,1.3-1.3,1.9H65z"/>
		<path class="st11" d="M17.9,59.7c0.4,0.6,0.8,1.3,1.2,1.9h1.7c-0.5-0.6-0.9-1.2-1.3-1.9H17.9z"/>
		<path class="st11" d="M42.1,18.2c0.3,0,0.6,0,1,0v-1.3c-0.3,0-0.7,0-1,0c-0.3,0-0.6,0-0.9,0v1.3C41.5,18.2,41.8,18.2,42.1,18.2z"
			/>
		<path class="st18" d="M27.2,61.6c0.2,0,0.3-0.1,0.3-0.3v-0.4V60V43c0-0.2,0.1-0.3,0.3-0.3h28.5c0.2,0,0.3,0.1,0.3,0.3v17v0.9v0.4
			c0,0.2,0.1,0.3,0.3,0.3H65c0.4-0.6,0.9-1.2,1.2-1.9h-7.7l0-22.5c0-0.2-0.1-0.3-0.3-0.3H26c-0.2,0-0.3,0.1-0.3,0.3l0,22.5h-7.7
			c0.4,0.6,0.8,1.3,1.2,1.9H27.2z"/>
		<path class="st18" d="M43,61.3c0,0.2-0.1,0.3-0.3,0.3h-1.3c-0.2,0-0.3-0.1-0.3-0.3V44.8c0-0.2,0.1-0.3,0.3-0.3h1.3
			c0.2,0,0.3,0.1,0.3,0.3V61.3z"/>
	</g>
	<g>
		<path class="st16" d="M206.3,20.3h2.1v2.3h0l1.9-2.3h2.6l-2.5,2.7l2.9,4.2h-2.6l-1.7-2.7l-0.6,0.6v2h-2.1V20.3z"/>
		<path class="st16" d="M219.8,24.5c0,1.9-1,2.8-3.1,2.8c-2.1,0-3.1-0.9-3.1-2.8v-4.2h2.1V24c0,0.7,0,1.6,1,1.6c1,0,1-0.9,1-1.6
			v-3.7h2.1V24.5z"/>
		<path class="st16" d="M223.1,20.3h2.1v5.1h3v1.7h-5.1V20.3z"/>
		<path class="st16" d="M228.8,20.3h5.6V22h-3.5v0.9h3.2v1.6h-3.2v0.9h3.6v1.7h-5.7V20.3z"/>
		<path class="st16" d="M241.6,24.5c0,1.9-1,2.8-3.1,2.8c-2.1,0-3.1-0.9-3.1-2.8v-4.2h2.1V24c0,0.7,0,1.6,1,1.6c1,0,1-0.9,1-1.6
			v-3.7h2.1V24.5z"/>
		<path class="st16" d="M246.7,27.1h-2.3l-2-6.8h2.1l1.1,4.1h0l1.1-4.1h2.2L246.7,27.1z"/>
		<path class="st16" d="M249.5,20.3h5.6V22h-3.5v0.9h3.2v1.6h-3.2v0.9h3.6v1.7h-5.7V20.3z"/>
		<path class="st16" d="M256.3,20.3h2.1l2,3.6h0v-3.6h2v6.8h-2l-2.1-3.7h0v3.7h-2V20.3z"/>
	</g>
</g>
</svg>
