<?xml version="1.0" encoding="utf-8"?>
<!-- Generator: Adobe Illustrator 26.0.2, SVG Export Plug-In . SVG Version: 6.00 Build 0)  -->
<svg version="1.1" id="Layer_1" xmlns="http://www.w3.org/2000/svg" xmlns:xlink="http://www.w3.org/1999/xlink" x="0px" y="0px"
	 viewBox="0 0 283.5 283.5" style="enable-background:new 0 0 283.5 283.5;" xml:space="preserve">
<style type="text/css">
	.st0{fill:url(#SVGID_1_);}
	.st1{fill:url(#SVGID_00000106861399130622704780000007866204898801301425_);}
	.st2{fill:url(#SVGID_00000166659534338593836980000005206894489234896063_);}
	.st3{fill:url(#SVGID_00000122713239434148396000000010002341557139135645_);}
	.st4{fill:url(#SVGID_00000150102612764526822360000003745034359916619707_);}
	.st5{fill:url(#SVGID_00000021119203807577329910000006961063285740548239_);}
	.st6{fill:url(#SVGID_00000158010397686079882170000012515834679203180432_);}
	.st7{fill:url(#SVGID_00000016039157465359776410000011764166564535550615_);}
	.st8{fill:url(#SVGID_00000127026750129653571560000014121991464080570259_);}
	.st9{fill:url(#SVGID_00000129928334209941267720000008337675100510731171_);}
	.st10{fill:url(#SVGID_00000022536893102440042150000000150516454478458030_);}
	.st11{fill:url(#SVGID_00000181790739100261177640000007554033422247765901_);}
	.st12{fill:url(#SVGID_00000030455652682379976420000017992384602991010956_);}
	.st13{fill:url(#SVGID_00000088120453707039943580000000226324180506106784_);}
	.st14{fill:url(#SVGID_00000154413412864032609220000011184167587285112497_);}
	.st15{fill:url(#SVGID_00000134225117467565111120000000275607520189665462_);}
	.st16{fill:url(#SVGID_00000136402510472349409200000004106627104265719487_);}
	.st17{fill:#FFFFFF;}
	.st18{fill:#1D70B7;}
</style>
<g>
	<linearGradient id="SVGID_1_" gradientUnits="userSpaceOnUse" x1="172.613" y1="-26.9169" x2="-4.9639" y2="153.6529">
		<stop  offset="0.1131" style="stop-color:#009EE2"/>
		<stop  offset="0.8445" style="stop-color:#1D70B7"/>
	</linearGradient>
	<path class="st0" d="M115.7,25.1c0-3.9-3.2-7.1-7.1-7.1c-3.9,0-7.1,3.2-7.1,7.1v29.1h14.1V25.1z"/>
	
		<linearGradient id="SVGID_00000002366379034355255270000001993315170639786661_" gradientUnits="userSpaceOnUse" x1="183.7765" y1="-15.9384" x2="6.1996" y2="164.6314">
		<stop  offset="0.1131" style="stop-color:#009EE2"/>
		<stop  offset="0.8445" style="stop-color:#1D70B7"/>
	</linearGradient>
	<path style="fill:url(#SVGID_00000002366379034355255270000001993315170639786661_);" d="M137.7,25.1c0-3.9-3.2-7.1-7.1-7.1
		c-3.9,0-7.1,3.2-7.1,7.1v29.1h14.1V25.1z"/>
	
		<linearGradient id="SVGID_00000034052526303368152090000000920828551721391543_" gradientUnits="userSpaceOnUse" x1="194.9393" y1="-4.9607" x2="17.3624" y2="175.6091">
		<stop  offset="0.1131" style="stop-color:#009EE2"/>
		<stop  offset="0.8445" style="stop-color:#1D70B7"/>
	</linearGradient>
	<path style="fill:url(#SVGID_00000034052526303368152090000000920828551721391543_);" d="M159.6,25.1c0-3.9-3.2-7.1-7.1-7.1
		c-3.9,0-7.1,3.2-7.1,7.1v29.1h14.1V25.1z"/>
	
		<linearGradient id="SVGID_00000122708257789257544520000016276471413801923986_" gradientUnits="userSpaceOnUse" x1="206.1017" y1="6.0167" x2="28.5248" y2="186.5865">
		<stop  offset="0.1131" style="stop-color:#009EE2"/>
		<stop  offset="0.8445" style="stop-color:#1D70B7"/>
	</linearGradient>
	<path style="fill:url(#SVGID_00000122708257789257544520000016276471413801923986_);" d="M181.6,25.1c0-3.9-3.2-7.1-7.1-7.1
		c-3.9,0-7.1,3.2-7.1,7.1v29.1h14.1V25.1z"/>
	
		<linearGradient id="SVGID_00000157304966143060887180000012376151188106059948_" gradientUnits="userSpaceOnUse" x1="277.4274" y1="76.1603" x2="99.8505" y2="256.7301">
		<stop  offset="0.1131" style="stop-color:#009EE2"/>
		<stop  offset="0.8445" style="stop-color:#1D70B7"/>
	</linearGradient>
	<path style="fill:url(#SVGID_00000157304966143060887180000012376151188106059948_);" d="M101.6,258.9c0,3.9,3.2,7.1,7.1,7.1
		c3.9,0,7.1-3.2,7.1-7.1v-25.2h-14.1V258.9z"/>
	
		<linearGradient id="SVGID_00000160162106656913026080000003238961036128321955_" gradientUnits="userSpaceOnUse" x1="288.5906" y1="87.1385" x2="111.0137" y2="267.7083">
		<stop  offset="0.1131" style="stop-color:#009EE2"/>
		<stop  offset="0.8445" style="stop-color:#1D70B7"/>
	</linearGradient>
	<path style="fill:url(#SVGID_00000160162106656913026080000003238961036128321955_);" d="M123.5,258.9c0,3.9,3.2,7.1,7.1,7.1
		c3.9,0,7.1-3.2,7.1-7.1v-25.2h-14.1V258.9z"/>
	
		<linearGradient id="SVGID_00000097490177788571018200000017661867712133951132_" gradientUnits="userSpaceOnUse" x1="299.7538" y1="98.1166" x2="122.1769" y2="278.6864">
		<stop  offset="0.1131" style="stop-color:#009EE2"/>
		<stop  offset="0.8445" style="stop-color:#1D70B7"/>
	</linearGradient>
	<path style="fill:url(#SVGID_00000097490177788571018200000017661867712133951132_);" d="M145.5,258.9c0,3.9,3.2,7.1,7.1,7.1
		c3.9,0,7.1-3.2,7.1-7.1v-25.2h-14.1V258.9z"/>
	
		<linearGradient id="SVGID_00000096035771889418924950000017931880932929679502_" gradientUnits="userSpaceOnUse" x1="310.9164" y1="109.0941" x2="133.3394" y2="289.6639">
		<stop  offset="0.1131" style="stop-color:#009EE2"/>
		<stop  offset="0.8445" style="stop-color:#1D70B7"/>
	</linearGradient>
	<path style="fill:url(#SVGID_00000096035771889418924950000017931880932929679502_);" d="M167.4,258.9c0,3.9,3.2,7.1,7.1,7.1
		c3.9,0,7.1-3.2,7.1-7.1v-25.2h-14.1V258.9z"/>
	
		<linearGradient id="SVGID_00000095317730462299390910000016122307122388740776_" gradientUnits="userSpaceOnUse" x1="311.8991" y1="110.0606" x2="134.3222" y2="290.6304">
		<stop  offset="0.1131" style="stop-color:#009EE2"/>
		<stop  offset="0.8445" style="stop-color:#1D70B7"/>
	</linearGradient>
	<path style="fill:url(#SVGID_00000095317730462299390910000016122307122388740776_);" d="M257,170.3h-25.6v14.1H257
		c3.9,0,7.1-3.2,7.1-7.1C264.1,173.5,260.9,170.3,257,170.3z"/>
	
		<linearGradient id="SVGID_00000149351927777581807470000004876228526211380122_" gradientUnits="userSpaceOnUse" x1="300.9206" y1="99.264" x2="123.3437" y2="279.8338">
		<stop  offset="0.1131" style="stop-color:#009EE2"/>
		<stop  offset="0.8445" style="stop-color:#1D70B7"/>
	</linearGradient>
	<path style="fill:url(#SVGID_00000149351927777581807470000004876228526211380122_);" d="M257,148.3h-25.6v14.1H257
		c3.9,0,7.1-3.2,7.1-7.1C264.1,151.5,260.9,148.3,257,148.3z"/>
	
		<linearGradient id="SVGID_00000136408256812113258930000000390415526168886939_" gradientUnits="userSpaceOnUse" x1="289.9434" y1="88.4688" x2="112.3665" y2="269.0386">
		<stop  offset="0.1131" style="stop-color:#009EE2"/>
		<stop  offset="0.8445" style="stop-color:#1D70B7"/>
	</linearGradient>
	<path style="fill:url(#SVGID_00000136408256812113258930000000390415526168886939_);" d="M257,126.4h-25.6v14.1H257
		c3.9,0,7.1-3.2,7.1-7.1C264.1,129.6,260.9,126.4,257,126.4z"/>
	
		<linearGradient id="SVGID_00000114059192038883790490000013075604395919955625_" gradientUnits="userSpaceOnUse" x1="278.9666" y1="77.6739" x2="101.3897" y2="258.2437">
		<stop  offset="0.1131" style="stop-color:#009EE2"/>
		<stop  offset="0.8445" style="stop-color:#1D70B7"/>
	</linearGradient>
	<path style="fill:url(#SVGID_00000114059192038883790490000013075604395919955625_);" d="M257,104.4h-25.6v14.1H257
		c3.9,0,7.1-3.2,7.1-7.1C264.1,107.6,260.9,104.4,257,104.4z"/>
	
		<linearGradient id="SVGID_00000087371159950104031910000017399930854207151798_" gradientUnits="userSpaceOnUse" x1="206.2738" y1="6.186" x2="28.6969" y2="186.7558">
		<stop  offset="0.1131" style="stop-color:#009EE2"/>
		<stop  offset="0.8445" style="stop-color:#1D70B7"/>
	</linearGradient>
	<path style="fill:url(#SVGID_00000087371159950104031910000017399930854207151798_);" d="M27.1,184.4h24.7v-14.1H27.1
		c-3.9,0-7.1,3.2-7.1,7.1C20,181.3,23.2,184.4,27.1,184.4z"/>
	
		<linearGradient id="SVGID_00000109029578752630157630000006019345184074807975_" gradientUnits="userSpaceOnUse" x1="195.2953" y1="-4.6105" x2="17.7184" y2="175.9593">
		<stop  offset="0.1131" style="stop-color:#009EE2"/>
		<stop  offset="0.8445" style="stop-color:#1D70B7"/>
	</linearGradient>
	<path style="fill:url(#SVGID_00000109029578752630157630000006019345184074807975_);" d="M27.1,162.5h24.7v-14.1H27.1
		c-3.9,0-7.1,3.2-7.1,7.1C20,159.3,23.2,162.5,27.1,162.5z"/>
	
		<linearGradient id="SVGID_00000022531551702869769870000011383465453069380285_" gradientUnits="userSpaceOnUse" x1="184.3189" y1="-15.4051" x2="6.7419" y2="165.1647">
		<stop  offset="0.1131" style="stop-color:#009EE2"/>
		<stop  offset="0.8445" style="stop-color:#1D70B7"/>
	</linearGradient>
	<path style="fill:url(#SVGID_00000022531551702869769870000011383465453069380285_);" d="M27.1,140.5h24.7v-14.1H27.1
		c-3.9,0-7.1,3.2-7.1,7.1C20,137.4,23.2,140.5,27.1,140.5z"/>
	
		<linearGradient id="SVGID_00000018959903693543560710000009720437473656045445_" gradientUnits="userSpaceOnUse" x1="173.3419" y1="-26.2001" x2="-4.235" y2="154.3697">
		<stop  offset="0.1131" style="stop-color:#009EE2"/>
		<stop  offset="0.8445" style="stop-color:#1D70B7"/>
	</linearGradient>
	<path style="fill:url(#SVGID_00000018959903693543560710000009720437473656045445_);" d="M27.1,118.6h24.7v-14.1H27.1
		c-3.9,0-7.1,3.2-7.1,7.1C20,115.4,23.2,118.6,27.1,118.6z"/>
	
		<linearGradient id="SVGID_00000080188229388779730590000016614089951327357372_" gradientUnits="userSpaceOnUse" x1="242.2487" y1="41.5646" x2="64.6718" y2="222.1344">
		<stop  offset="0.1131" style="stop-color:#009EE2"/>
		<stop  offset="0.8445" style="stop-color:#1D70B7"/>
	</linearGradient>
	<path style="fill:url(#SVGID_00000080188229388779730590000016614089951327357372_);" d="M203.5,60.2c-1.1-0.1-2.2-0.2-3.4-0.2H83
		c-1.2,0-2.3,0.1-3.4,0.2c-11.5,1.5-20.5,10.7-21.8,22.2c-0.1,1-0.2,1.9-0.2,2.9v117.2c0,1.3,0.1,2.6,0.3,3.9
		c1.7,11.1,10.5,19.8,21.7,21.3c1.1,0.1,2.2,0.3,3.4,0.3h117.2c1.1,0,2.3-0.1,3.4-0.3c11.1-1.5,20-10.2,21.7-21.3
		c0.2-1.3,0.3-2.5,0.3-3.9V85.4c0-1-0.1-1.9-0.2-2.9C224,70.9,215,61.8,203.5,60.2z"/>
	<path class="st17" d="M191.6,76.6c-0.9-0.1-1.8-0.2-2.7-0.2H94.2c-0.9,0-1.8,0.1-2.7,0.2c-9.3,1.2-16.6,8.7-17.6,18
		c-0.1,0.8-0.1,1.5-0.1,2.3v94.7c0,1.1,0.1,2.1,0.3,3.1c1.4,9,8.5,16,17.5,17.2c0.9,0.1,1.8,0.2,2.7,0.2h94.7c0.9,0,1.8-0.1,2.7-0.2
		c9-1.2,16.1-8.2,17.5-17.2c0.2-1,0.3-2.1,0.3-3.1V97c0-0.8-0.1-1.6-0.1-2.3C208.2,85.3,200.9,77.9,191.6,76.6z"/>
	<g>
		<path class="st18" d="M192.6,114.3c0.2-4.6-1.8-7.4-3.4-8.9c-5.6-5.1-16.5-3.8-28.8,1.2c-4.5-11.7-11.1-18.8-18.8-18.8
			c-7.7,0-14.3,7.1-18.8,18.8c-12.3-5-23.2-6.3-28.8-1.2c-1.7,1.5-3.6,4.3-3.4,8.9c0.3,7.8,6.5,18.5,16.9,29.6
			c-10.4,11.1-16.6,21.8-16.9,29.6c-0.2,4.6,1.8,7.4,3.4,8.9c2.5,2.3,6,3.3,10.1,3.3c5.3,0,11.7-1.6,18.6-4.4
			c4.5,11.7,11.1,18.8,18.8,18.8s14.3-7.1,18.8-18.8c6.9,2.8,13.3,4.4,18.6,4.4c4.2,0,7.7-1,10.1-3.3c1.7-1.5,3.6-4.3,3.4-8.9
			c-0.3-7.8-6.5-18.5-16.9-29.6C186.1,132.8,192.3,122.1,192.6,114.3z M184.3,110.7c0.3,0.3,1.2,1.1,1.1,3.4
			c-0.2,5.1-4.9,14.1-14.7,24.7c-1.5-1.4-3.1-2.9-4.7-4.3c-0.5-7.7-1.7-14.9-3.4-21.1C173.6,108.9,181.6,108.2,184.3,110.7z
			 M156,171.5c-2.5-1.2-5.1-2.6-7.7-4.2c3.4-2.3,6.7-4.8,9.9-7.3C157.6,164.2,156.9,168,156,171.5z M153.8,154.3
			c-4.2,3.3-8.3,6.3-12.2,8.9c-4-2.6-8.1-5.6-12.2-8.9c-1.8-1.5-3.6-2.9-5.2-4.3c-0.1-2-0.1-4-0.1-6.1c0-2.1,0.1-4.1,0.1-6.1
			c1.7-1.4,3.4-2.9,5.2-4.3c4.2-3.3,8.3-6.3,12.2-8.9c4,2.6,8.1,5.5,12.2,8.9c1.8,1.5,3.6,2.9,5.2,4.3c0.1,2,0.1,4,0.1,6.1
			c0,2.1-0.1,4.1-0.1,6.1C157.4,151.4,155.6,152.9,153.8,154.3z M125,160c3.2,2.5,6.5,5,9.9,7.3c-2.7,1.6-5.3,2.9-7.7,4.2
			C126.3,168,125.5,164.2,125,160z M127.2,116.4c2.5,1.2,5.1,2.6,7.7,4.2c-3.4,2.3-6.7,4.8-9.9,7.3
			C125.5,123.7,126.3,119.9,127.2,116.4z M158.2,127.8c-3.2-2.5-6.5-5-9.9-7.3c2.7-1.6,5.3-2.9,7.7-4.2
			C156.9,119.9,157.6,123.7,158.2,127.8z M141.6,95c4.3,0,8.9,5.4,12.3,14.5c-4,2-8.2,4.2-12.3,6.7c-4.1-2.5-8.2-4.8-12.3-6.7
			C132.7,100.3,137.3,95,141.6,95z M98.8,110.7c1-0.9,2.8-1.4,5.2-1.4c4,0,9.7,1.3,16.5,4.1c-1.7,6.2-2.9,13.3-3.4,21.1
			c-1.6,1.4-3.2,2.9-4.7,4.3c-9.8-10.6-14.5-19.6-14.7-24.7C97.6,111.8,98.5,111,98.8,110.7z M98.8,177.1c-0.3-0.3-1.2-1.1-1.1-3.4
			c0.2-5.1,4.9-14.1,14.7-24.7c1.5,1.4,3.1,2.9,4.7,4.3c0.5,7.7,1.7,14.9,3.4,21.1C109.6,178.9,101.5,179.6,98.8,177.1z
			 M141.6,192.9c-4.3,0-8.9-5.4-12.3-14.5c4-2,8.2-4.2,12.3-6.7c4.1,2.5,8.2,4.8,12.3,6.7C150.4,187.5,145.9,192.9,141.6,192.9z
			 M184.3,177.1c-2.7,2.5-10.8,1.8-21.7-2.7c1.7-6.2,2.9-13.3,3.4-21.1c1.6-1.4,3.2-2.9,4.7-4.3c9.8,10.6,14.5,19.6,14.7,24.7
			C185.5,176.1,184.6,176.9,184.3,177.1z"/>
		<path class="st18" d="M141.5,133.9c-5.5,0-9.9,4.5-9.9,9.9c0,5.5,4.5,9.9,9.9,9.9c5.5,0,9.9-4.5,9.9-9.9
			C151.4,138.4,147,133.9,141.5,133.9z M141.5,146.6c-1.5,0-2.8-1.2-2.8-2.8s1.2-2.8,2.8-2.8s2.8,1.2,2.8,2.8S143,146.6,141.5,146.6
			z"/>
	</g>
</g>
</svg>
