<?xml version="1.0" encoding="utf-8"?>
<!-- Generator: Adobe Illustrator 26.0.2, SVG Export Plug-In . SVG Version: 6.00 Build 0)  -->
<svg version="1.1" id="Layer_1" xmlns="http://www.w3.org/2000/svg" xmlns:xlink="http://www.w3.org/1999/xlink" x="0px" y="0px"
	 viewBox="0 0 283.5 283.5" style="enable-background:new 0 0 283.5 283.5;" xml:space="preserve">
<style type="text/css">
	.st0{fill:url(#SVGID_1_);}
	.st1{fill:url(#SVGID_00000088827231705437658000000005163063060437138601_);}
	.st2{fill:url(#SVGID_00000183958169888802680400000010231872375280619947_);}
	.st3{fill:url(#SVGID_00000104679350736644467220000002324948651228316581_);}
	.st4{fill:url(#SVGID_00000090296222478141706400000009929631035695080590_);}
	.st5{fill:url(#SVGID_00000155116461448665414820000008377531428906758838_);}
	.st6{fill:url(#SVGID_00000008119483282064269830000013877007118287088776_);}
	.st7{fill:url(#SVGID_00000016774649638521738140000013420758500192496275_);}
	.st8{fill:url(#SVGID_00000014608543994994800070000016294599874449860770_);}
	.st9{fill:url(#SVGID_00000034790481359641839770000014814703289801696901_);}
	.st10{fill:url(#SVGID_00000165921293941356765570000012294182887968737424_);}
	.st11{fill:url(#SVGID_00000118375388787953496770000010180277724469307019_);}
	.st12{fill:url(#SVGID_00000038411059211821432010000007161219497964740245_);}
	.st13{fill:url(#SVGID_00000093862520774392204720000009782337223766447491_);}
	.st14{fill:url(#SVGID_00000121990331613532760130000000507888787381930686_);}
	.st15{fill:url(#SVGID_00000011007709880298384270000005306613079714570377_);}
	.st16{fill:url(#SVGID_00000040563800159558327360000014811234362299134852_);}
	.st17{fill:#FFFFFF;}
	.st18{fill:#1D70B7;stroke:#1D70B7;stroke-linecap:round;stroke-linejoin:round;stroke-miterlimit:10;}
</style>
<g id="icon">
</g>
<g>
	<linearGradient id="SVGID_1_" gradientUnits="userSpaceOnUse" x1="172.613" y1="-26.9169" x2="-4.9639" y2="153.6529">
		<stop  offset="0.1131" style="stop-color:#009EE2"/>
		<stop  offset="0.8445" style="stop-color:#1D70B7"/>
	</linearGradient>
	<path class="st0" d="M115.7,25.1c0-3.9-3.2-7.1-7.1-7.1c-3.9,0-7.1,3.2-7.1,7.1v29.1h14.1V25.1z"/>
	
		<linearGradient id="SVGID_00000120540623364431390350000014132211237661465264_" gradientUnits="userSpaceOnUse" x1="183.7765" y1="-15.9384" x2="6.1996" y2="164.6314">
		<stop  offset="0.1131" style="stop-color:#009EE2"/>
		<stop  offset="0.8445" style="stop-color:#1D70B7"/>
	</linearGradient>
	<path style="fill:url(#SVGID_00000120540623364431390350000014132211237661465264_);" d="M137.7,25.1c0-3.9-3.2-7.1-7.1-7.1
		c-3.9,0-7.1,3.2-7.1,7.1v29.1h14.1V25.1z"/>
	
		<linearGradient id="SVGID_00000142151303887383926430000003368102589041802138_" gradientUnits="userSpaceOnUse" x1="194.9393" y1="-4.9607" x2="17.3624" y2="175.6091">
		<stop  offset="0.1131" style="stop-color:#009EE2"/>
		<stop  offset="0.8445" style="stop-color:#1D70B7"/>
	</linearGradient>
	<path style="fill:url(#SVGID_00000142151303887383926430000003368102589041802138_);" d="M159.6,25.1c0-3.9-3.2-7.1-7.1-7.1
		c-3.9,0-7.1,3.2-7.1,7.1v29.1h14.1V25.1z"/>
	
		<linearGradient id="SVGID_00000181058452190493140610000014631304128641482386_" gradientUnits="userSpaceOnUse" x1="206.1017" y1="6.0167" x2="28.5248" y2="186.5865">
		<stop  offset="0.1131" style="stop-color:#009EE2"/>
		<stop  offset="0.8445" style="stop-color:#1D70B7"/>
	</linearGradient>
	<path style="fill:url(#SVGID_00000181058452190493140610000014631304128641482386_);" d="M181.6,25.1c0-3.9-3.2-7.1-7.1-7.1
		c-3.9,0-7.1,3.2-7.1,7.1v29.1h14.1V25.1z"/>
	
		<linearGradient id="SVGID_00000173129187835977307580000006339023931369617830_" gradientUnits="userSpaceOnUse" x1="277.4274" y1="76.1603" x2="99.8505" y2="256.7301">
		<stop  offset="0.1131" style="stop-color:#009EE2"/>
		<stop  offset="0.8445" style="stop-color:#1D70B7"/>
	</linearGradient>
	<path style="fill:url(#SVGID_00000173129187835977307580000006339023931369617830_);" d="M101.6,258.9c0,3.9,3.2,7.1,7.1,7.1
		c3.9,0,7.1-3.2,7.1-7.1v-25.2h-14.1V258.9z"/>
	
		<linearGradient id="SVGID_00000160898321721565718190000012207714685834450051_" gradientUnits="userSpaceOnUse" x1="288.5906" y1="87.1385" x2="111.0137" y2="267.7083">
		<stop  offset="0.1131" style="stop-color:#009EE2"/>
		<stop  offset="0.8445" style="stop-color:#1D70B7"/>
	</linearGradient>
	<path style="fill:url(#SVGID_00000160898321721565718190000012207714685834450051_);" d="M123.5,258.9c0,3.9,3.2,7.1,7.1,7.1
		c3.9,0,7.1-3.2,7.1-7.1v-25.2h-14.1V258.9z"/>
	
		<linearGradient id="SVGID_00000000211586352201346920000011656845549146866364_" gradientUnits="userSpaceOnUse" x1="299.7538" y1="98.1166" x2="122.1769" y2="278.6864">
		<stop  offset="0.1131" style="stop-color:#009EE2"/>
		<stop  offset="0.8445" style="stop-color:#1D70B7"/>
	</linearGradient>
	<path style="fill:url(#SVGID_00000000211586352201346920000011656845549146866364_);" d="M145.5,258.9c0,3.9,3.2,7.1,7.1,7.1
		c3.9,0,7.1-3.2,7.1-7.1v-25.2h-14.1V258.9z"/>
	
		<linearGradient id="SVGID_00000104694686352625987730000007774141496551349892_" gradientUnits="userSpaceOnUse" x1="310.9164" y1="109.0941" x2="133.3394" y2="289.6639">
		<stop  offset="0.1131" style="stop-color:#009EE2"/>
		<stop  offset="0.8445" style="stop-color:#1D70B7"/>
	</linearGradient>
	<path style="fill:url(#SVGID_00000104694686352625987730000007774141496551349892_);" d="M167.4,258.9c0,3.9,3.2,7.1,7.1,7.1
		c3.9,0,7.1-3.2,7.1-7.1v-25.2h-14.1V258.9z"/>
	
		<linearGradient id="SVGID_00000019672559478333650250000009913494754147234697_" gradientUnits="userSpaceOnUse" x1="311.8991" y1="110.0606" x2="134.3222" y2="290.6304">
		<stop  offset="0.1131" style="stop-color:#009EE2"/>
		<stop  offset="0.8445" style="stop-color:#1D70B7"/>
	</linearGradient>
	<path style="fill:url(#SVGID_00000019672559478333650250000009913494754147234697_);" d="M257,170.3h-25.6v14.1H257
		c3.9,0,7.1-3.2,7.1-7.1C264.1,173.5,260.9,170.3,257,170.3z"/>
	
		<linearGradient id="SVGID_00000078030705830401025840000006410195457198846349_" gradientUnits="userSpaceOnUse" x1="300.9206" y1="99.264" x2="123.3437" y2="279.8338">
		<stop  offset="0.1131" style="stop-color:#009EE2"/>
		<stop  offset="0.8445" style="stop-color:#1D70B7"/>
	</linearGradient>
	<path style="fill:url(#SVGID_00000078030705830401025840000006410195457198846349_);" d="M257,148.3h-25.6v14.1H257
		c3.9,0,7.1-3.2,7.1-7.1C264.1,151.5,260.9,148.3,257,148.3z"/>
	
		<linearGradient id="SVGID_00000165921234137215289060000015295901113368282529_" gradientUnits="userSpaceOnUse" x1="289.9434" y1="88.4688" x2="112.3665" y2="269.0386">
		<stop  offset="0.1131" style="stop-color:#009EE2"/>
		<stop  offset="0.8445" style="stop-color:#1D70B7"/>
	</linearGradient>
	<path style="fill:url(#SVGID_00000165921234137215289060000015295901113368282529_);" d="M257,126.4h-25.6v14.1H257
		c3.9,0,7.1-3.2,7.1-7.1C264.1,129.6,260.9,126.4,257,126.4z"/>
	
		<linearGradient id="SVGID_00000000925035329269392110000011991648009853535911_" gradientUnits="userSpaceOnUse" x1="278.9666" y1="77.6739" x2="101.3897" y2="258.2437">
		<stop  offset="0.1131" style="stop-color:#009EE2"/>
		<stop  offset="0.8445" style="stop-color:#1D70B7"/>
	</linearGradient>
	<path style="fill:url(#SVGID_00000000925035329269392110000011991648009853535911_);" d="M257,104.4h-25.6v14.1H257
		c3.9,0,7.1-3.2,7.1-7.1C264.1,107.6,260.9,104.4,257,104.4z"/>
	
		<linearGradient id="SVGID_00000045604987337341179390000004275735094603867788_" gradientUnits="userSpaceOnUse" x1="206.2738" y1="6.186" x2="28.6969" y2="186.7558">
		<stop  offset="0.1131" style="stop-color:#009EE2"/>
		<stop  offset="0.8445" style="stop-color:#1D70B7"/>
	</linearGradient>
	<path style="fill:url(#SVGID_00000045604987337341179390000004275735094603867788_);" d="M27.1,184.4h24.7v-14.1H27.1
		c-3.9,0-7.1,3.2-7.1,7.1C20,181.3,23.2,184.4,27.1,184.4z"/>
	
		<linearGradient id="SVGID_00000137099687466232087320000003227322921184054155_" gradientUnits="userSpaceOnUse" x1="195.2953" y1="-4.6105" x2="17.7184" y2="175.9593">
		<stop  offset="0.1131" style="stop-color:#009EE2"/>
		<stop  offset="0.8445" style="stop-color:#1D70B7"/>
	</linearGradient>
	<path style="fill:url(#SVGID_00000137099687466232087320000003227322921184054155_);" d="M27.1,162.5h24.7v-14.1H27.1
		c-3.9,0-7.1,3.2-7.1,7.1C20,159.3,23.2,162.5,27.1,162.5z"/>
	
		<linearGradient id="SVGID_00000183957782129029848940000013953353201316484744_" gradientUnits="userSpaceOnUse" x1="184.3189" y1="-15.4051" x2="6.7419" y2="165.1647">
		<stop  offset="0.1131" style="stop-color:#009EE2"/>
		<stop  offset="0.8445" style="stop-color:#1D70B7"/>
	</linearGradient>
	<path style="fill:url(#SVGID_00000183957782129029848940000013953353201316484744_);" d="M27.1,140.5h24.7v-14.1H27.1
		c-3.9,0-7.1,3.2-7.1,7.1C20,137.4,23.2,140.5,27.1,140.5z"/>
	
		<linearGradient id="SVGID_00000084517481526030225210000017346402735021321382_" gradientUnits="userSpaceOnUse" x1="173.3419" y1="-26.2001" x2="-4.235" y2="154.3697">
		<stop  offset="0.1131" style="stop-color:#009EE2"/>
		<stop  offset="0.8445" style="stop-color:#1D70B7"/>
	</linearGradient>
	<path style="fill:url(#SVGID_00000084517481526030225210000017346402735021321382_);" d="M27.1,118.6h24.7v-14.1H27.1
		c-3.9,0-7.1,3.2-7.1,7.1C20,115.4,23.2,118.6,27.1,118.6z"/>
	
		<linearGradient id="SVGID_00000183941825082010476970000016538472841467725976_" gradientUnits="userSpaceOnUse" x1="242.2487" y1="41.5646" x2="64.6718" y2="222.1344">
		<stop  offset="0.1131" style="stop-color:#009EE2"/>
		<stop  offset="0.8445" style="stop-color:#1D70B7"/>
	</linearGradient>
	<path style="fill:url(#SVGID_00000183941825082010476970000016538472841467725976_);" d="M203.5,60.2c-1.1-0.1-2.2-0.2-3.4-0.2H83
		c-1.2,0-2.3,0.1-3.4,0.2c-11.5,1.5-20.5,10.7-21.8,22.2c-0.1,1-0.2,1.9-0.2,2.9v117.2c0,1.3,0.1,2.6,0.3,3.9
		c1.7,11.1,10.5,19.8,21.7,21.3c1.1,0.1,2.2,0.3,3.4,0.3h117.2c1.1,0,2.3-0.1,3.4-0.3c11.1-1.5,20-10.2,21.7-21.3
		c0.2-1.3,0.3-2.5,0.3-3.9V85.4c0-1-0.1-1.9-0.2-2.9C224,70.9,215,61.8,203.5,60.2z"/>
	<path class="st17" d="M191.6,76.6c-0.9-0.1-1.8-0.2-2.7-0.2H94.2c-0.9,0-1.8,0.1-2.7,0.2c-9.3,1.2-16.6,8.7-17.6,18
		c-0.1,0.8-0.1,1.5-0.1,2.3v94.7c0,1.1,0.1,2.1,0.3,3.1c1.4,9,8.5,16,17.5,17.2c0.9,0.1,1.8,0.2,2.7,0.2h94.7c0.9,0,1.8-0.1,2.7-0.2
		c9-1.2,16.1-8.2,17.5-17.2c0.2-1,0.3-2.1,0.3-3.1V97c0-0.8-0.1-1.6-0.1-2.3C208.2,85.3,200.9,77.9,191.6,76.6z"/>
	<path class="st18" d="M184.4,150.3c-1.9,0-3.6,0.6-5,1.6l-4.5-4.5c-0.3-0.3-0.7-0.5-1.1-0.5h-3.4c0.4-2.3,0.2-4.7-0.7-7
		c-0.3-0.7-0.6-1.4-1-2.1c0.1-0.7,0.2-1.5,0.2-2.2c0-2-0.4-3.9-1-5.7l10.7-10.7c0.3-0.3,0.5-0.7,0.5-1.1v-8.1
		c4.3-0.6,7.5-4.3,7.5-8.7c0-4.9-4-8.8-8.8-8.8c-4.9,0-8.8,4-8.8,8.8c0,4.2,3,7.8,7,8.6v7.5l-9.5,9.5c-1.2-2-2.9-3.8-5-5.3
		c-0.8-4.6-5.3-8.2-10.7-8.2c-0.3,0-0.6,0-0.9,0l-10-10c-0.3-0.3-0.7-0.5-1.1-0.5h-23.9c-0.7-4.1-4.3-7.2-8.7-7.2
		c-4.9,0-8.8,4-8.8,8.8s4,8.8,8.8,8.8c4.3,0,7.9-3.1,8.7-7.2h23.3l8.2,8.2c-2,0.8-3.6,2.2-4.8,3.9c-1.9-2.8-5.3-4.8-9.3-4.8
		c-5.4,0-9.8,3.6-10.7,8.2c-3,2.1-5.1,4.9-6.3,8.1h-6.8c-0.4,0-0.8,0.2-1.1,0.5l-9.4,9.4c-4.5,0.4-8.1,4.1-8.1,8.8
		c0,4.9,4,8.8,8.8,8.8c4.9,0,8.8-4,8.8-8.8c0-3.7-2.3-6.9-5.6-8.2l7.3-7.3h5.3c-0.2,0.9-0.2,1.8-0.2,2.7c0,0.7,0.1,1.5,0.2,2.2
		c-0.4,0.7-0.7,1.4-1,2.1c-1.6,4.2-1,8.5,1.3,12.1c-0.4,1.1-0.6,2.2-0.7,3.4c-0.3,4.1,1.3,8.1,4.3,11v5.5l-3.3,3.3
		c-1.4-1-3.2-1.6-5-1.6c-4.9,0-8.8,4-8.8,8.8s4,8.8,8.8,8.8c4.9,0,8.8-4,8.8-8.8c0-1.9-0.6-3.6-1.6-5l3.8-3.8
		c0.3-0.3,0.5-0.7,0.5-1.1v-3.7c1.1,0.6,2.2,1.2,3.5,1.5c1.6,2.8,4.8,4.7,8.5,4.7c3.4,0,6.4-1.6,8.1-4c1.7,2.4,4.7,4,8.1,4
		c2.6,0,4.9-0.9,6.7-2.4v4.8c0,0.4,0.2,0.8,0.5,1.1l3.6,3.6c-1,1.4-1.6,3.2-1.6,5c0,4.9,4,8.8,8.8,8.8c4.9,0,8.8-4,8.8-8.8
		c0-4.9-4-8.8-8.8-8.8c-1.9,0-3.6,0.6-5,1.6l-3.1-3.1v-6.9c6.2-2.5,10.2-8.3,9.7-14.5c-0.1-1.1-0.3-2.3-0.7-3.4
		c0.4-0.6,0.7-1.3,1-1.9h3.7l4,4c-1,1.4-1.6,3.2-1.6,5c0,4.9,4,8.8,8.8,8.8c4.9,0,8.8-4,8.8-8.8S189.3,150.3,184.4,150.3z
		 M172.1,101.3c0-3.1,2.5-5.7,5.7-5.7c3.1,0,5.7,2.5,5.7,5.7c0,3.1-2.5,5.7-5.7,5.7C174.7,107,172.1,104.5,172.1,101.3z
		 M106.2,110.3c-3.1,0-5.7-2.5-5.7-5.7s2.5-5.7,5.7-5.7c3,0,5.4,2.3,5.7,5.2c-0.1,0.2-0.1,0.3-0.1,0.5c0,0.2,0,0.4,0.1,0.5
		C111.6,108,109.1,110.3,106.2,110.3z M104.4,148.4c0,3.1-2.5,5.7-5.7,5.7c-3.1,0-5.7-2.5-5.7-5.7s2.5-5.7,5.7-5.7
		C101.8,142.7,104.4,145.3,104.4,148.4z M110,188.1c-3.1,0-5.7-2.5-5.7-5.7s2.5-5.7,5.7-5.7c3.1,0,5.7,2.5,5.7,5.7
		S113.1,188.1,110,188.1z M173.3,187.1c0,3.1-2.5,5.7-5.7,5.7c-3.1,0-5.7-2.5-5.7-5.7s2.5-5.7,5.7-5.7
		C170.8,181.4,173.3,183.9,173.3,187.1z M133.4,171.8c-3.6,0-6.6-2.5-6.6-5.7c0-1.5,0.6-2.8,1.8-3.9c0.6-0.6,0.7-1.6,0.1-2.2
		c-0.6-0.6-1.6-0.7-2.2-0.1c-1.8,1.7-2.8,3.9-2.8,6.2c0,0.1,0,0.2,0,0.3c-1-0.5-2-1.1-2.8-1.8c-0.1-0.1-0.2-0.2-0.3-0.3
		c-2.5-2.3-3.9-5.4-3.6-8.8c0-0.2,0-0.4,0.1-0.7c1.4,1.3,3,2.3,4.9,3.1c0.2,0.1,0.4,0.1,0.6,0.1c0.6,0,1.2-0.4,1.5-1
		c0.3-0.8-0.1-1.7-0.9-2c-6.1-2.5-9-8.5-7-14.1c0.9-2.5,2.7-4.5,5.1-6c0.7-0.4,1-1.4,0.6-2.1c-0.4-0.7-1.4-1-2.1-0.6
		c-0.9,0.5-1.7,1.1-2.4,1.8c0.4-3.2,1.9-6.2,4.4-8.5c0.2,0.7,0.4,1.3,0.8,1.9c0.4,0.8,1.4,1,2.1,0.6c0.8-0.4,1-1.4,0.6-2.1
		c-0.5-0.9-0.7-1.8-0.7-2.8c0-3.7,3.4-6.7,7.7-6.7c4.2,0,7.7,3,7.7,6.7s-3.4,6.7-7.7,6.7c-0.9,0-1.6,0.7-1.6,1.6s0.7,1.6,1.6,1.6
		c3,0,5.7-1.1,7.7-2.9V142c-1.1-0.5-2.3-0.7-3.5-0.7c-1,0-2.1,0.2-3,0.5c0,0-0.1,0-0.1,0c-1.6,0-3.1-0.7-4-1.8
		c-0.5-0.7-1.5-0.8-2.2-0.2c-0.7,0.5-0.8,1.5-0.2,2.2c0.8,1,1.9,1.8,3.1,2.3c-0.7,0.8-1.2,1.8-1.4,2.9c-0.2,0.8,0.4,1.7,1.2,1.9
		c0.1,0,0.2,0,0.3,0c0.7,0,1.4-0.5,1.5-1.2c0.4-2,2.4-3.4,4.7-3.4c1.3,0,2.6,0.5,3.5,1.3v10.9c-3.7,0.2-6.7,3.1-6.7,6.5
		c0,0.9,0.7,1.6,1.6,1.6c0.9,0,1.6-0.7,1.6-1.6c0-1.8,1.6-3.2,3.6-3.4v6.4C140,169.3,137.1,171.8,133.4,171.8z M159.5,166.4v-0.3
		c0-0.2-0.1-0.5-0.2-0.7c-0.2-2.1-1.1-4-2.8-5.5c-0.6-0.6-1.6-0.5-2.2,0.1c-0.6,0.6-0.5,1.6,0.1,2.2c1.2,1.1,1.8,2.4,1.8,3.9
		c0,3.1-2.9,5.7-6.6,5.7c-3.6,0-6.6-2.5-6.6-5.7v-6.4c2,0.2,3.6,1.6,3.6,3.4c0,0.9,0.7,1.6,1.6,1.6c0.9,0,1.6-0.7,1.6-1.6
		c0-3.5-3-6.3-6.7-6.5v-10.9c0.9-0.8,2.2-1.3,3.5-1.3c2.3,0,4.3,1.4,4.7,3.4c0.2,0.7,0.8,1.2,1.5,1.2c0.1,0,0.2,0,0.3,0
		c0.8-0.2,1.4-1,1.2-1.9c-0.2-1.1-0.7-2.1-1.4-2.9c1.2-0.5,2.3-1.3,3.1-2.3c0.5-0.7,0.4-1.7-0.2-2.2c-0.7-0.5-1.7-0.4-2.2,0.2
		c-0.9,1.1-2.4,1.8-4,1.8c0,0-0.1,0-0.1,0c-0.9-0.3-1.9-0.5-3-0.5c-1.2,0-2.4,0.3-3.5,0.7v-11.9c2,1.8,4.7,2.9,7.7,2.9
		c0.9,0,1.6-0.7,1.6-1.6s-0.7-1.6-1.6-1.6c-4.2,0-7.7-3-7.7-6.7s3.4-6.7,7.7-6.7c4.2,0,7.7,3,7.7,6.7c0,1-0.2,1.9-0.7,2.8
		c-0.4,0.8-0.1,1.7,0.6,2.1c0.8,0.4,1.7,0.1,2.1-0.6c0.3-0.6,0.6-1.3,0.8-1.9c2.5,2.4,4,5.3,4.4,8.5c-0.7-0.6-1.5-1.2-2.4-1.8
		c-0.7-0.4-1.7-0.2-2.1,0.6c-0.4,0.7-0.2,1.7,0.6,2.1c2.4,1.4,4.2,3.5,5.1,6c2.1,5.6-0.9,11.6-7,14.1c-0.8,0.3-1.2,1.2-0.9,2
		c0.2,0.6,0.8,1,1.5,1c0.2,0,0.4,0,0.6-0.1c1.9-0.8,3.5-1.8,4.9-3.1c0,0.2,0.1,0.4,0.1,0.7C166.4,160.1,163.8,164.3,159.5,166.4z
		 M184.4,164.8c-3.1,0-5.7-2.5-5.7-5.7s2.5-5.7,5.7-5.7c3.1,0,5.7,2.5,5.7,5.7S187.6,164.8,184.4,164.8z"/>
</g>
</svg>
