<?xml version="1.0" encoding="utf-8"?>
<!-- Generator: Adobe Illustrator 26.0.2, SVG Export Plug-In . SVG Version: 6.00 Build 0)  -->
<svg version="1.1" id="Layer_1" xmlns="http://www.w3.org/2000/svg" xmlns:xlink="http://www.w3.org/1999/xlink" x="0px" y="0px"
	 viewBox="0 0 283.5 283.5" style="enable-background:new 0 0 283.5 283.5;" xml:space="preserve">
<style type="text/css">
	.st0{fill:#FFFFFF;}
</style>
<g id="icon">
</g>
<path class="st0" d="M274.7,81.6l-132-36.4c-0.8-0.2-1.6-0.2-2.4,0L8.3,81.6C6.4,82.1,5,83.9,5,86c0,2,1.4,3.8,3.3,4.4l68,18.8
	c-10.9,14.2-16.8,31.6-16.8,49.6c0,1.9,1.2,3.7,3,4.3l77.4,27.3c0.5,0.2,1,0.3,1.5,0.3s1-0.1,1.5-0.3l77.4-27.3c1.8-0.6,3-2.4,3-4.3
	c0-18.1-5.9-35.4-16.8-49.6l35-9.6v55.6c-5.3,1.9-9.1,6.9-9.1,12.8c0,5.7,3.5,10.6,8.5,12.6l-8.5,59.5c-0.2,1.3,0.2,2.6,1.1,3.6
	c0.9,1,2.1,1.6,3.4,1.6h18.2c1.3,0,2.6-0.6,3.4-1.6c0.9-1,1.3-2.3,1.1-3.6l-8.5-59.5c5-2,8.5-6.9,8.5-12.6c0-5.9-3.8-10.9-9.1-12.8
	V97l24-6.6c2-0.5,3.3-2.3,3.3-4.4C278,83.9,276.6,82.1,274.7,81.6z M246.1,163.3c2.5,0,4.6,2,4.6,4.6s-2,4.6-4.6,4.6s-4.5-2-4.5-4.6
	S243.6,163.3,246.1,163.3z M242.3,236.1l3.9-27l3.9,27H242.3z M214.2,155.6l-72.7,25.7l-72.7-25.7c0.7-16.2,6.8-31.5,17.2-43.8
	l54.3,15c0.4,0.1,0.8,0.2,1.2,0.2s0.8-0.1,1.2-0.2l54.3-15C207.5,124.1,213.5,139.4,214.2,155.6z M245.7,88.9l-103.9-7.5
	c-2.5-0.2-4.7,1.7-4.9,4.2c-0.2,2.5,1.7,4.7,4.2,4.9l78.3,5.6l-78,21.5L26.7,86l114.8-31.7L256.3,86L245.7,88.9z"/>
</svg>
