<?xml version="1.0" encoding="utf-8"?>
<!-- Generator: Adobe Illustrator 26.0.2, SVG Export Plug-In . SVG Version: 6.00 Build 0)  -->
<svg version="1.1" id="Layer_1" xmlns="http://www.w3.org/2000/svg" xmlns:xlink="http://www.w3.org/1999/xlink" x="0px" y="0px"
	 viewBox="0 0 283.5 283.5" style="enable-background:new 0 0 283.5 283.5;" xml:space="preserve">
<style type="text/css">
	.st0{fill:url(#SVGID_1_);}
	.st1{fill:url(#SVGID_00000117661483770593594130000012349474099621056415_);}
	.st2{fill:url(#SVGID_00000086655955746913737120000003456867533411630498_);}
	.st3{fill:url(#SVGID_00000170254878244225239610000017166611840900410804_);}
	.st4{fill:url(#SVGID_00000081605542967331121000000017932970172743906433_);}
	.st5{fill:url(#SVGID_00000043434401116326168530000015447144709719958930_);}
	.st6{fill:url(#SVGID_00000103943462740168217670000010812572127633986478_);}
	.st7{fill:url(#SVGID_00000009564420207537485910000003540647969557619627_);}
	.st8{fill:url(#SVGID_00000039829234308183234490000002045004138991330948_);}
	.st9{fill:url(#SVGID_00000092455894195614369300000012794781605147757968_);}
	.st10{fill:url(#SVGID_00000037667985905677903710000006350936892763162806_);}
	.st11{fill:url(#SVGID_00000078026082720502328440000013293438268153037202_);}
	.st12{fill:url(#SVGID_00000151510749115205362390000015799682457030401976_);}
	.st13{fill:url(#SVGID_00000135693392745256841310000001690455061648284308_);}
	.st14{fill:url(#SVGID_00000061460208722711905240000002328067767052851119_);}
	.st15{fill:url(#SVGID_00000137850888472891852800000017069002677896452762_);}
	.st16{fill:url(#SVGID_00000116956609165168006420000009982544227501926329_);}
	.st17{fill:#FFFFFF;}
	.st18{fill:#1D70B7;stroke:#1D70B7;stroke-width:2;stroke-linecap:round;stroke-linejoin:round;stroke-miterlimit:10;}
</style>
<g id="icon">
</g>
<g>
	<linearGradient id="SVGID_1_" gradientUnits="userSpaceOnUse" x1="172.613" y1="-26.9169" x2="-4.9639" y2="153.6529">
		<stop  offset="0.1131" style="stop-color:#009EE2"/>
		<stop  offset="0.8445" style="stop-color:#1D70B7"/>
	</linearGradient>
	<path class="st0" d="M115.7,25.1c0-3.9-3.2-7.1-7.1-7.1c-3.9,0-7.1,3.2-7.1,7.1v29.1h14.1V25.1z"/>
	
		<linearGradient id="SVGID_00000106855601401951306830000012697393901272664476_" gradientUnits="userSpaceOnUse" x1="183.7765" y1="-15.9384" x2="6.1996" y2="164.6314">
		<stop  offset="0.1131" style="stop-color:#009EE2"/>
		<stop  offset="0.8445" style="stop-color:#1D70B7"/>
	</linearGradient>
	<path style="fill:url(#SVGID_00000106855601401951306830000012697393901272664476_);" d="M137.7,25.1c0-3.9-3.2-7.1-7.1-7.1
		c-3.9,0-7.1,3.2-7.1,7.1v29.1h14.1V25.1z"/>
	
		<linearGradient id="SVGID_00000089547141907036003790000005128744632020178111_" gradientUnits="userSpaceOnUse" x1="194.9393" y1="-4.9607" x2="17.3624" y2="175.6091">
		<stop  offset="0.1131" style="stop-color:#009EE2"/>
		<stop  offset="0.8445" style="stop-color:#1D70B7"/>
	</linearGradient>
	<path style="fill:url(#SVGID_00000089547141907036003790000005128744632020178111_);" d="M159.6,25.1c0-3.9-3.2-7.1-7.1-7.1
		c-3.9,0-7.1,3.2-7.1,7.1v29.1h14.1V25.1z"/>
	
		<linearGradient id="SVGID_00000074444366852851212950000000000844621149129915_" gradientUnits="userSpaceOnUse" x1="206.1017" y1="6.0167" x2="28.5248" y2="186.5865">
		<stop  offset="0.1131" style="stop-color:#009EE2"/>
		<stop  offset="0.8445" style="stop-color:#1D70B7"/>
	</linearGradient>
	<path style="fill:url(#SVGID_00000074444366852851212950000000000844621149129915_);" d="M181.6,25.1c0-3.9-3.2-7.1-7.1-7.1
		c-3.9,0-7.1,3.2-7.1,7.1v29.1h14.1V25.1z"/>
	
		<linearGradient id="SVGID_00000109021463587832312780000001810723625090076580_" gradientUnits="userSpaceOnUse" x1="277.4274" y1="76.1603" x2="99.8505" y2="256.7301">
		<stop  offset="0.1131" style="stop-color:#009EE2"/>
		<stop  offset="0.8445" style="stop-color:#1D70B7"/>
	</linearGradient>
	<path style="fill:url(#SVGID_00000109021463587832312780000001810723625090076580_);" d="M101.6,258.9c0,3.9,3.2,7.1,7.1,7.1
		c3.9,0,7.1-3.2,7.1-7.1v-25.2h-14.1V258.9z"/>
	
		<linearGradient id="SVGID_00000048460561295378775960000005150871458361039287_" gradientUnits="userSpaceOnUse" x1="288.5906" y1="87.1385" x2="111.0137" y2="267.7083">
		<stop  offset="0.1131" style="stop-color:#009EE2"/>
		<stop  offset="0.8445" style="stop-color:#1D70B7"/>
	</linearGradient>
	<path style="fill:url(#SVGID_00000048460561295378775960000005150871458361039287_);" d="M123.5,258.9c0,3.9,3.2,7.1,7.1,7.1
		c3.9,0,7.1-3.2,7.1-7.1v-25.2h-14.1V258.9z"/>
	
		<linearGradient id="SVGID_00000177443792232554281810000000868519927982884751_" gradientUnits="userSpaceOnUse" x1="299.7538" y1="98.1166" x2="122.1769" y2="278.6864">
		<stop  offset="0.1131" style="stop-color:#009EE2"/>
		<stop  offset="0.8445" style="stop-color:#1D70B7"/>
	</linearGradient>
	<path style="fill:url(#SVGID_00000177443792232554281810000000868519927982884751_);" d="M145.5,258.9c0,3.9,3.2,7.1,7.1,7.1
		c3.9,0,7.1-3.2,7.1-7.1v-25.2h-14.1V258.9z"/>
	
		<linearGradient id="SVGID_00000165954335016102005190000013540151691927757237_" gradientUnits="userSpaceOnUse" x1="310.9164" y1="109.0941" x2="133.3394" y2="289.6639">
		<stop  offset="0.1131" style="stop-color:#009EE2"/>
		<stop  offset="0.8445" style="stop-color:#1D70B7"/>
	</linearGradient>
	<path style="fill:url(#SVGID_00000165954335016102005190000013540151691927757237_);" d="M167.4,258.9c0,3.9,3.2,7.1,7.1,7.1
		c3.9,0,7.1-3.2,7.1-7.1v-25.2h-14.1V258.9z"/>
	
		<linearGradient id="SVGID_00000085943036345748129570000000320783213107921809_" gradientUnits="userSpaceOnUse" x1="311.8991" y1="110.0606" x2="134.3222" y2="290.6304">
		<stop  offset="0.1131" style="stop-color:#009EE2"/>
		<stop  offset="0.8445" style="stop-color:#1D70B7"/>
	</linearGradient>
	<path style="fill:url(#SVGID_00000085943036345748129570000000320783213107921809_);" d="M257,170.3h-25.6v14.1H257
		c3.9,0,7.1-3.2,7.1-7.1C264.1,173.5,260.9,170.3,257,170.3z"/>
	
		<linearGradient id="SVGID_00000146493242377263039520000015594334770766943877_" gradientUnits="userSpaceOnUse" x1="300.9206" y1="99.264" x2="123.3437" y2="279.8338">
		<stop  offset="0.1131" style="stop-color:#009EE2"/>
		<stop  offset="0.8445" style="stop-color:#1D70B7"/>
	</linearGradient>
	<path style="fill:url(#SVGID_00000146493242377263039520000015594334770766943877_);" d="M257,148.3h-25.6v14.1H257
		c3.9,0,7.1-3.2,7.1-7.1C264.1,151.5,260.9,148.3,257,148.3z"/>
	
		<linearGradient id="SVGID_00000085229482199757721150000002107862172369119655_" gradientUnits="userSpaceOnUse" x1="289.9434" y1="88.4688" x2="112.3665" y2="269.0386">
		<stop  offset="0.1131" style="stop-color:#009EE2"/>
		<stop  offset="0.8445" style="stop-color:#1D70B7"/>
	</linearGradient>
	<path style="fill:url(#SVGID_00000085229482199757721150000002107862172369119655_);" d="M257,126.4h-25.6v14.1H257
		c3.9,0,7.1-3.2,7.1-7.1C264.1,129.6,260.9,126.4,257,126.4z"/>
	
		<linearGradient id="SVGID_00000111153237126091605050000006562152753687490993_" gradientUnits="userSpaceOnUse" x1="278.9666" y1="77.6739" x2="101.3897" y2="258.2437">
		<stop  offset="0.1131" style="stop-color:#009EE2"/>
		<stop  offset="0.8445" style="stop-color:#1D70B7"/>
	</linearGradient>
	<path style="fill:url(#SVGID_00000111153237126091605050000006562152753687490993_);" d="M257,104.4h-25.6v14.1H257
		c3.9,0,7.1-3.2,7.1-7.1C264.1,107.6,260.9,104.4,257,104.4z"/>
	
		<linearGradient id="SVGID_00000161605892518790846050000003348441725992623245_" gradientUnits="userSpaceOnUse" x1="206.2738" y1="6.186" x2="28.6969" y2="186.7558">
		<stop  offset="0.1131" style="stop-color:#009EE2"/>
		<stop  offset="0.8445" style="stop-color:#1D70B7"/>
	</linearGradient>
	<path style="fill:url(#SVGID_00000161605892518790846050000003348441725992623245_);" d="M27.1,184.4h24.7v-14.1H27.1
		c-3.9,0-7.1,3.2-7.1,7.1C20,181.3,23.2,184.4,27.1,184.4z"/>
	
		<linearGradient id="SVGID_00000036964378926476306670000004594956947732535722_" gradientUnits="userSpaceOnUse" x1="195.2953" y1="-4.6105" x2="17.7184" y2="175.9593">
		<stop  offset="0.1131" style="stop-color:#009EE2"/>
		<stop  offset="0.8445" style="stop-color:#1D70B7"/>
	</linearGradient>
	<path style="fill:url(#SVGID_00000036964378926476306670000004594956947732535722_);" d="M27.1,162.5h24.7v-14.1H27.1
		c-3.9,0-7.1,3.2-7.1,7.1C20,159.3,23.2,162.5,27.1,162.5z"/>
	
		<linearGradient id="SVGID_00000132071569636390886790000000480538811762614155_" gradientUnits="userSpaceOnUse" x1="184.3189" y1="-15.4051" x2="6.7419" y2="165.1647">
		<stop  offset="0.1131" style="stop-color:#009EE2"/>
		<stop  offset="0.8445" style="stop-color:#1D70B7"/>
	</linearGradient>
	<path style="fill:url(#SVGID_00000132071569636390886790000000480538811762614155_);" d="M27.1,140.5h24.7v-14.1H27.1
		c-3.9,0-7.1,3.2-7.1,7.1C20,137.4,23.2,140.5,27.1,140.5z"/>
	
		<linearGradient id="SVGID_00000001631262773701561390000015688144846694220469_" gradientUnits="userSpaceOnUse" x1="173.3419" y1="-26.2001" x2="-4.235" y2="154.3697">
		<stop  offset="0.1131" style="stop-color:#009EE2"/>
		<stop  offset="0.8445" style="stop-color:#1D70B7"/>
	</linearGradient>
	<path style="fill:url(#SVGID_00000001631262773701561390000015688144846694220469_);" d="M27.1,118.6h24.7v-14.1H27.1
		c-3.9,0-7.1,3.2-7.1,7.1C20,115.4,23.2,118.6,27.1,118.6z"/>
	
		<linearGradient id="SVGID_00000162341080908131747770000009689796977126994105_" gradientUnits="userSpaceOnUse" x1="242.2487" y1="41.5646" x2="64.6718" y2="222.1344">
		<stop  offset="0.1131" style="stop-color:#009EE2"/>
		<stop  offset="0.8445" style="stop-color:#1D70B7"/>
	</linearGradient>
	<path style="fill:url(#SVGID_00000162341080908131747770000009689796977126994105_);" d="M203.5,60.2c-1.1-0.1-2.2-0.2-3.4-0.2H83
		c-1.2,0-2.3,0.1-3.4,0.2c-11.5,1.5-20.5,10.7-21.8,22.2c-0.1,1-0.2,1.9-0.2,2.9v117.2c0,1.3,0.1,2.6,0.3,3.9
		c1.7,11.1,10.5,19.8,21.7,21.3c1.1,0.1,2.2,0.3,3.4,0.3h117.2c1.1,0,2.3-0.1,3.4-0.3c11.1-1.5,20-10.2,21.7-21.3
		c0.2-1.3,0.3-2.5,0.3-3.9V85.4c0-1-0.1-1.9-0.2-2.9C224,70.9,215,61.8,203.5,60.2z"/>
	<path class="st17" d="M191.6,76.6c-0.9-0.1-1.8-0.2-2.7-0.2H94.2c-0.9,0-1.8,0.1-2.7,0.2c-9.3,1.2-16.6,8.7-17.6,18
		c-0.1,0.8-0.1,1.5-0.1,2.3v94.7c0,1.1,0.1,2.1,0.3,3.1c1.4,9,8.5,16,17.5,17.2c0.9,0.1,1.8,0.2,2.7,0.2h94.7c0.9,0,1.8-0.1,2.7-0.2
		c9-1.2,16.1-8.2,17.5-17.2c0.2-1,0.3-2.1,0.3-3.1V97c0-0.8-0.1-1.6-0.1-2.3C208.2,85.3,200.9,77.9,191.6,76.6z"/>
	<path class="st18" d="M196.6,126.8c-0.2-5.8-2.2-10.9-5.7-15.1c-3.3-4-7.7-6.8-12.9-8.2c-2.5-0.7-5.2-0.9-7.9-0.8
		c-4.6,0.2-8.9,1.7-12.9,4.3c-2.7,1.8-5.1,4-7.2,6.7c-2-2.6-4.2-4.8-6.8-6.5c-2.9-2-6.1-3.3-9.5-4c-2-0.4-4.1-0.6-6.2-0.5
		c-5.8,0.3-10.8,2.2-15.1,5.7c-4.2,3.5-7,8.1-8.3,13.6c-0.6,2.4-0.8,4.9-0.6,8.1l0,0.3c0,1,0.1,2,0.2,3c0.2,1.6,0.3,2.9,0.6,4.2
		c0.3,1.9,0.8,3.7,1.5,5.5h-17c-1.3,0-2.4,1.1-2.4,2.4c0,1.3,1.1,2.4,2.4,2.4h38c0.9,0,1.7-0.5,2.1-1.3l5.8-10.7l4,25.6
		c0.2,1.1,1.1,2,2.2,2.1c0.1,0,0.1,0,0.2,0c1,0,2-0.7,2.3-1.7l6-18.1l2.4,3.1c0.5,0.6,1.2,0.9,1.9,0.9h20.6c1.3,0,2.4-1.1,2.4-2.4
		c0-1.3-1.1-2.4-2.4-2.4h-19.4l-4.5-5.8c-0.6-0.7-1.5-1.1-2.3-0.9c-0.9,0.2-1.6,0.8-1.9,1.6l-4.3,12.9l-3.5-22.8c-0.2-1-1-1.9-2-2
		c-1-0.2-2.1,0.3-2.6,1.2l-8.5,15.8h-14.4c-0.9-2-1.5-4.1-1.9-6.3c-0.2-1.1-0.4-2.4-0.5-3.9c-0.1-0.9-0.1-1.8-0.2-2.7l0-0.3
		c-0.1-2.7,0.1-4.8,0.5-6.7c1.1-4.5,3.2-8.1,6.7-10.9c3.4-2.8,7.4-4.3,12.2-4.6c1.7-0.1,3.3,0.1,5,0.4c2.7,0.6,5.3,1.7,7.7,3.3
		c2.7,1.8,4.9,4.2,6.9,7.1c0.1,0.2,0.3,0.4,0.4,0.6l2.2,3.5l2.1-3.1l0.4-0.6c0.2-0.3,0.4-0.6,0.6-0.9c1.9-2.8,4.2-5.1,6.8-6.8
		c3.2-2.1,6.7-3.3,10.4-3.5c2.2-0.1,4.4,0.1,6.4,0.7c4.3,1.1,7.6,3.3,10.4,6.6c2.8,3.4,4.4,7.6,4.6,12.2c0.1,1.9,0,3.8-0.2,5.7
		c-0.2,1.5-0.4,3-0.7,4.5c-0.5,2.6-1.4,5.1-2.6,7.6c-1.4,2.7-3.2,5.3-5.8,8.1c-2.7,3-5.7,5.7-8.6,8.3c-1.3,1.1-2.6,2.3-3.9,3.4
		l-3.6,3.2c-1.3,1.1-2.6,2.2-3.9,3.4c-1.8,1.6-3.9,3.4-5.9,5.2c-1.7,1.6-3.5,3.2-5.2,4.8l-1.3,1.2c-0.7-0.6-1.3-1.3-2-1.9
		c-1-0.9-3.3-3-6.2-5.7c-6.7-6.1-15.8-14.4-18.1-16.4c-1-0.9-2.6-0.8-3.4,0.2c-0.9,1-0.8,2.6,0.2,3.4c2.2,2,11.3,10.3,18,16.3
		c2.9,2.6,5.3,4.8,6.2,5.7c0.8,0.7,1.5,1.4,2.3,2.1c0.3,0.3,0.6,0.6,0.9,0.9c0.7,0.9,1.6,1,2,1h0.1c1.5,0,2.4-1.1,2.9-1.8
		c0.1-0.1,0.2-0.2,0.2-0.3l1.4-1.3c1.7-1.6,3.4-3.2,5.2-4.7c2-1.8,4-3.6,5.8-5.2c1.3-1.1,2.6-2.2,3.9-3.4l3.6-3.2
		c1.3-1.1,2.6-2.3,4-3.5c2.9-2.6,6.1-5.5,8.9-8.6c2.8-3.1,4.9-6.1,6.5-9.1c1.5-2.9,2.5-5.8,3.1-8.9c0.3-1.6,0.5-3.2,0.7-4.8
		C196.6,131.1,196.7,128.9,196.6,126.8z"/>
</g>
</svg>
