<?xml version="1.0" encoding="utf-8"?>
<!-- Generator: Adobe Illustrator 26.0.2, SVG Export Plug-In . SVG Version: 6.00 Build 0)  -->
<svg version="1.1" id="Layer_1" xmlns="http://www.w3.org/2000/svg" xmlns:xlink="http://www.w3.org/1999/xlink" x="0px" y="0px"
	 viewBox="0 0 283.5 283.5" style="enable-background:new 0 0 283.5 283.5;" xml:space="preserve">
<style type="text/css">
	.st0{fill:url(#SVGID_1_);}
	.st1{fill:url(#SVGID_00000013183569918290146990000017537948816851522697_);}
	.st2{fill:url(#SVGID_00000150060439671668373170000005631501957996386739_);}
	.st3{fill:url(#SVGID_00000047764531559633600720000016303212908538169244_);}
	.st4{fill:url(#SVGID_00000096037243829204464930000005392052765410488990_);}
	.st5{fill:url(#SVGID_00000111880546173436681450000009772558952744652712_);}
	.st6{fill:url(#SVGID_00000171697655038284072330000014801471134617698225_);}
	.st7{fill:url(#SVGID_00000059271574475667584610000004771110999941655435_);}
	.st8{fill:url(#SVGID_00000103251416570516470870000005411317862973295549_);}
	.st9{fill:url(#SVGID_00000019657840478523145920000001979672961094298510_);}
	.st10{fill:url(#SVGID_00000115474800510935573200000005376152135243103108_);}
	.st11{fill:url(#SVGID_00000183929967271557326090000012288480641132729746_);}
	.st12{fill:url(#SVGID_00000114056353458034998220000009781968567191709604_);}
	.st13{fill:url(#SVGID_00000026151194742107288200000009131823699690156188_);}
	.st14{fill:url(#SVGID_00000003091958308833527990000014705607845174162324_);}
	.st15{fill:url(#SVGID_00000019638501879962281100000002501262689191092868_);}
	.st16{fill:url(#SVGID_00000140704509666988147030000008562457088297397929_);}
	.st17{fill:#FFFFFF;}
	.st18{fill:#1D70B7;}
</style>
<g>
	<linearGradient id="SVGID_1_" gradientUnits="userSpaceOnUse" x1="172.613" y1="-26.9169" x2="-4.9639" y2="153.6529">
		<stop  offset="0.1131" style="stop-color:#009EE2"/>
		<stop  offset="0.8445" style="stop-color:#1D70B7"/>
	</linearGradient>
	<path class="st0" d="M115.7,25.1c0-3.9-3.2-7.1-7.1-7.1c-3.9,0-7.1,3.2-7.1,7.1v29.1h14.1V25.1z"/>
	
		<linearGradient id="SVGID_00000036970388862779566210000011118356852825357484_" gradientUnits="userSpaceOnUse" x1="183.7765" y1="-15.9384" x2="6.1996" y2="164.6314">
		<stop  offset="0.1131" style="stop-color:#009EE2"/>
		<stop  offset="0.8445" style="stop-color:#1D70B7"/>
	</linearGradient>
	<path style="fill:url(#SVGID_00000036970388862779566210000011118356852825357484_);" d="M137.7,25.1c0-3.9-3.2-7.1-7.1-7.1
		c-3.9,0-7.1,3.2-7.1,7.1v29.1h14.1V25.1z"/>
	
		<linearGradient id="SVGID_00000080887692450016212620000010000375673409907353_" gradientUnits="userSpaceOnUse" x1="194.9393" y1="-4.9607" x2="17.3624" y2="175.6091">
		<stop  offset="0.1131" style="stop-color:#009EE2"/>
		<stop  offset="0.8445" style="stop-color:#1D70B7"/>
	</linearGradient>
	<path style="fill:url(#SVGID_00000080887692450016212620000010000375673409907353_);" d="M159.6,25.1c0-3.9-3.2-7.1-7.1-7.1
		c-3.9,0-7.1,3.2-7.1,7.1v29.1h14.1V25.1z"/>
	
		<linearGradient id="SVGID_00000036964765579162887050000002780559902649744042_" gradientUnits="userSpaceOnUse" x1="206.1017" y1="6.0167" x2="28.5248" y2="186.5865">
		<stop  offset="0.1131" style="stop-color:#009EE2"/>
		<stop  offset="0.8445" style="stop-color:#1D70B7"/>
	</linearGradient>
	<path style="fill:url(#SVGID_00000036964765579162887050000002780559902649744042_);" d="M181.6,25.1c0-3.9-3.2-7.1-7.1-7.1
		c-3.9,0-7.1,3.2-7.1,7.1v29.1h14.1V25.1z"/>
	
		<linearGradient id="SVGID_00000023982255215422423350000015818458076396881294_" gradientUnits="userSpaceOnUse" x1="277.4274" y1="76.1603" x2="99.8505" y2="256.7301">
		<stop  offset="0.1131" style="stop-color:#009EE2"/>
		<stop  offset="0.8445" style="stop-color:#1D70B7"/>
	</linearGradient>
	<path style="fill:url(#SVGID_00000023982255215422423350000015818458076396881294_);" d="M101.6,258.9c0,3.9,3.2,7.1,7.1,7.1
		c3.9,0,7.1-3.2,7.1-7.1v-25.2h-14.1V258.9z"/>
	
		<linearGradient id="SVGID_00000160190181388347195960000008717052908451168680_" gradientUnits="userSpaceOnUse" x1="288.5906" y1="87.1385" x2="111.0137" y2="267.7083">
		<stop  offset="0.1131" style="stop-color:#009EE2"/>
		<stop  offset="0.8445" style="stop-color:#1D70B7"/>
	</linearGradient>
	<path style="fill:url(#SVGID_00000160190181388347195960000008717052908451168680_);" d="M123.5,258.9c0,3.9,3.2,7.1,7.1,7.1
		c3.9,0,7.1-3.2,7.1-7.1v-25.2h-14.1V258.9z"/>
	
		<linearGradient id="SVGID_00000096039715495131821450000015719673017238193585_" gradientUnits="userSpaceOnUse" x1="299.7538" y1="98.1166" x2="122.1769" y2="278.6864">
		<stop  offset="0.1131" style="stop-color:#009EE2"/>
		<stop  offset="0.8445" style="stop-color:#1D70B7"/>
	</linearGradient>
	<path style="fill:url(#SVGID_00000096039715495131821450000015719673017238193585_);" d="M145.5,258.9c0,3.9,3.2,7.1,7.1,7.1
		c3.9,0,7.1-3.2,7.1-7.1v-25.2h-14.1V258.9z"/>
	
		<linearGradient id="SVGID_00000178198946035839347760000003514000787658884023_" gradientUnits="userSpaceOnUse" x1="310.9164" y1="109.0941" x2="133.3394" y2="289.6639">
		<stop  offset="0.1131" style="stop-color:#009EE2"/>
		<stop  offset="0.8445" style="stop-color:#1D70B7"/>
	</linearGradient>
	<path style="fill:url(#SVGID_00000178198946035839347760000003514000787658884023_);" d="M167.4,258.9c0,3.9,3.2,7.1,7.1,7.1
		c3.9,0,7.1-3.2,7.1-7.1v-25.2h-14.1V258.9z"/>
	
		<linearGradient id="SVGID_00000089552244280694127350000000446529303054379160_" gradientUnits="userSpaceOnUse" x1="311.8991" y1="110.0606" x2="134.3222" y2="290.6304">
		<stop  offset="0.1131" style="stop-color:#009EE2"/>
		<stop  offset="0.8445" style="stop-color:#1D70B7"/>
	</linearGradient>
	<path style="fill:url(#SVGID_00000089552244280694127350000000446529303054379160_);" d="M257,170.3h-25.6v14.1H257
		c3.9,0,7.1-3.2,7.1-7.1C264.1,173.5,260.9,170.3,257,170.3z"/>
	
		<linearGradient id="SVGID_00000172433976615876855740000005173904118772940972_" gradientUnits="userSpaceOnUse" x1="300.9206" y1="99.264" x2="123.3437" y2="279.8338">
		<stop  offset="0.1131" style="stop-color:#009EE2"/>
		<stop  offset="0.8445" style="stop-color:#1D70B7"/>
	</linearGradient>
	<path style="fill:url(#SVGID_00000172433976615876855740000005173904118772940972_);" d="M257,148.3h-25.6v14.1H257
		c3.9,0,7.1-3.2,7.1-7.1C264.1,151.5,260.9,148.3,257,148.3z"/>
	
		<linearGradient id="SVGID_00000029019645956253432620000018149042469169924229_" gradientUnits="userSpaceOnUse" x1="289.9434" y1="88.4688" x2="112.3665" y2="269.0386">
		<stop  offset="0.1131" style="stop-color:#009EE2"/>
		<stop  offset="0.8445" style="stop-color:#1D70B7"/>
	</linearGradient>
	<path style="fill:url(#SVGID_00000029019645956253432620000018149042469169924229_);" d="M257,126.4h-25.6v14.1H257
		c3.9,0,7.1-3.2,7.1-7.1C264.1,129.6,260.9,126.4,257,126.4z"/>
	
		<linearGradient id="SVGID_00000088103408186451321320000016235344078564002227_" gradientUnits="userSpaceOnUse" x1="278.9666" y1="77.6739" x2="101.3897" y2="258.2437">
		<stop  offset="0.1131" style="stop-color:#009EE2"/>
		<stop  offset="0.8445" style="stop-color:#1D70B7"/>
	</linearGradient>
	<path style="fill:url(#SVGID_00000088103408186451321320000016235344078564002227_);" d="M257,104.4h-25.6v14.1H257
		c3.9,0,7.1-3.2,7.1-7.1C264.1,107.6,260.9,104.4,257,104.4z"/>
	
		<linearGradient id="SVGID_00000127747499592945028500000007483383370234328720_" gradientUnits="userSpaceOnUse" x1="206.2738" y1="6.186" x2="28.6969" y2="186.7558">
		<stop  offset="0.1131" style="stop-color:#009EE2"/>
		<stop  offset="0.8445" style="stop-color:#1D70B7"/>
	</linearGradient>
	<path style="fill:url(#SVGID_00000127747499592945028500000007483383370234328720_);" d="M27.1,184.4h24.7v-14.1H27.1
		c-3.9,0-7.1,3.2-7.1,7.1C20,181.3,23.2,184.4,27.1,184.4z"/>
	
		<linearGradient id="SVGID_00000094591152308816761850000015977356735596295867_" gradientUnits="userSpaceOnUse" x1="195.2953" y1="-4.6105" x2="17.7184" y2="175.9593">
		<stop  offset="0.1131" style="stop-color:#009EE2"/>
		<stop  offset="0.8445" style="stop-color:#1D70B7"/>
	</linearGradient>
	<path style="fill:url(#SVGID_00000094591152308816761850000015977356735596295867_);" d="M27.1,162.5h24.7v-14.1H27.1
		c-3.9,0-7.1,3.2-7.1,7.1C20,159.3,23.2,162.5,27.1,162.5z"/>
	
		<linearGradient id="SVGID_00000160870461113667675140000002705812734379403159_" gradientUnits="userSpaceOnUse" x1="184.3189" y1="-15.4051" x2="6.7419" y2="165.1647">
		<stop  offset="0.1131" style="stop-color:#009EE2"/>
		<stop  offset="0.8445" style="stop-color:#1D70B7"/>
	</linearGradient>
	<path style="fill:url(#SVGID_00000160870461113667675140000002705812734379403159_);" d="M27.1,140.5h24.7v-14.1H27.1
		c-3.9,0-7.1,3.2-7.1,7.1C20,137.4,23.2,140.5,27.1,140.5z"/>
	
		<linearGradient id="SVGID_00000047777950487136803830000013487701648973655949_" gradientUnits="userSpaceOnUse" x1="173.3419" y1="-26.2001" x2="-4.235" y2="154.3697">
		<stop  offset="0.1131" style="stop-color:#009EE2"/>
		<stop  offset="0.8445" style="stop-color:#1D70B7"/>
	</linearGradient>
	<path style="fill:url(#SVGID_00000047777950487136803830000013487701648973655949_);" d="M27.1,118.6h24.7v-14.1H27.1
		c-3.9,0-7.1,3.2-7.1,7.1C20,115.4,23.2,118.6,27.1,118.6z"/>
	
		<linearGradient id="SVGID_00000083801848593455379080000002565815163276504744_" gradientUnits="userSpaceOnUse" x1="242.2487" y1="41.5646" x2="64.6718" y2="222.1344">
		<stop  offset="0.1131" style="stop-color:#009EE2"/>
		<stop  offset="0.8445" style="stop-color:#1D70B7"/>
	</linearGradient>
	<path style="fill:url(#SVGID_00000083801848593455379080000002565815163276504744_);" d="M203.5,60.2c-1.1-0.1-2.2-0.2-3.4-0.2H83
		c-1.2,0-2.3,0.1-3.4,0.2c-11.5,1.5-20.5,10.7-21.8,22.2c-0.1,1-0.2,1.9-0.2,2.9v117.2c0,1.3,0.1,2.6,0.3,3.9
		c1.7,11.1,10.5,19.8,21.7,21.3c1.1,0.1,2.2,0.3,3.4,0.3h117.2c1.1,0,2.3-0.1,3.4-0.3c11.1-1.5,20-10.2,21.7-21.3
		c0.2-1.3,0.3-2.5,0.3-3.9V85.4c0-1-0.1-1.9-0.2-2.9C224,70.9,215,61.8,203.5,60.2z"/>
	<path class="st17" d="M191.6,76.6c-0.9-0.1-1.8-0.2-2.7-0.2H94.2c-0.9,0-1.8,0.1-2.7,0.2c-9.3,1.2-16.6,8.7-17.6,18
		c-0.1,0.8-0.1,1.5-0.1,2.3v94.7c0,1.1,0.1,2.1,0.3,3.1c1.4,9,8.5,16,17.5,17.2c0.9,0.1,1.8,0.2,2.7,0.2h94.7c0.9,0,1.8-0.1,2.7-0.2
		c9-1.2,16.1-8.2,17.5-17.2c0.2-1,0.3-2.1,0.3-3.1V97c0-0.8-0.1-1.6-0.1-2.3C208.2,85.3,200.9,77.9,191.6,76.6z"/>
	<g>
		<path id="_x31__00000088095298087758737870000016651435561961426825_" class="st18" d="M189.5,133v17.2c3.5-1.3,6-4.7,6-8.6
			C195.5,137.7,193,134.3,189.5,133z M141,136.8l5.8-27l-4.2,6.5l-0.3,0.5l-19.7,30.2l11.1-0.2l-3.4,16.1l-0.1,0.2l-2.2,10.3
			l5.9-9.3l0.9-1.3l16.9-26.4L141,136.8z M92.7,154.2V129c0-4.8,3.9-8.7,8.7-8.7h32.9l2.6-4h-35.6c-7,0-12.7,5.7-12.7,12.7v25.2
			c0,7,5.7,12.7,12.7,12.7h22.9l0.8-4h-23.7C96.6,162.9,92.7,159,92.7,154.2z M172.7,116.3h-22.2l-0.9,4h23.1c4.8,0,8.7,3.9,8.7,8.7
			v25.2c0,4.8-3.9,8.7-8.7,8.7h-32.4l-2.6,4h35c7,0,12.7-5.7,12.7-12.7V129C185.4,122,179.7,116.3,172.7,116.3z"/>
		<path class="st18" d="M127.9,174.5c-0.1,0-0.3,0-0.4-0.1c-0.4-0.2-0.7-0.7-0.6-1.1l5.3-25.5l-9.8,0.1c-0.4,0-0.7-0.2-0.9-0.5
			c-0.2-0.3-0.2-0.7,0-1l24.3-37.2c0.3-0.4,0.8-0.6,1.2-0.4c0.4,0.2,0.7,0.7,0.6,1.1l-5.5,25.8l9.4-0.2c0.4,0,0.7,0.2,0.9,0.5
			c0.2,0.3,0.2,0.7,0,1L128.8,174C128.6,174.3,128.3,174.5,127.9,174.5z M133.5,145.8c0.3,0,0.6,0.1,0.8,0.4
			c0.2,0.2,0.3,0.5,0.2,0.8l-4.5,21.4l19.7-30.8l-8.7,0.2c-0.3,0-0.6-0.1-0.8-0.4s-0.3-0.5-0.2-0.8l4.7-21.7l-20.4,31.1L133.5,145.8
			C133.5,145.8,133.5,145.8,133.5,145.8z M172.7,167.9h-35c-0.4,0-0.7-0.2-0.9-0.5c-0.2-0.3-0.2-0.7,0-1l2.6-4
			c0.2-0.3,0.5-0.5,0.8-0.5h32.4c4.2,0,7.7-3.5,7.7-7.7V129c0-4.2-3.5-7.7-7.7-7.7h-23.1c-0.3,0-0.6-0.1-0.8-0.4
			c-0.2-0.2-0.3-0.5-0.2-0.8l0.9-4c0.1-0.5,0.5-0.8,1-0.8h22.2c7.6,0,13.7,6.2,13.7,13.7v25.2C186.4,161.8,180.3,167.9,172.7,167.9z
			 M139.5,165.9h33.1c6.5,0,11.7-5.3,11.7-11.7V129c0-6.5-5.3-11.7-11.7-11.7h-21.4l-0.4,2h21.9c5.3,0,9.7,4.4,9.7,9.7v25.2
			c0,5.3-4.4,9.7-9.7,9.7h-31.8L139.5,165.9z M124.2,167.9h-22.9c-7.6,0-13.7-6.2-13.7-13.7V129c0-7.6,6.2-13.7,13.7-13.7h35.6
			c0.4,0,0.7,0.2,0.9,0.5c0.2,0.3,0.2,0.7,0,1l-2.6,4c-0.2,0.3-0.5,0.5-0.8,0.5h-32.9c-4.2,0-7.7,3.5-7.7,7.7v25.2
			c0,4.2,3.5,7.7,7.7,7.7h23.7c0.3,0,0.6,0.1,0.8,0.4s0.3,0.5,0.2,0.8l-0.8,4C125.1,167.6,124.7,167.9,124.2,167.9z M101.4,117.3
			c-6.5,0-11.7,5.3-11.7,11.7v25.2c0,6.5,5.3,11.7,11.7,11.7h22.1l0.4-2h-22.5c-5.3,0-9.7-4.4-9.7-9.7V129c0-5.3,4.4-9.7,9.7-9.7
			h32.4l1.3-2H101.4z M189.5,151.2c-0.2,0-0.4-0.1-0.6-0.2c-0.3-0.2-0.4-0.5-0.4-0.8V133c0-0.3,0.2-0.6,0.4-0.8
			c0.3-0.2,0.6-0.2,0.9-0.1c4,1.5,6.6,5.3,6.6,9.6c0,4.2-2.7,8.1-6.6,9.6C189.7,151.2,189.6,151.2,189.5,151.2z M190.5,134.6v14.1
			c2.4-1.5,4-4.1,4-7S192.9,136,190.5,134.6z"/>
	</g>
	<path class="st18" d="M98.5,130.1v23.1c0,2.3,1.9,4.3,4.3,4.3h12v-31.6h-12C100.4,125.8,98.5,127.7,98.5,130.1z"/>
</g>
</svg>
