<?xml version="1.0" encoding="utf-8"?>
<!-- Generator: Adobe Illustrator 26.0.2, SVG Export Plug-In . SVG Version: 6.00 Build 0)  -->
<svg version="1.1" id="Layer_1" xmlns="http://www.w3.org/2000/svg" xmlns:xlink="http://www.w3.org/1999/xlink" x="0px" y="0px"
	 viewBox="0 0 283.5 283.5" style="enable-background:new 0 0 283.5 283.5;" xml:space="preserve">
<style type="text/css">
	.st0{fill:url(#SVGID_1_);}
	.st1{fill:url(#SVGID_00000155855736279790692450000014513115990013073793_);}
	.st2{fill:url(#SVGID_00000163794212609533448100000008531233288881481407_);}
	.st3{fill:url(#SVGID_00000101073647338353374880000016937086826003963521_);}
	.st4{fill:url(#SVGID_00000179627887672645707360000003765991312666826131_);}
	.st5{fill:url(#SVGID_00000000917454464468291830000014197075420199152037_);}
	.st6{fill:url(#SVGID_00000139266464364025852000000000578276647074996623_);}
	.st7{fill:url(#SVGID_00000016779554537255262450000015988310223583379843_);}
	.st8{fill:url(#SVGID_00000112623482398468225700000012200156783853825427_);}
	.st9{fill:url(#SVGID_00000062185729693973922580000007633811590420614786_);}
	.st10{fill:url(#SVGID_00000019654557705552581660000013910141173097211557_);}
	.st11{fill:url(#SVGID_00000137095899837453990380000006113248404712123295_);}
	.st12{fill:url(#SVGID_00000039816155475850609980000018368252483157602476_);}
	.st13{fill:url(#SVGID_00000147914034757078100220000001175858562703331720_);}
	.st14{fill:url(#SVGID_00000111158351661660009210000005945879503632819634_);}
	.st15{fill:url(#SVGID_00000114061222164133646710000010996956724030744720_);}
	.st16{fill:url(#SVGID_00000024697943355324761900000016312842122350674082_);}
	.st17{fill:#FFFFFF;}
	.st18{fill:#1D70B7;}
</style>
<g>
	<linearGradient id="SVGID_1_" gradientUnits="userSpaceOnUse" x1="172.613" y1="-26.9169" x2="-4.9639" y2="153.6529">
		<stop  offset="0.1131" style="stop-color:#009EE2"/>
		<stop  offset="0.8445" style="stop-color:#1D70B7"/>
	</linearGradient>
	<path class="st0" d="M115.7,25.1c0-3.9-3.2-7.1-7.1-7.1c-3.9,0-7.1,3.2-7.1,7.1v29.1h14.1V25.1z"/>
	
		<linearGradient id="SVGID_00000090260391374175139380000006308243767755261844_" gradientUnits="userSpaceOnUse" x1="183.7765" y1="-15.9384" x2="6.1996" y2="164.6314">
		<stop  offset="0.1131" style="stop-color:#009EE2"/>
		<stop  offset="0.8445" style="stop-color:#1D70B7"/>
	</linearGradient>
	<path style="fill:url(#SVGID_00000090260391374175139380000006308243767755261844_);" d="M137.7,25.1c0-3.9-3.2-7.1-7.1-7.1
		c-3.9,0-7.1,3.2-7.1,7.1v29.1h14.1V25.1z"/>
	
		<linearGradient id="SVGID_00000183217795489588567530000001776937010953742477_" gradientUnits="userSpaceOnUse" x1="194.9393" y1="-4.9607" x2="17.3623" y2="175.6091">
		<stop  offset="0.1131" style="stop-color:#009EE2"/>
		<stop  offset="0.8445" style="stop-color:#1D70B7"/>
	</linearGradient>
	<path style="fill:url(#SVGID_00000183217795489588567530000001776937010953742477_);" d="M159.6,25.1c0-3.9-3.2-7.1-7.1-7.1
		c-3.9,0-7.1,3.2-7.1,7.1v29.1h14.1V25.1z"/>
	
		<linearGradient id="SVGID_00000059311741231324702820000007790863482909576860_" gradientUnits="userSpaceOnUse" x1="206.1017" y1="6.0167" x2="28.5248" y2="186.5865">
		<stop  offset="0.1131" style="stop-color:#009EE2"/>
		<stop  offset="0.8445" style="stop-color:#1D70B7"/>
	</linearGradient>
	<path style="fill:url(#SVGID_00000059311741231324702820000007790863482909576860_);" d="M181.6,25.1c0-3.9-3.2-7.1-7.1-7.1
		c-3.9,0-7.1,3.2-7.1,7.1v29.1h14.1V25.1z"/>
	
		<linearGradient id="SVGID_00000092443763252342914610000017525684424574116519_" gradientUnits="userSpaceOnUse" x1="277.4274" y1="76.1603" x2="99.8505" y2="256.7301">
		<stop  offset="0.1131" style="stop-color:#009EE2"/>
		<stop  offset="0.8445" style="stop-color:#1D70B7"/>
	</linearGradient>
	<path style="fill:url(#SVGID_00000092443763252342914610000017525684424574116519_);" d="M101.6,258.9c0,3.9,3.2,7.1,7.1,7.1
		c3.9,0,7.1-3.2,7.1-7.1v-25.2h-14.1V258.9z"/>
	
		<linearGradient id="SVGID_00000066503998251955405200000001863485671434981007_" gradientUnits="userSpaceOnUse" x1="288.5906" y1="87.1385" x2="111.0137" y2="267.7083">
		<stop  offset="0.1131" style="stop-color:#009EE2"/>
		<stop  offset="0.8445" style="stop-color:#1D70B7"/>
	</linearGradient>
	<path style="fill:url(#SVGID_00000066503998251955405200000001863485671434981007_);" d="M123.5,258.9c0,3.9,3.2,7.1,7.1,7.1
		c3.9,0,7.1-3.2,7.1-7.1v-25.2h-14.1V258.9z"/>
	
		<linearGradient id="SVGID_00000062173972223293085320000000747075829629142462_" gradientUnits="userSpaceOnUse" x1="299.7538" y1="98.1166" x2="122.1769" y2="278.6864">
		<stop  offset="0.1131" style="stop-color:#009EE2"/>
		<stop  offset="0.8445" style="stop-color:#1D70B7"/>
	</linearGradient>
	<path style="fill:url(#SVGID_00000062173972223293085320000000747075829629142462_);" d="M145.5,258.9c0,3.9,3.2,7.1,7.1,7.1
		c3.9,0,7.1-3.2,7.1-7.1v-25.2h-14.1V258.9z"/>
	
		<linearGradient id="SVGID_00000111161608169676690900000002255119445419018919_" gradientUnits="userSpaceOnUse" x1="310.9163" y1="109.0941" x2="133.3394" y2="289.6639">
		<stop  offset="0.1131" style="stop-color:#009EE2"/>
		<stop  offset="0.8445" style="stop-color:#1D70B7"/>
	</linearGradient>
	<path style="fill:url(#SVGID_00000111161608169676690900000002255119445419018919_);" d="M167.4,258.9c0,3.9,3.2,7.1,7.1,7.1
		c3.9,0,7.1-3.2,7.1-7.1v-25.2h-14.1V258.9z"/>
	
		<linearGradient id="SVGID_00000021834741475428965040000011076893638667734674_" gradientUnits="userSpaceOnUse" x1="311.8991" y1="110.0606" x2="134.3222" y2="290.6304">
		<stop  offset="0.1131" style="stop-color:#009EE2"/>
		<stop  offset="0.8445" style="stop-color:#1D70B7"/>
	</linearGradient>
	<path style="fill:url(#SVGID_00000021834741475428965040000011076893638667734674_);" d="M257,170.3h-25.6v14.1H257
		c3.9,0,7.1-3.2,7.1-7.1C264.1,173.5,260.9,170.3,257,170.3z"/>
	
		<linearGradient id="SVGID_00000111182678954140508840000005732043657556559014_" gradientUnits="userSpaceOnUse" x1="300.9206" y1="99.264" x2="123.3436" y2="279.8338">
		<stop  offset="0.1131" style="stop-color:#009EE2"/>
		<stop  offset="0.8445" style="stop-color:#1D70B7"/>
	</linearGradient>
	<path style="fill:url(#SVGID_00000111182678954140508840000005732043657556559014_);" d="M257,148.3h-25.6v14.1H257
		c3.9,0,7.1-3.2,7.1-7.1C264.1,151.5,260.9,148.3,257,148.3z"/>
	
		<linearGradient id="SVGID_00000005247182888918856020000014111926313865194403_" gradientUnits="userSpaceOnUse" x1="289.9433" y1="88.4688" x2="112.3664" y2="269.0385">
		<stop  offset="0.1131" style="stop-color:#009EE2"/>
		<stop  offset="0.8445" style="stop-color:#1D70B7"/>
	</linearGradient>
	<path style="fill:url(#SVGID_00000005247182888918856020000014111926313865194403_);" d="M257,126.4h-25.6v14.1H257
		c3.9,0,7.1-3.2,7.1-7.1C264.1,129.6,260.9,126.4,257,126.4z"/>
	
		<linearGradient id="SVGID_00000123409043765968596750000017855274440310014370_" gradientUnits="userSpaceOnUse" x1="278.9666" y1="77.674" x2="101.3897" y2="258.2437">
		<stop  offset="0.1131" style="stop-color:#009EE2"/>
		<stop  offset="0.8445" style="stop-color:#1D70B7"/>
	</linearGradient>
	<path style="fill:url(#SVGID_00000123409043765968596750000017855274440310014370_);" d="M257,104.4h-25.6v14.1H257
		c3.9,0,7.1-3.2,7.1-7.1C264.1,107.6,260.9,104.4,257,104.4z"/>
	
		<linearGradient id="SVGID_00000000917213751876311750000002272697125250324159_" gradientUnits="userSpaceOnUse" x1="206.2738" y1="6.186" x2="28.6969" y2="186.7558">
		<stop  offset="0.1131" style="stop-color:#009EE2"/>
		<stop  offset="0.8445" style="stop-color:#1D70B7"/>
	</linearGradient>
	<path style="fill:url(#SVGID_00000000917213751876311750000002272697125250324159_);" d="M27.1,184.4h24.7v-14.1H27.1
		c-3.9,0-7.1,3.2-7.1,7.1C20,181.3,23.2,184.4,27.1,184.4z"/>
	
		<linearGradient id="SVGID_00000030450331923114828260000003334576263463232168_" gradientUnits="userSpaceOnUse" x1="195.2953" y1="-4.6105" x2="17.7184" y2="175.9593">
		<stop  offset="0.1131" style="stop-color:#009EE2"/>
		<stop  offset="0.8445" style="stop-color:#1D70B7"/>
	</linearGradient>
	<path style="fill:url(#SVGID_00000030450331923114828260000003334576263463232168_);" d="M27.1,162.5h24.7v-14.1H27.1
		c-3.9,0-7.1,3.2-7.1,7.1C20,159.3,23.2,162.5,27.1,162.5z"/>
	
		<linearGradient id="SVGID_00000166661561842098559280000009198745359926493883_" gradientUnits="userSpaceOnUse" x1="184.3189" y1="-15.405" x2="6.7419" y2="165.1647">
		<stop  offset="0.1131" style="stop-color:#009EE2"/>
		<stop  offset="0.8445" style="stop-color:#1D70B7"/>
	</linearGradient>
	<path style="fill:url(#SVGID_00000166661561842098559280000009198745359926493883_);" d="M27.1,140.5h24.7v-14.1H27.1
		c-3.9,0-7.1,3.2-7.1,7.1C20,137.4,23.2,140.5,27.1,140.5z"/>
	
		<linearGradient id="SVGID_00000143575300055119709180000017243135019428728200_" gradientUnits="userSpaceOnUse" x1="173.3419" y1="-26.2001" x2="-4.235" y2="154.3697">
		<stop  offset="0.1131" style="stop-color:#009EE2"/>
		<stop  offset="0.8445" style="stop-color:#1D70B7"/>
	</linearGradient>
	<path style="fill:url(#SVGID_00000143575300055119709180000017243135019428728200_);" d="M27.1,118.6h24.7v-14.1H27.1
		c-3.9,0-7.1,3.2-7.1,7.1C20,115.4,23.2,118.6,27.1,118.6z"/>
	
		<linearGradient id="SVGID_00000029724721767638851290000011368627754098519170_" gradientUnits="userSpaceOnUse" x1="242.2487" y1="41.5647" x2="64.6718" y2="222.1344">
		<stop  offset="0.1131" style="stop-color:#009EE2"/>
		<stop  offset="0.8445" style="stop-color:#1D70B7"/>
	</linearGradient>
	<path style="fill:url(#SVGID_00000029724721767638851290000011368627754098519170_);" d="M203.5,60.2c-1.1-0.1-2.2-0.2-3.4-0.2H83
		c-1.2,0-2.3,0.1-3.4,0.2c-11.5,1.5-20.5,10.7-21.8,22.2c-0.1,1-0.2,1.9-0.2,2.9v117.2c0,1.3,0.1,2.6,0.3,3.9
		c1.7,11.1,10.5,19.8,21.7,21.3c1.1,0.1,2.2,0.3,3.4,0.3h117.2c1.1,0,2.3-0.1,3.4-0.3c11.1-1.5,20-10.2,21.7-21.3
		c0.2-1.3,0.3-2.5,0.3-3.9V85.4c0-1-0.1-1.9-0.2-2.9C224,70.9,215,61.8,203.5,60.2z"/>
	<path class="st17" d="M191.6,76.6c-0.9-0.1-1.8-0.2-2.7-0.2H94.2c-0.9,0-1.8,0.1-2.7,0.2c-9.3,1.2-16.6,8.7-17.6,18
		c-0.1,0.8-0.1,1.5-0.1,2.3v94.7c0,1.1,0.1,2.1,0.3,3.1c1.4,9,8.5,16,17.5,17.2c0.9,0.1,1.8,0.2,2.7,0.2h94.7c0.9,0,1.8-0.1,2.7-0.2
		c9-1.2,16.1-8.2,17.5-17.2c0.2-1,0.3-2.1,0.3-3.1V97c0-0.8-0.1-1.6-0.1-2.3C208.2,85.3,200.9,77.9,191.6,76.6z"/>
	<path class="st18" d="M179.1,187.8h-23.6c-1.9,0-3.4-1.5-3.4-3.4v-76.7h-21.5v42.8c0,1.9-1.5,3.4-3.4,3.4h-23.3
		c-1.9,0-3.4-1.5-3.4-3.4v-19.3H86.9c-1.9,0-3.4-1.5-3.4-3.4s1.5-3.4,3.4-3.4h16.9c1.9,0,3.4,1.5,3.4,3.4v19.3h16.6v-42.8
		c0-1.9,1.5-3.4,3.4-3.4h28.3c1.9,0,3.4,1.5,3.4,3.4v76.7h16.9v-36.8c0-1.9,1.5-3.4,3.4-3.4h15.9c1.9,0,3.4,1.5,3.4,3.4
		s-1.5,3.4-3.4,3.4h-12.5v36.8C182.4,186.3,180.9,187.8,179.1,187.8z"/>
</g>
</svg>
