<?xml version="1.0" encoding="utf-8"?>
<!-- Generator: Adobe Illustrator 26.0.2, SVG Export Plug-In . SVG Version: 6.00 Build 0)  -->
<svg version="1.1" id="Layer_1" xmlns="http://www.w3.org/2000/svg" xmlns:xlink="http://www.w3.org/1999/xlink" x="0px" y="0px"
	 viewBox="0 0 283.5 283.5" style="enable-background:new 0 0 283.5 283.5;" xml:space="preserve">
<style type="text/css">
	.st0{fill:url(#SVGID_1_);}
	.st1{fill:url(#SVGID_00000070813170171399876270000002596683476948431790_);}
	.st2{fill:url(#SVGID_00000042738228530724595520000009405791029796860057_);}
	.st3{fill:url(#SVGID_00000154427062607147726290000004700381678593140150_);}
	.st4{fill:url(#SVGID_00000169532524600028377940000006428681702759991685_);}
	.st5{fill:url(#SVGID_00000133521867110286655770000002263820408890500249_);}
	.st6{fill:url(#SVGID_00000044878670371072703680000013848769071396345745_);}
	.st7{fill:url(#SVGID_00000115512317004885683230000001591096044683800248_);}
	.st8{fill:url(#SVGID_00000006695001956518132330000016569117770830952836_);}
	.st9{fill:url(#SVGID_00000166649272275749293760000006979581897746744508_);}
	.st10{fill:url(#SVGID_00000129906176386465031550000013422292386315585157_);}
	.st11{fill:url(#SVGID_00000159461893921670153980000014374090404697111962_);}
	.st12{fill:url(#SVGID_00000111879222598484069340000003367709435749746598_);}
	.st13{fill:url(#SVGID_00000007411018012274282240000001698174279113233832_);}
	.st14{fill:url(#SVGID_00000020382400988647717500000001379179262284460984_);}
	.st15{fill:url(#SVGID_00000030480174000512397280000006061155880598781578_);}
	.st16{fill:url(#SVGID_00000127003615108416921740000002047667477663109557_);}
	.st17{fill:#FFFFFF;}
	.st18{fill:#1D70B7;}
</style>
<g>
	<linearGradient id="SVGID_1_" gradientUnits="userSpaceOnUse" x1="172.613" y1="-26.9169" x2="-4.9639" y2="153.6529">
		<stop  offset="0.1131" style="stop-color:#009EE2"/>
		<stop  offset="0.8445" style="stop-color:#1D70B7"/>
	</linearGradient>
	<path class="st0" d="M115.7,25.1c0-3.9-3.2-7.1-7.1-7.1c-3.9,0-7.1,3.2-7.1,7.1v29.1h14.1V25.1z"/>
	
		<linearGradient id="SVGID_00000008839751164260182380000000353320834394413197_" gradientUnits="userSpaceOnUse" x1="183.7765" y1="-15.9384" x2="6.1996" y2="164.6314">
		<stop  offset="0.1131" style="stop-color:#009EE2"/>
		<stop  offset="0.8445" style="stop-color:#1D70B7"/>
	</linearGradient>
	<path style="fill:url(#SVGID_00000008839751164260182380000000353320834394413197_);" d="M137.7,25.1c0-3.9-3.2-7.1-7.1-7.1
		c-3.9,0-7.1,3.2-7.1,7.1v29.1h14.1V25.1z"/>
	
		<linearGradient id="SVGID_00000172437494972563610240000006212043342606073516_" gradientUnits="userSpaceOnUse" x1="194.9393" y1="-4.9607" x2="17.3624" y2="175.6091">
		<stop  offset="0.1131" style="stop-color:#009EE2"/>
		<stop  offset="0.8445" style="stop-color:#1D70B7"/>
	</linearGradient>
	<path style="fill:url(#SVGID_00000172437494972563610240000006212043342606073516_);" d="M159.6,25.1c0-3.9-3.2-7.1-7.1-7.1
		c-3.9,0-7.1,3.2-7.1,7.1v29.1h14.1V25.1z"/>
	
		<linearGradient id="SVGID_00000125582080134104167860000012607960257644653452_" gradientUnits="userSpaceOnUse" x1="206.1017" y1="6.0167" x2="28.5248" y2="186.5865">
		<stop  offset="0.1131" style="stop-color:#009EE2"/>
		<stop  offset="0.8445" style="stop-color:#1D70B7"/>
	</linearGradient>
	<path style="fill:url(#SVGID_00000125582080134104167860000012607960257644653452_);" d="M181.6,25.1c0-3.9-3.2-7.1-7.1-7.1
		c-3.9,0-7.1,3.2-7.1,7.1v29.1h14.1V25.1z"/>
	
		<linearGradient id="SVGID_00000080897392115945834750000016897964199925255098_" gradientUnits="userSpaceOnUse" x1="277.4274" y1="76.1603" x2="99.8505" y2="256.7301">
		<stop  offset="0.1131" style="stop-color:#009EE2"/>
		<stop  offset="0.8445" style="stop-color:#1D70B7"/>
	</linearGradient>
	<path style="fill:url(#SVGID_00000080897392115945834750000016897964199925255098_);" d="M101.6,258.9c0,3.9,3.2,7.1,7.1,7.1
		c3.9,0,7.1-3.2,7.1-7.1v-25.2h-14.1V258.9z"/>
	
		<linearGradient id="SVGID_00000129206157992844363000000001013503515485043094_" gradientUnits="userSpaceOnUse" x1="288.5906" y1="87.1385" x2="111.0137" y2="267.7083">
		<stop  offset="0.1131" style="stop-color:#009EE2"/>
		<stop  offset="0.8445" style="stop-color:#1D70B7"/>
	</linearGradient>
	<path style="fill:url(#SVGID_00000129206157992844363000000001013503515485043094_);" d="M123.5,258.9c0,3.9,3.2,7.1,7.1,7.1
		c3.9,0,7.1-3.2,7.1-7.1v-25.2h-14.1V258.9z"/>
	
		<linearGradient id="SVGID_00000122705514548808543090000008219078178546983592_" gradientUnits="userSpaceOnUse" x1="299.7538" y1="98.1166" x2="122.1769" y2="278.6864">
		<stop  offset="0.1131" style="stop-color:#009EE2"/>
		<stop  offset="0.8445" style="stop-color:#1D70B7"/>
	</linearGradient>
	<path style="fill:url(#SVGID_00000122705514548808543090000008219078178546983592_);" d="M145.5,258.9c0,3.9,3.2,7.1,7.1,7.1
		c3.9,0,7.1-3.2,7.1-7.1v-25.2h-14.1V258.9z"/>
	
		<linearGradient id="SVGID_00000030449271559778821090000004467815737473699739_" gradientUnits="userSpaceOnUse" x1="310.9164" y1="109.0941" x2="133.3394" y2="289.6639">
		<stop  offset="0.1131" style="stop-color:#009EE2"/>
		<stop  offset="0.8445" style="stop-color:#1D70B7"/>
	</linearGradient>
	<path style="fill:url(#SVGID_00000030449271559778821090000004467815737473699739_);" d="M167.4,258.9c0,3.9,3.2,7.1,7.1,7.1
		c3.9,0,7.1-3.2,7.1-7.1v-25.2h-14.1V258.9z"/>
	
		<linearGradient id="SVGID_00000047777832997513490180000015956613368529755551_" gradientUnits="userSpaceOnUse" x1="311.8991" y1="110.0606" x2="134.3222" y2="290.6304">
		<stop  offset="0.1131" style="stop-color:#009EE2"/>
		<stop  offset="0.8445" style="stop-color:#1D70B7"/>
	</linearGradient>
	<path style="fill:url(#SVGID_00000047777832997513490180000015956613368529755551_);" d="M257,170.3h-25.6v14.1H257
		c3.9,0,7.1-3.2,7.1-7.1C264.1,173.5,260.9,170.3,257,170.3z"/>
	
		<linearGradient id="SVGID_00000022544288557087971330000011528134467141432481_" gradientUnits="userSpaceOnUse" x1="300.9206" y1="99.264" x2="123.3437" y2="279.8338">
		<stop  offset="0.1131" style="stop-color:#009EE2"/>
		<stop  offset="0.8445" style="stop-color:#1D70B7"/>
	</linearGradient>
	<path style="fill:url(#SVGID_00000022544288557087971330000011528134467141432481_);" d="M257,148.3h-25.6v14.1H257
		c3.9,0,7.1-3.2,7.1-7.1C264.1,151.5,260.9,148.3,257,148.3z"/>
	
		<linearGradient id="SVGID_00000105407794105019655140000006852432610312735368_" gradientUnits="userSpaceOnUse" x1="289.9434" y1="88.4688" x2="112.3665" y2="269.0386">
		<stop  offset="0.1131" style="stop-color:#009EE2"/>
		<stop  offset="0.8445" style="stop-color:#1D70B7"/>
	</linearGradient>
	<path style="fill:url(#SVGID_00000105407794105019655140000006852432610312735368_);" d="M257,126.4h-25.6v14.1H257
		c3.9,0,7.1-3.2,7.1-7.1C264.1,129.6,260.9,126.4,257,126.4z"/>
	
		<linearGradient id="SVGID_00000023273712934621346580000007391485633606586243_" gradientUnits="userSpaceOnUse" x1="278.9666" y1="77.6739" x2="101.3897" y2="258.2437">
		<stop  offset="0.1131" style="stop-color:#009EE2"/>
		<stop  offset="0.8445" style="stop-color:#1D70B7"/>
	</linearGradient>
	<path style="fill:url(#SVGID_00000023273712934621346580000007391485633606586243_);" d="M257,104.4h-25.6v14.1H257
		c3.9,0,7.1-3.2,7.1-7.1C264.1,107.6,260.9,104.4,257,104.4z"/>
	
		<linearGradient id="SVGID_00000143578626221317250090000005421177347266337448_" gradientUnits="userSpaceOnUse" x1="206.2738" y1="6.186" x2="28.6969" y2="186.7558">
		<stop  offset="0.1131" style="stop-color:#009EE2"/>
		<stop  offset="0.8445" style="stop-color:#1D70B7"/>
	</linearGradient>
	<path style="fill:url(#SVGID_00000143578626221317250090000005421177347266337448_);" d="M27.1,184.4h24.7v-14.1H27.1
		c-3.9,0-7.1,3.2-7.1,7.1C20,181.3,23.2,184.4,27.1,184.4z"/>
	
		<linearGradient id="SVGID_00000049222169145185411840000000555086229669172896_" gradientUnits="userSpaceOnUse" x1="195.2953" y1="-4.6105" x2="17.7184" y2="175.9593">
		<stop  offset="0.1131" style="stop-color:#009EE2"/>
		<stop  offset="0.8445" style="stop-color:#1D70B7"/>
	</linearGradient>
	<path style="fill:url(#SVGID_00000049222169145185411840000000555086229669172896_);" d="M27.1,162.5h24.7v-14.1H27.1
		c-3.9,0-7.1,3.2-7.1,7.1C20,159.3,23.2,162.5,27.1,162.5z"/>
	
		<linearGradient id="SVGID_00000176040962477750634370000011040316334810965165_" gradientUnits="userSpaceOnUse" x1="184.3189" y1="-15.4051" x2="6.7419" y2="165.1647">
		<stop  offset="0.1131" style="stop-color:#009EE2"/>
		<stop  offset="0.8445" style="stop-color:#1D70B7"/>
	</linearGradient>
	<path style="fill:url(#SVGID_00000176040962477750634370000011040316334810965165_);" d="M27.1,140.5h24.7v-14.1H27.1
		c-3.9,0-7.1,3.2-7.1,7.1C20,137.4,23.2,140.5,27.1,140.5z"/>
	
		<linearGradient id="SVGID_00000111878654490563063930000017815648871222330508_" gradientUnits="userSpaceOnUse" x1="173.3419" y1="-26.2001" x2="-4.235" y2="154.3697">
		<stop  offset="0.1131" style="stop-color:#009EE2"/>
		<stop  offset="0.8445" style="stop-color:#1D70B7"/>
	</linearGradient>
	<path style="fill:url(#SVGID_00000111878654490563063930000017815648871222330508_);" d="M27.1,118.6h24.7v-14.1H27.1
		c-3.9,0-7.1,3.2-7.1,7.1C20,115.4,23.2,118.6,27.1,118.6z"/>
	
		<linearGradient id="SVGID_00000129173374894825890440000005370644195899079555_" gradientUnits="userSpaceOnUse" x1="242.2487" y1="41.5646" x2="64.6718" y2="222.1344">
		<stop  offset="0.1131" style="stop-color:#009EE2"/>
		<stop  offset="0.8445" style="stop-color:#1D70B7"/>
	</linearGradient>
	<path style="fill:url(#SVGID_00000129173374894825890440000005370644195899079555_);" d="M203.5,60.2c-1.1-0.1-2.2-0.2-3.4-0.2H83
		c-1.2,0-2.3,0.1-3.4,0.2c-11.5,1.5-20.5,10.7-21.8,22.2c-0.1,1-0.2,1.9-0.2,2.9v117.2c0,1.3,0.1,2.6,0.3,3.9
		c1.7,11.1,10.5,19.8,21.7,21.3c1.1,0.1,2.2,0.3,3.4,0.3h117.2c1.1,0,2.3-0.1,3.4-0.3c11.1-1.5,20-10.2,21.7-21.3
		c0.2-1.3,0.3-2.5,0.3-3.9V85.4c0-1-0.1-1.9-0.2-2.9C224,70.9,215,61.8,203.5,60.2z"/>
	<path class="st17" d="M191.6,76.6c-0.9-0.1-1.8-0.2-2.7-0.2H94.2c-0.9,0-1.8,0.1-2.7,0.2c-9.3,1.2-16.6,8.7-17.6,18
		c-0.1,0.8-0.1,1.5-0.1,2.3v94.7c0,1.1,0.1,2.1,0.3,3.1c1.4,9,8.5,16,17.5,17.2c0.9,0.1,1.8,0.2,2.7,0.2h94.7c0.9,0,1.8-0.1,2.7-0.2
		c9-1.2,16.1-8.2,17.5-17.2c0.2-1,0.3-2.1,0.3-3.1V97c0-0.8-0.1-1.6-0.1-2.3C208.2,85.3,200.9,77.9,191.6,76.6z"/>
	<path class="st18" d="M134.1,151c-1.5-1.8-2.5-4.2-2.5-6.7c0-5.8,4.7-10.5,10.5-10.5c5.8,0,10.5,4.7,10.5,10.5
		c0,2.6-0.9,4.9-2.5,6.7l4.4,5.1c3-3.1,4.8-7.3,4.8-11.9c0-9.5-7.7-17.2-17.2-17.2c-9.5,0-17.2,7.7-17.2,17.2
		c0,4.6,1.8,8.8,4.8,11.9L134.1,151z"/>
	<path class="st18" d="M118.2,169.5l4.4-5.1c-5.3-5.1-8.5-12.2-8.5-20.1c0-15.4,12.6-28,28-28c15.4,0,28,12.6,28,28
		c0,7.9-3.3,15-8.5,20.1l4.4,5.1c6.7-6.3,10.9-15.3,10.9-25.2c0-19.1-15.6-34.7-34.7-34.7s-34.7,15.6-34.7,34.7
		C107.3,154.2,111.5,163.2,118.2,169.5z"/>
	<path class="st18" d="M106.8,182.8l4.4-5.1c-9-8.3-14.6-20.2-14.6-33.4c0-25.1,20.4-45.5,45.5-45.5c25.1,0,45.5,20.4,45.5,45.5
		c0,13.2-5.6,25.1-14.6,33.4l4.4,5.1c10.4-9.6,17-23.3,17-38.5c0-28.8-23.4-52.2-52.2-52.2c-28.8,0-52.2,23.4-52.2,52.2
		C89.8,159.5,96.4,173.3,106.8,182.8z"/>
	<circle class="st18" cx="142.1" cy="177.4" r="13"/>
</g>
</svg>
