<?xml version="1.0" encoding="utf-8"?>
<!-- Generator: Adobe Illustrator 26.0.2, SVG Export Plug-In . SVG Version: 6.00 Build 0)  -->
<svg version="1.1" id="Layer_1" xmlns="http://www.w3.org/2000/svg" xmlns:xlink="http://www.w3.org/1999/xlink" x="0px" y="0px"
	 viewBox="0 0 283.5 283.5" style="enable-background:new 0 0 283.5 283.5;" xml:space="preserve">
<style type="text/css">
	.st0{fill:url(#SVGID_1_);}
	.st1{fill:url(#SVGID_00000152252307968946121360000011358752057115628438_);}
	.st2{fill:url(#SVGID_00000106133838861596399600000014277035314314313900_);}
	.st3{fill:url(#SVGID_00000042722645578014224220000013583909786425405087_);}
	.st4{fill:url(#SVGID_00000161601342566924876640000004953018659256201659_);}
	.st5{fill:url(#SVGID_00000073716005872825507890000006797753596060611007_);}
	.st6{fill:url(#SVGID_00000002362985134254467260000014746455030737134518_);}
	.st7{fill:url(#SVGID_00000083780451086238142420000010770892497582681279_);}
	.st8{fill:url(#SVGID_00000060019068341905077410000015212865415441681046_);}
	.st9{fill:url(#SVGID_00000136389515916551080440000014742925606287644092_);}
	.st10{fill:url(#SVGID_00000062164371254626709620000013688230461248815792_);}
	.st11{fill:url(#SVGID_00000078747976175177649650000004822758552252600212_);}
	.st12{fill:url(#SVGID_00000101085738847449382950000003110606779258411931_);}
	.st13{fill:url(#SVGID_00000147177777779144404670000006534192554962834104_);}
	.st14{fill:url(#SVGID_00000013894580583996751670000008103122800679319723_);}
	.st15{fill:url(#SVGID_00000113347277388663398110000007693141059184654505_);}
	.st16{fill:url(#SVGID_00000168082935780464165890000018164483097790354822_);}
	.st17{fill:#FFFFFF;}
	.st18{fill:#1D70B7;}
</style>
<g id="icon">
</g>
<linearGradient id="SVGID_1_" gradientUnits="userSpaceOnUse" x1="157.4568" y1="-4.0878" x2="72.194" y2="82.612">
	<stop  offset="0.1131" style="stop-color:#009EE2"/>
	<stop  offset="0.8445" style="stop-color:#1D70B7"/>
</linearGradient>
<path class="st0" d="M130.1,20.9c0-1.9-1.5-3.4-3.4-3.4c-1.9,0-3.4,1.5-3.4,3.4v14h6.8V20.9z"/>
<linearGradient id="SVGID_00000008130258936106016680000000696804537393031353_" gradientUnits="userSpaceOnUse" x1="162.8169" y1="1.1835" x2="77.5541" y2="87.8833">
	<stop  offset="0.1131" style="stop-color:#009EE2"/>
	<stop  offset="0.8445" style="stop-color:#1D70B7"/>
</linearGradient>
<path style="fill:url(#SVGID_00000008130258936106016680000000696804537393031353_);" d="M140.7,20.9c0-1.9-1.5-3.4-3.4-3.4
	c-1.9,0-3.4,1.5-3.4,3.4v14h6.8V20.9z"/>
<linearGradient id="SVGID_00000112627742191566361400000009179037617333290686_" gradientUnits="userSpaceOnUse" x1="168.1767" y1="6.4544" x2="82.9139" y2="93.1542">
	<stop  offset="0.1131" style="stop-color:#009EE2"/>
	<stop  offset="0.8445" style="stop-color:#1D70B7"/>
</linearGradient>
<path style="fill:url(#SVGID_00000112627742191566361400000009179037617333290686_);" d="M151.2,20.9c0-1.9-1.5-3.4-3.4-3.4
	c-1.9,0-3.4,1.5-3.4,3.4v14h6.8V20.9z"/>
<linearGradient id="SVGID_00000160886574859151550350000015038338098436045239_" gradientUnits="userSpaceOnUse" x1="173.5363" y1="11.7251" x2="88.2735" y2="98.425">
	<stop  offset="0.1131" style="stop-color:#009EE2"/>
	<stop  offset="0.8445" style="stop-color:#1D70B7"/>
</linearGradient>
<path style="fill:url(#SVGID_00000160886574859151550350000015038338098436045239_);" d="M161.8,20.9c0-1.9-1.5-3.4-3.4-3.4
	S155,19,155,20.9v14h6.8V20.9z"/>
<linearGradient id="SVGID_00000001633081339738395350000009863695630379884991_" gradientUnits="userSpaceOnUse" x1="207.783" y1="45.4043" x2="122.5202" y2="132.1041">
	<stop  offset="0.1131" style="stop-color:#009EE2"/>
	<stop  offset="0.8445" style="stop-color:#1D70B7"/>
</linearGradient>
<path style="fill:url(#SVGID_00000001633081339738395350000009863695630379884991_);" d="M123.3,133.2c0,1.9,1.5,3.4,3.4,3.4
	c1.9,0,3.4-1.5,3.4-3.4v-12.1h-6.8V133.2z"/>
<linearGradient id="SVGID_00000078017373492133323590000016354830857653961610_" gradientUnits="userSpaceOnUse" x1="213.143" y1="50.6754" x2="127.8802" y2="137.3752">
	<stop  offset="0.1131" style="stop-color:#009EE2"/>
	<stop  offset="0.8445" style="stop-color:#1D70B7"/>
</linearGradient>
<path style="fill:url(#SVGID_00000078017373492133323590000016354830857653961610_);" d="M133.9,133.2c0,1.9,1.5,3.4,3.4,3.4
	c1.9,0,3.4-1.5,3.4-3.4v-12.1h-6.8V133.2z"/>
<linearGradient id="SVGID_00000018915443993159108420000014434825641828021160_" gradientUnits="userSpaceOnUse" x1="218.5029" y1="55.9465" x2="133.2401" y2="142.6463">
	<stop  offset="0.1131" style="stop-color:#009EE2"/>
	<stop  offset="0.8445" style="stop-color:#1D70B7"/>
</linearGradient>
<path style="fill:url(#SVGID_00000018915443993159108420000014434825641828021160_);" d="M144.4,133.2c0,1.9,1.5,3.4,3.4,3.4
	c1.9,0,3.4-1.5,3.4-3.4v-12.1h-6.8V133.2z"/>
<linearGradient id="SVGID_00000075150220674085540670000013682990409149551004_" gradientUnits="userSpaceOnUse" x1="223.8625" y1="61.2173" x2="138.5998" y2="147.9171">
	<stop  offset="0.1131" style="stop-color:#009EE2"/>
	<stop  offset="0.8445" style="stop-color:#1D70B7"/>
</linearGradient>
<path style="fill:url(#SVGID_00000075150220674085540670000013682990409149551004_);" d="M155,133.2c0,1.9,1.5,3.4,3.4,3.4
	s3.4-1.5,3.4-3.4v-12.1H155V133.2z"/>
<linearGradient id="SVGID_00000012452260013054017820000011097412866217680522_" gradientUnits="userSpaceOnUse" x1="224.3344" y1="61.6814" x2="139.0716" y2="148.3812">
	<stop  offset="0.1131" style="stop-color:#009EE2"/>
	<stop  offset="0.8445" style="stop-color:#1D70B7"/>
</linearGradient>
<path style="fill:url(#SVGID_00000012452260013054017820000011097412866217680522_);" d="M198,90.6h-12.3v6.8H198
	c1.9,0,3.4-1.5,3.4-3.4C201.4,92.1,199.9,90.6,198,90.6z"/>
<linearGradient id="SVGID_00000021117117272927060260000010088979660904417687_" gradientUnits="userSpaceOnUse" x1="219.0631" y1="56.4974" x2="133.8003" y2="143.1973">
	<stop  offset="0.1131" style="stop-color:#009EE2"/>
	<stop  offset="0.8445" style="stop-color:#1D70B7"/>
</linearGradient>
<path style="fill:url(#SVGID_00000021117117272927060260000010088979660904417687_);" d="M198,80.1h-12.3v6.8H198
	c1.9,0,3.4-1.5,3.4-3.4C201.4,81.6,199.9,80.1,198,80.1z"/>
<linearGradient id="SVGID_00000121249715127737536160000010194643725902364829_" gradientUnits="userSpaceOnUse" x1="213.7925" y1="51.3141" x2="128.5297" y2="138.0139">
	<stop  offset="0.1131" style="stop-color:#009EE2"/>
	<stop  offset="0.8445" style="stop-color:#1D70B7"/>
</linearGradient>
<path style="fill:url(#SVGID_00000121249715127737536160000010194643725902364829_);" d="M198,69.5h-12.3v6.8H198
	c1.9,0,3.4-1.5,3.4-3.4C201.4,71,199.9,69.5,198,69.5z"/>
<linearGradient id="SVGID_00000081648287379083407940000013932959070054721200_" gradientUnits="userSpaceOnUse" x1="208.522" y1="46.131" x2="123.2592" y2="132.8309">
	<stop  offset="0.1131" style="stop-color:#009EE2"/>
	<stop  offset="0.8445" style="stop-color:#1D70B7"/>
</linearGradient>
<path style="fill:url(#SVGID_00000081648287379083407940000013932959070054721200_);" d="M198,59h-12.3v6.8H198
	c1.9,0,3.4-1.5,3.4-3.4C201.4,60.5,199.9,59,198,59z"/>
<linearGradient id="SVGID_00000176746271772208857430000012877332597904677052_" gradientUnits="userSpaceOnUse" x1="173.6189" y1="11.8064" x2="88.3561" y2="98.5062">
	<stop  offset="0.1131" style="stop-color:#009EE2"/>
	<stop  offset="0.8445" style="stop-color:#1D70B7"/>
</linearGradient>
<path style="fill:url(#SVGID_00000176746271772208857430000012877332597904677052_);" d="M87.6,97.4h11.8v-6.8H87.6
	c-1.9,0-3.4,1.5-3.4,3.4C84.2,95.9,85.7,97.4,87.6,97.4z"/>
<linearGradient id="SVGID_00000059310492307429427980000005884833482470016440_" gradientUnits="userSpaceOnUse" x1="168.3476" y1="6.6225" x2="83.0848" y2="93.3223">
	<stop  offset="0.1131" style="stop-color:#009EE2"/>
	<stop  offset="0.8445" style="stop-color:#1D70B7"/>
</linearGradient>
<path style="fill:url(#SVGID_00000059310492307429427980000005884833482470016440_);" d="M87.6,86.9h11.8v-6.8H87.6
	c-1.9,0-3.4,1.5-3.4,3.4C84.2,85.3,85.7,86.9,87.6,86.9z"/>
<linearGradient id="SVGID_00000162336802210343322360000012609313912018253702_" gradientUnits="userSpaceOnUse" x1="163.0773" y1="1.4396" x2="77.8145" y2="88.1394">
	<stop  offset="0.1131" style="stop-color:#009EE2"/>
	<stop  offset="0.8445" style="stop-color:#1D70B7"/>
</linearGradient>
<path style="fill:url(#SVGID_00000162336802210343322360000012609313912018253702_);" d="M87.6,76.3h11.8v-6.8H87.6
	c-1.9,0-3.4,1.5-3.4,3.4C84.2,74.8,85.7,76.3,87.6,76.3z"/>
<linearGradient id="SVGID_00000031169978699894707610000006943907333108143274_" gradientUnits="userSpaceOnUse" x1="157.8068" y1="-3.7436" x2="72.544" y2="82.9562">
	<stop  offset="0.1131" style="stop-color:#009EE2"/>
	<stop  offset="0.8445" style="stop-color:#1D70B7"/>
</linearGradient>
<path style="fill:url(#SVGID_00000031169978699894707610000006943907333108143274_);" d="M87.6,65.8h11.8V59H87.6
	c-1.9,0-3.4,1.5-3.4,3.4C84.2,64.2,85.7,65.8,87.6,65.8z"/>
<linearGradient id="SVGID_00000169538135287632472920000010650593353537646004_" gradientUnits="userSpaceOnUse" x1="190.8921" y1="28.7933" x2="105.6293" y2="115.4931">
	<stop  offset="0.1131" style="stop-color:#009EE2"/>
	<stop  offset="0.8445" style="stop-color:#1D70B7"/>
</linearGradient>
<path style="fill:url(#SVGID_00000169538135287632472920000010650593353537646004_);" d="M172.3,37.8c-0.5-0.1-1.1-0.1-1.6-0.1
	h-56.3c-0.6,0-1.1,0-1.6,0.1c-5.5,0.7-9.9,5.1-10.5,10.7c-0.1,0.5-0.1,0.9-0.1,1.4v56.3c0,0.6,0.1,1.3,0.2,1.9
	c0.8,5.3,5.1,9.5,10.4,10.2c0.5,0.1,1.1,0.1,1.6,0.1h56.3c0.5,0,1.1,0,1.6-0.1c5.4-0.7,9.6-4.9,10.4-10.2c0.1-0.6,0.2-1.2,0.2-1.9
	V49.8c0-0.5,0-0.9-0.1-1.4C182.2,42.9,177.8,38.5,172.3,37.8z"/>
<path class="st17" d="M166.6,45.6c-0.4-0.1-0.9-0.1-1.3-0.1h-45.5c-0.4,0-0.9,0-1.3,0.1c-4.5,0.6-8,4.2-8.5,8.6
	c0,0.4-0.1,0.7-0.1,1.1v45.5c0,0.5,0.1,1,0.1,1.5c0.7,4.3,4.1,7.7,8.4,8.3c0.4,0.1,0.9,0.1,1.3,0.1h45.5c0.4,0,0.9,0,1.3-0.1
	c4.3-0.6,7.8-4,8.4-8.3c0.1-0.5,0.1-1,0.1-1.5V55.4c0-0.4,0-0.8-0.1-1.1C174.6,49.8,171,46.2,166.6,45.6z"/>
<g>
	<path class="st18" d="M59.4,181.7v-63.5c0-1.5-1.2-2.7-2.7-2.7H20.7c-1.5,0-2.7,1.2-2.7,2.7v63.5c0,1.5,1.2,2.7,2.7,2.7h35.9
		C58.2,184.4,59.4,183.2,59.4,181.7z M54,179H23.4V121H54V179z"/>
	<path class="st18" d="M36.7,110.1c1.5,0,2.7-1.2,2.7-2.7V80.8h34.8c1.5,0,2.7-1.2,2.7-2.7c0-1.5-1.2-2.7-2.7-2.7H36.7
		c-1.5,0-2.7,1.2-2.7,2.7v29.3C34,108.9,35.2,110.1,36.7,110.1z"/>
	<path class="st18" d="M59.9,233.6H39.4v-40.8c0-1.5-1.2-2.7-2.7-2.7c-1.5,0-2.7,1.2-2.7,2.7v43.5c0,1.5,1.2,2.7,2.7,2.7h23.2
		c1.5,0,2.7-1.2,2.7-2.7C62.6,234.8,61.4,233.6,59.9,233.6z"/>
	<path class="st18" d="M265.4,115.6h-35.9c-1.5,0-2.7,1.2-2.7,2.7v63.5c0,1.5,1.2,2.7,2.7,2.7h35.9c1.5,0,2.7-1.2,2.7-2.7v-63.5
		C268.1,116.8,266.9,115.6,265.4,115.6z M262.7,179h-30.5V121h30.5V179z"/>
	<path class="st18" d="M211.9,80.8h34.8v26.6c0,1.5,1.2,2.7,2.7,2.7s2.7-1.2,2.7-2.7V78.1c0-1.5-1.2-2.7-2.7-2.7h-37.5
		c-1.5,0-2.7,1.2-2.7,2.7C209.2,79.6,210.4,80.8,211.9,80.8z"/>
	<path class="st18" d="M249.5,190.1c-1.5,0-2.7,1.2-2.7,2.7v40.8h-20.5c-1.5,0-2.7,1.2-2.7,2.7c0,1.5,1.2,2.7,2.7,2.7h23.2
		c1.5,0,2.7-1.2,2.7-2.7v-43.5C252.2,191.3,250.9,190.1,249.5,190.1z"/>
	<path class="st18" d="M171.2,233.6h-57.3c-1.5,0-2.7,1.2-2.7,2.7c0,1.5,1.2,2.7,2.7,2.7h57.3c1.5,0,2.7-1.2,2.7-2.7
		C173.9,234.8,172.7,233.6,171.2,233.6z"/>
	<path class="st18" d="M201.7,193.9c0-1.5-1.2-2.7-2.7-2.7h-21.3c-0.2,0-0.5,0-0.7,0.1l-33-21c-0.9-0.6-2-0.6-2.9,0l-33,21
		c-0.2-0.1-0.5-0.1-0.7-0.1H86.1c-1.5,0-2.7,1.2-2.7,2.7v23c-9.5,1.6-16.7,9.8-16.7,19.7c0,11,8.9,20,20,20s20-8.9,20-20
		c0-10.3-7.8-18.8-17.8-19.9v-20.1h18c0,0,0,0,0.1,0.1l34.2,20.9c0.4,0.3,0.9,0.4,1.4,0.4s1-0.1,1.4-0.4l34.2-20.9c0,0,0,0,0.1-0.1
		h18V216h-17v40.6h40.6V216h-18.2V193.9z M142.5,212.1l-29.1-17.8l29.1-18.6l29.1,18.6L142.5,212.1z"/>
	<path class="st18" d="M142.5,163.6c1.5,0,2.7-1.2,2.7-2.7v-16.4c0-1.5-1.2-2.7-2.7-2.7c-1.5,0-2.7,1.2-2.7,2.7v16.4
		C139.8,162.4,141,163.6,142.5,163.6z"/>
</g>
</svg>
