<?xml version="1.0" encoding="utf-8"?>
<!-- Generator: Adobe Illustrator 26.0.2, SVG Export Plug-In . SVG Version: 6.00 Build 0)  -->
<svg version="1.1" id="Layer_1" xmlns="http://www.w3.org/2000/svg" xmlns:xlink="http://www.w3.org/1999/xlink" x="0px" y="0px"
	 viewBox="0 0 283.5 283.5" style="enable-background:new 0 0 283.5 283.5;" xml:space="preserve">
<style type="text/css">
	.st0{fill:#FFFFFF;}
</style>
<g id="icon">
</g>
<g>
	<path class="st0" d="M186.2,125.1c-2.5,0-4.6-2-4.6-4.6c0-22-17.9-39.8-39.8-39.8c-2.5,0-4.6-2-4.6-4.6c0-2.5,2-4.6,4.6-4.6
		c27,0,49,22,49,49C190.7,123.1,188.7,125.1,186.2,125.1z"/>
	<path class="st0" d="M141.8,36.3c-2.5,0-4.6-2-4.6-4.6V20.7c0-2.5,2-4.6,4.6-4.6c2.5,0,4.6,2,4.6,4.6v11.1
		C146.3,34.3,144.3,36.3,141.8,36.3z"/>
	<path class="st0" d="M97.4,53c-1.7,0-3.3-1-4.1-2.5l-5.5-11.1c-1.1-2.2-0.2-5,2-6.1c0.6-0.3,1.3-0.5,2-0.5c1.7,0,3.3,1,4.1,2.5
		l5.5,11.1c0.5,1.1,0.6,2.3,0.2,3.5c-0.4,1.2-1.2,2.1-2.3,2.6C98.7,52.8,98.1,53,97.4,53z"/>
	<path class="st0" d="M64,86.3c-0.7,0-1.4-0.2-2-0.5l-11.1-5.5c-2.2-1.1-3.2-3.9-2-6.1c0.8-1.5,2.3-2.5,4.1-2.5c0.7,0,1.4,0.2,2,0.5
		l11.1,5.5c1.1,0.5,1.9,1.5,2.3,2.6c0.4,1.2,0.3,2.4-0.2,3.5C67.3,85.3,65.8,86.3,64,86.3z"/>
	<path class="st0" d="M186.1,53c-0.7,0-1.4-0.2-2-0.5c-2.2-1.1-3.2-3.9-2-6.1l5.6-11.1c0.8-1.6,2.3-2.5,4.1-2.5c0.7,0,1.4,0.2,2,0.5
		c1.1,0.5,1.9,1.5,2.3,2.6c0.4,1.2,0.3,2.4-0.2,3.5l-5.5,11.1C189.4,52,187.9,53,186.1,53z"/>
	<path class="st0" d="M219.5,86.3c-1.7,0-3.3-1-4.1-2.5c-1.1-2.2-0.2-5,2-6.1l11.1-5.5c0.6-0.3,1.3-0.5,2-0.5c1.7,0,3.3,1,4.1,2.5
		c0.5,1.1,0.6,2.3,0.2,3.5c-0.4,1.2-1.2,2.1-2.3,2.6l-11.1,5.6C220.8,86.1,220.2,86.3,219.5,86.3z"/>
	<path class="st0" d="M230.6,125.1c-2.5,0-4.6-2-4.6-4.6s2-4.6,4.6-4.6h11.1c2.5,0,4.6,2,4.6,4.6s-2,4.6-4.6,4.6H230.6z"/>
	<path class="st0" d="M41.8,125.1c-2.5,0-4.6-2-4.6-4.6s2-4.6,4.6-4.6h11.1c2.5,0,4.6,2,4.6,4.6s-2,4.6-4.6,4.6H41.8z"/>
	<path class="st0" d="M230.5,169.5c-0.7,0-1.4-0.2-2-0.5l-11.1-5.5c-2.2-1.1-3.2-3.9-2-6.1c0.8-1.6,2.3-2.5,4.1-2.5
		c0.7,0,1.4,0.2,2,0.5l11.1,5.5c1.1,0.5,1.9,1.5,2.3,2.6c0.4,1.2,0.3,2.4-0.2,3.5C233.8,168.6,232.3,169.5,230.5,169.5z"/>
	<path class="st0" d="M53,169.5c-1.7,0-3.3-1-4.1-2.5c-1.1-2.2-0.2-5,2-6.1l11.1-5.6c0.6-0.3,1.3-0.5,2-0.5c1.7,0,3.3,1,4.1,2.5
		c0.5,1.1,0.6,2.3,0.2,3.5c-0.4,1.2-1.2,2.1-2.3,2.6L55,169C54.3,169.4,53.7,169.5,53,169.5z"/>
	<path class="st0" d="M141.8,263.9c-11.7,0-21.2-9.5-21.2-21.2c0-0.6-0.4-1-1-1H114c-2.5,0-4.6-2-4.6-4.6v-32.8c0-0.1,0-0.1,0-0.2
		c-2.6-15.1-6.8-21.2-20.7-36.1c-14.1-17.8-18.2-28.4-18.2-47.5c0-39.2,31.9-71.2,71.2-71.2c39.2,0,71.2,31.9,71.2,71.2
		c0,19.1-4,29.7-17.9,47.2c-14.3,15.3-18.2,21.2-20.9,36.4c0,0.1,0,0.1,0,0.2v32.8c0,2.5-2,4.6-4.6,4.6H164c-0.6,0-1,0.4-1,1
		C163,254.4,153.4,263.9,141.8,263.9z M130.6,241.7c-0.6,0-1,0.4-1,1v0c0,6.7,5.4,12.1,12.1,12.1c6.7,0,12.1-5.4,12.1-12.1
		c0-0.6-0.4-1-1-1H130.6z M119.5,225c-0.6,0-1,0.4-1,1v5.6c0,0.6,0.4,1,1,1H164c0.6,0,1-0.4,1-1V226c0-0.6-0.4-1-1-1H119.5z
		 M119.5,208.4c-0.6,0-1,0.4-1,1v5.6c0,0.6,0.4,1,1,1H164c0.6,0,1-0.4,1-1v-5.6c0-0.6-0.4-1-1-1H119.5z M141.8,58.5
		c-34.2,0-62.1,27.8-62.1,62.1c0,15.8,2.4,24.5,16,41.6c13.8,14.7,18.9,22,21.9,36.3c0.1,0.5,0.5,0.8,1,0.8h46.3
		c0.5,0,0.9-0.3,1-0.8c3.1-14.3,8.2-21.7,22.2-36.6c13.4-16.9,15.7-25.5,15.7-41.3C203.8,86.3,176,58.5,141.8,58.5z"/>
</g>
</svg>
