<?xml version="1.0" encoding="utf-8"?>
<!-- Generator: Adobe Illustrator 26.0.2, SVG Export Plug-In . SVG Version: 6.00 Build 0)  -->
<svg version="1.1" id="Layer_1" xmlns="http://www.w3.org/2000/svg" xmlns:xlink="http://www.w3.org/1999/xlink" x="0px" y="0px"
	 viewBox="0 0 283.5 283.5" style="enable-background:new 0 0 283.5 283.5;" xml:space="preserve">
<style type="text/css">
	.st0{fill:#FFFFFF;}
</style>
<path class="st0" d="M115.4,22.9c0-3.9-3.2-7.1-7.1-7.1s-7.1,3.2-7.1,7.1V52h14.1L115.4,22.9L115.4,22.9z"/>
<path class="st0" d="M137.3,22.9c0-3.9-3.2-7.1-7.1-7.1c-3.9,0-7.1,3.2-7.1,7.1V52h14.1V22.9H137.3z"/>
<path class="st0" d="M159.3,22.9c0-3.9-3.2-7.1-7.1-7.1c-3.9,0-7.1,3.2-7.1,7.1V52h14.1V22.9H159.3z"/>
<path class="st0" d="M181.2,22.9c0-3.9-3.2-7.1-7.1-7.1c-3.9,0-7.1,3.2-7.1,7.1V52h14.1V22.9H181.2z"/>
<path class="st0" d="M101.2,256.8c0,3.9,3.2,7.1,7.1,7.1s7.1-3.2,7.1-7.1v-25.2h-14.1L101.2,256.8L101.2,256.8z"/>
<path class="st0" d="M123.2,256.8c0,3.9,3.2,7.1,7.1,7.1c3.9,0,7.1-3.2,7.1-7.1v-25.2h-14.1v25.2H123.2z"/>
<path class="st0" d="M145.2,256.8c0,3.9,3.2,7.1,7.1,7.1c3.9,0,7.1-3.2,7.1-7.1v-25.2h-14.1v25.2H145.2z"/>
<path class="st0" d="M167.1,256.8c0,3.9,3.2,7.1,7.1,7.1c3.9,0,7.1-3.2,7.1-7.1v-25.2h-14.1v25.2H167.1z"/>
<path class="st0" d="M256.7,168.2h-25.6v14.1h25.6c3.9,0,7.1-3.2,7.1-7.1C263.8,171.3,260.6,168.2,256.7,168.2z"/>
<path class="st0" d="M256.7,146.2h-25.6v14.1h25.6c3.9,0,7.1-3.2,7.1-7.1C263.8,149.4,260.6,146.2,256.7,146.2z"/>
<path class="st0" d="M256.7,124.2h-25.6v14.1h25.6c3.9,0,7.1-3.2,7.1-7.1C263.8,127.4,260.6,124.2,256.7,124.2z"/>
<path class="st0" d="M256.7,102.3h-25.6v14.1h25.6c3.9,0,7.1-3.2,7.1-7.1C263.8,105.5,260.6,102.3,256.7,102.3z"/>
<path class="st0" d="M26.7,182.3h24.7v-14.1H26.7c-3.9,0-7.1,3.2-7.1,7.1C19.7,179.1,22.8,182.3,26.7,182.3z"/>
<path class="st0" d="M26.7,160.3h24.7v-14.1H26.7c-3.9,0-7.1,3.2-7.1,7.1C19.7,157.2,22.8,160.3,26.7,160.3z"/>
<path class="st0" d="M26.7,138.4h24.7v-14.1H26.7c-3.9,0-7.1,3.2-7.1,7.1C19.7,135.2,22.8,138.4,26.7,138.4z"/>
<path class="st0" d="M26.7,116.4h24.7v-14.1H26.7c-3.9,0-7.1,3.2-7.1,7.1C19.7,113.3,22.8,116.4,26.7,116.4z"/>
<path class="st0" d="M225.1,80.3c-1.4-11.5-10.4-20.7-21.9-22.2c-1.1-0.1-2.2-0.2-3.4-0.2H82.7c-1.2,0-2.3,0.1-3.4,0.2
	c-11.5,1.5-20.5,10.7-21.8,22.2c-0.1,1-0.2,1.9-0.2,2.9v117.2c0,1.3,0.1,2.6,0.3,3.9c1.7,11.1,10.5,19.8,21.7,21.3
	c1.1,0.1,2.2,0.3,3.4,0.3h117.2c1.1,0,2.3-0.1,3.4-0.3c11.1-1.5,20-10.2,21.7-21.3c0.2-1.3,0.3-2.5,0.3-3.9V83.2
	C225.3,82.2,225.2,81.3,225.1,80.3z M209.2,189.5c0,1-0.1,2.1-0.3,3.1c-1.4,9-8.5,16-17.5,17.2c-0.9,0.1-1.8,0.2-2.7,0.2H94
	c-0.9,0-1.8-0.1-2.7-0.2c-9-1.2-16.1-8.2-17.5-17.2c-0.2-1-0.3-2-0.3-3.1V94.8c0-0.8,0-1.5,0.1-2.3c1-9.3,8.3-16.8,17.6-18
	c0.9-0.1,1.8-0.2,2.7-0.2h94.7c0.9,0,1.8,0.1,2.7,0.2c9.3,1.2,16.6,8.6,17.8,18c0,0.7,0.1,1.5,0.1,2.3V189.5z"/>
<g id="icon">
</g>
<path class="st0" d="M174.1,118.2c-0.5-4.4-4-7.9-8.4-8.5c-0.4,0-0.8-0.1-1.3-0.1h-44.7c-0.5,0-0.9,0-1.3,0.1
	c-4.4,0.6-7.8,4.1-8.3,8.5c0,0.4-0.1,0.7-0.1,1.1v44.7c0,0.5,0,1,0.1,1.5c0.6,4.2,4,7.6,8.3,8.1c0.4,0,0.8,0.1,1.3,0.1h44.7
	c0.4,0,0.9,0,1.3-0.1c4.2-0.6,7.6-3.9,8.3-8.1c0.1-0.5,0.1-1,0.1-1.5v-44.7C174.2,119,174.2,118.6,174.1,118.2z M160.7,154.8
	c0,0.3,0,0.6-0.1,0.8c-0.4,2.5-2.3,4.4-4.8,4.7c-0.2,0-0.5,0.1-0.7,0.1h-25.8c-0.2,0-0.5,0-0.7-0.1c-2.5-0.3-4.4-2.2-4.8-4.7
	c-0.1-0.3-0.1-0.5-0.1-0.8v-25.8c0-0.2,0-0.4,0-0.6c0.3-2.5,2.3-4.6,4.8-4.9c0.2,0,0.5-0.1,0.7-0.1H155c0.2,0,0.5,0,0.7,0.1
	c2.5,0.3,4.5,2.3,4.9,4.9c0,0.2,0,0.4,0,0.6V154.8z"/>
</svg>
