<?xml version="1.0" encoding="utf-8"?>
<!-- Generator: Adobe Illustrator 26.0.2, SVG Export Plug-In . SVG Version: 6.00 Build 0)  -->
<svg version="1.1" id="Layer_1" xmlns="http://www.w3.org/2000/svg" xmlns:xlink="http://www.w3.org/1999/xlink" x="0px" y="0px"
	 viewBox="0 0 2400 1000" style="enable-background:new 0 0 2400 1000;" xml:space="preserve">
<style type="text/css">
	.st0{fill:#F8F8F8;}
	.st1{opacity:0.35;}
	.st2{filter:url(#Adobe_OpacityMaskFilter);}
	.st3{fill:url(#SVGID_00000003101669501419642870000009854922828557222069_);}
	.st4{mask:url(#SVGID_1_);}
	.st5{fill:#D6D6D6;}
</style>
<rect class="st0" width="2400" height="1000"/>
<g>
	<g>
		<g class="st1">
			<g>
				<defs>
					<filter id="Adobe_OpacityMaskFilter" filterUnits="userSpaceOnUse" x="1182.1" y="-84.9" width="1343.1" height="1056">
						<feFlood  style="flood-color:white;flood-opacity:1" result="back"/>
						<feBlend  in="SourceGraphic" in2="back" mode="normal"/>
					</filter>
				</defs>
				<mask maskUnits="userSpaceOnUse" x="1182.1" y="-84.9" width="1343.1" height="1056" id="SVGID_1_">
					<g class="st2">
						
							<linearGradient id="SVGID_00000039121917048074876960000010847721661785729212_" gradientUnits="userSpaceOnUse" x1="1.6765" y1="996.3229" x2="3.5643" y2="996.3229" gradientTransform="matrix(112.6019 -354.9663 -354.9663 -112.6019 355278.6875 113418.2031)">
							<stop  offset="0" style="stop-color:#FFFFFF"/>
							<stop  offset="1" style="stop-color:#000000"/>
						</linearGradient>
						<polygon style="fill:url(#SVGID_00000039121917048074876960000010847721661785729212_);" points="745.9,930.8 1259,-687 
							3015.8,-129.7 2502.7,1488 						"/>
					</g>
				</mask>
				<g class="st4">
					<g>
						
							<rect x="1477.7" y="532" transform="matrix(0.9744 -0.225 0.225 0.9744 -86.0009 378.4673)" class="st5" width="280.4" height="69.2"/>
						<polygon class="st5" points="2026.5,213.3 1806.2,264.2 1600.3,56.3 1371.9,109.1 1387.5,176.5 1578.3,132.5 1784.2,340.3 
							2042.1,280.8 						"/>
						<polygon class="st5" points="2036.3,450.4 1927,746.4 1726.9,792.6 1742.4,860.1 1979,805.4 2088.3,509.4 2335.7,452.2 
							2320.1,384.8 						"/>
						<path class="st5" d="M1315.3,201.3c-23.6,5.4-47.1-9.2-52.5-32.8c-5.4-23.6,9.3-47.1,32.8-52.5c23.6-5.4,47.1,9.2,52.5,32.8
							C1353.5,172.3,1338.8,195.8,1315.3,201.3 M1277.7,38.5c-66.3,15.3-107.7,81.5-92.4,147.9c15.3,66.4,81.5,107.7,147.9,92.4
							c66.3-15.3,107.7-81.5,92.4-147.9C1410.2,64.5,1344,23.2,1277.7,38.5"/>
						<path class="st5" d="M1836,81.1c-23.6,5.4-47.1-9.2-52.5-32.8c-5.4-23.6,9.3-47.1,32.8-52.5c23.6-5.4,47.1,9.2,52.5,32.8
							C1874.3,52.1,1859.6,75.6,1836,81.1 M1798.4-81.7c-66.4,15.3-107.7,81.5-92.4,147.9c15.3,66.4,81.5,107.7,147.9,92.4
							c66.3-15.3,107.7-81.5,92.4-147.9C1931-55.7,1864.8-97.1,1798.4-81.7"/>
						<path class="st5" d="M1562.7,393.1c-23.6,5.4-47.1-9.2-52.5-32.8c-5.4-23.6,9.3-47.1,32.8-52.5c23.6-5.4,47.1,9.2,52.5,32.8
							C1601,364.2,1586.3,387.7,1562.7,393.1 M1525.1,230.3c-66.3,15.3-107.7,81.5-92.4,147.9c15.3,66.3,81.5,107.7,147.9,92.4
							c66.3-15.3,107.7-81.5,92.4-147.9C1657.7,256.4,1591.5,215,1525.1,230.3"/>
						<path class="st5" d="M1419.7,657.7c-23.6,5.4-47.1-9.2-52.5-32.8c-5.4-23.6,9.3-47.1,32.8-52.5c23.6-5.4,47.1,9.2,52.5,32.8
							C1458,628.7,1443.3,652.2,1419.7,657.7 M1382.1,494.9c-66.3,15.3-107.7,81.5-92.4,147.9c15.3,66.3,81.5,107.7,147.9,92.4
							c66.3-15.3,107.7-81.5,92.4-147.9C1514.7,520.9,1448.5,479.5,1382.1,494.9"/>
						<path class="st5" d="M1839.7,560.7c-23.6,5.4-47.1-9.3-52.5-32.8c-5.4-23.6,9.3-47.1,32.8-52.5c23.6-5.4,47.1,9.2,52.5,32.8
							C1877.9,531.8,1863.2,555.3,1839.7,560.7 M1802.1,397.9c-66.3,15.3-107.7,81.5-92.4,147.9c15.3,66.3,81.5,107.7,147.9,92.4
							c66.3-15.3,107.7-81.5,92.4-147.9C1934.6,424,1868.4,382.6,1802.1,397.9"/>
						<path class="st5" d="M2411.8,445.7c-23.6,5.4-47.1-9.2-52.5-32.8c-5.4-23.6,9.3-47.1,32.8-52.5c23.6-5.4,47.1,9.3,52.5,32.8
							C2450,416.7,2435.3,440.2,2411.8,445.7 M2374.2,282.9c-66.3,15.3-107.7,81.5-92.4,147.9c15.3,66.3,81.5,107.7,147.9,92.4
							c66.3-15.3,107.7-81.5,92.4-147.9C2506.7,308.9,2440.5,267.6,2374.2,282.9"/>
						<path class="st5" d="M1677.5,890.4c-23.6,5.4-47.1-9.3-52.5-32.8c-5.4-23.6,9.3-47.1,32.8-52.5c23.6-5.4,47.1,9.2,52.5,32.8
							C1715.8,861.5,1701.1,885,1677.5,890.4 M1639.9,727.6c-66.3,15.3-107.7,81.5-92.4,147.9s81.5,107.7,147.9,92.4
							c66.3-15.3,107.7-81.5,92.4-147.9C1772.5,753.7,1706.3,712.3,1639.9,727.6"/>
						<path class="st5" d="M2224.4,764.2c-23.6,5.4-47.1-9.3-52.5-32.8c-5.4-23.6,9.3-47.1,32.8-52.5c23.6-5.4,47.1,9.2,52.5,32.8
							C2262.6,735.2,2247.9,758.7,2224.4,764.2 M2186.8,601.4c-66.3,15.3-107.7,81.5-92.4,147.9c15.3,66.3,81.5,107.7,147.9,92.4
							c66.3-15.3,107.7-81.5,92.4-147.9C2319.3,627.4,2253.1,586,2186.8,601.4"/>
						<path class="st5" d="M2115.4,265.5c-23.6,5.4-47.1-9.2-52.5-32.8c-5.4-23.6,9.2-47.1,32.8-52.5c23.6-5.4,47.1,9.2,52.5,32.8
							C2153.6,236.6,2139,260.1,2115.4,265.5 M2077.8,102.7c-66.3,15.3-107.7,81.5-92.4,147.9c15.3,66.3,81.5,107.7,147.9,92.4
							c66.3-15.3,107.7-81.5,92.4-147.9C2210.4,128.8,2144.2,87.4,2077.8,102.7"/>
					</g>
				</g>
			</g>
		</g>
	</g>
</g>
</svg>
