<?xml version="1.0" encoding="utf-8"?>
<!-- Generator: Adobe Illustrator 16.0.0, SVG Export Plug-In . SVG Version: 6.00 Build 0)  -->
<!DOCTYPE svg PUBLIC "-//W3C//DTD SVG 1.1//EN" "http://www.w3.org/Graphics/SVG/1.1/DTD/svg11.dtd">
<svg version="1.1" id="Layer_1" xmlns="http://www.w3.org/2000/svg" xmlns:xlink="http://www.w3.org/1999/xlink" x="0px" y="0px"
	 width="50px" height="50px" viewBox="0 0 50 50" enable-background="new 0 0 50 50" xml:space="preserve">
<path fill-rule="evenodd" clip-rule="evenodd" fill="#FFFFFF" d="M24.519,14.111c-2.82,2.822-5.551,5.545-8.267,8.285
	c-0.264,0.267-0.396,0.282-0.654,0.001c-0.549-0.596-1.133-1.163-1.72-1.724c-0.198-0.189-0.227-0.292-0.012-0.506
	c4.015-4,8.021-8.006,12.022-12.019c0.207-0.208,0.313-0.197,0.514,0.004c4.002,4.012,8.008,8.02,12.023,12.019
	c0.222,0.221,0.17,0.324-0.021,0.508c-0.597,0.575-1.189,1.154-1.755,1.76c-0.236,0.254-0.36,0.208-0.58-0.014
	c-2.731-2.747-5.473-5.484-8.23-8.245c-0.129,0.178-0.068,0.366-0.068,0.536c-0.005,9.676-0.007,19.351,0.007,29.027
	c0,0.456-0.104,0.596-0.568,0.571c-0.793-0.043-1.591-0.021-2.385-0.006c-0.243,0.004-0.341-0.066-0.308-0.312
	c0.014-0.1,0.002-0.202,0.002-0.303c0-9.644,0-19.285,0-28.926C24.519,14.586,24.519,14.406,24.519,14.111z"/>
</svg>
