<?xml version="1.0" encoding="utf-8"?>
<!-- Generator: Adobe Illustrator 16.0.0, SVG Export Plug-In . SVG Version: 6.00 Build 0)  -->
<!DOCTYPE svg PUBLIC "-//W3C//DTD SVG 1.1//EN" "http://www.w3.org/Graphics/SVG/1.1/DTD/svg11.dtd">
<svg version="1.1" id="Layer_1" xmlns="http://www.w3.org/2000/svg" xmlns:xlink="http://www.w3.org/1999/xlink" x="0px" y="0px"
	 width="250px" height="250px" viewBox="0 0 250 250" enable-background="new 0 0 250 250" xml:space="preserve">
<path fill-rule="evenodd" clip-rule="evenodd" fill="#E4F6F5" d="M128.017,90.675c-0.294-0.586-0.587-1.173-0.881-1.76
	C127.731,89.351,128.186,89.856,128.017,90.675z"/>
<path fill-rule="evenodd" clip-rule="evenodd" fill="#E3F6F6" d="M126.931,111.604c0.15-0.341,0.33-0.666,0.546-0.97
	c-0.032,0.294,0.016,0.576-0.121,0.885C127.204,111.861,127.098,111.708,126.931,111.604z"/>
<g>
	<path fill-rule="evenodd" clip-rule="evenodd" fill="#3A8AEC" d="M214.266,177.1c-2.468,4.263-5.269,8.307-8.333,12.152
		c-12.449,15.658-28.034,27.081-47.008,33.442c-26.577,8.912-52.812,7.688-78.234-4.359c-21.84-10.352-37.895-26.713-48.487-48.387
		c-8.238-16.853-11.68-34.817-9.742-53.382c3.894-37.271,22.483-65.183,55.622-82.873c20.624-11.008,42.746-13.719,65.688-9.669
		c19.957,3.521,37.214,12.477,51.978,26.294c7.516,7.028,13.776,15.049,18.868,23.982c0.158,0.286,0.378,0.536,0.571,0.801
		c1.325,2.639,2.643,5.277,3.959,7.913c3.504,8.26,6.261,16.741,7.604,25.633c3.302,21.77,0.448,42.629-9.333,62.452
		c-0.254,0.531-0.465,1.089-0.693,1.636C215.749,174.105,214.941,175.563,214.266,177.1z M97.913,82.825l-0.062-0.04
		c-0.079-0.406-0.369-0.468-0.715-0.428l-0.022-0.011c-1.014-1.315-2.055-1.28-3.122-0.062L93.979,82.3
		c-1.308,0.446-0.764,1.567-0.764,2.379c-0.035,16.46-0.031,32.923-0.031,49.385c0,12.345-0.004,24.691,0.018,37.036
		c0.004,0.867-0.364,1.932,0.838,2.408c1.199,0.86,2.239,0.299,3.31-0.315c4.425-2.547,8.868-5.068,13.297-7.602
		c20.084-11.489,40.182-22.967,60.252-34.484c1.409-0.81,3.574-1.097,3.539-3.292c-0.031-2.061-2.099-2.399-3.455-3.176
		c-24.193-13.881-48.413-27.714-72.628-41.558C98.211,82.996,98.062,82.91,97.913,82.825z M91.771,172.075
		c0.132,0,0.268-0.002,0.399-0.002c0-29.564,0-59.131,0-88.698c-0.131,0-0.268,0-0.399,0
		C91.771,112.942,91.771,142.509,91.771,172.075z"/>
	<path fill-rule="evenodd" clip-rule="evenodd" fill="#FCFDFD" d="M98.356,83.082c24.215,13.844,48.435,27.677,72.628,41.558
		c1.356,0.777,3.424,1.115,3.455,3.176c0.035,2.195-2.13,2.482-3.539,3.292c-20.07,11.518-40.168,22.995-60.252,34.484
		c-4.429,2.533-8.872,5.055-13.297,7.602c-1.071,0.614-2.111,1.176-3.31,0.315c-0.369-0.869-0.452-1.773-0.452-2.715
		c0.013-28.52,0.013-57.042,0-85.563c0-1.003,0.092-1.976,0.391-2.931l0.013-0.015c1.054-0.685,2.085-0.112,3.122,0.062l0.022,0.011
		c0.145,0.299,0.399,0.413,0.715,0.428l0.062,0.04C98.062,82.91,98.211,82.996,98.356,83.082z"/>
</g>
<path fill-rule="evenodd" clip-rule="evenodd" fill="#9AB9D9" d="M100.87,90.526c-0.231-0.039-0.46-0.166-0.695-0.014
	C100.412,90.241,100.644,90.233,100.87,90.526z"/>
<path fill-rule="evenodd" clip-rule="evenodd" fill="#9AB9D9" d="M101.034,90.624c-0.07-0.003-0.127-0.029-0.16-0.095
	C100.952,90.52,101.016,90.533,101.034,90.624z"/>
<path fill-rule="evenodd" clip-rule="evenodd" fill="#9AB9D9" d="M101.146,90.689c-0.033-0.019-0.065-0.038-0.098-0.057
	C101.081,90.651,101.113,90.67,101.146,90.689z"/>
</svg>
