<?xml version="1.0" encoding="utf-8"?>
<!-- Generator: Adobe Illustrator 16.0.0, SVG Export Plug-In . SVG Version: 6.00 Build 0)  -->
<!DOCTYPE svg PUBLIC "-//W3C//DTD SVG 1.1//EN" "http://www.w3.org/Graphics/SVG/1.1/DTD/svg11.dtd">
<svg version="1.1" id="Layer_1" xmlns="http://www.w3.org/2000/svg" xmlns:xlink="http://www.w3.org/1999/xlink" x="0px" y="0px"
	 width="100px" height="100px" viewBox="0 0 100 100" enable-background="new 0 0 100 100" xml:space="preserve">

<path fill="#0F117A" d="M93.453,30.751c0,15.588,0,31.177,0,46.765c-0.725,1.443-1.979,1.758-3.479,1.834
	c-6.12,0.303-12.244,0.57-18.334,1.311c-6.665,0.81-13.235,2.017-19.472,4.633c-0.778,0.325-1.55,0.324-2.33-0.005
	c-5.711-2.411-11.726-3.619-17.831-4.435c-6.628-0.885-13.306-1.191-19.978-1.504c-1.502-0.069-2.75-0.404-3.481-1.833
	c0-15.643,0-31.286,0-46.929c0.641-1.219,1.557-1.902,3.029-1.813c2.232,0.135,4.474,0.124,6.707,0.269
	c0.809,0.051,0.938-0.199,0.929-0.925c-0.039-2.984-0.026-5.969-0.012-8.953c0.008-1.837,1.137-2.849,2.968-2.705
	c2.703,0.214,5.366,0.685,7.982,1.381c7.706,2.048,14.79,5.269,20.508,11.02c0.308,0.309,0.461,0.223,0.718-0.039
	c0.584-0.588,1.173-1.176,1.808-1.705c7.673-6.392,16.649-9.554,26.455-10.63c2.11-0.232,3.163,0.784,3.166,2.897
	c0.004,2.874,0.018,5.748-0.014,8.621c-0.006,0.59,0.094,0.793,0.751,0.779c2.265-0.05,4.53,0.021,6.797-0.029
	C91.862,28.721,92.923,29.291,93.453,30.751z M53.493,76.798c0.202-0.144,0.274-0.184,0.334-0.236
	c6.713-5.981,14.527-9.81,23.249-11.844c0.626-0.147,0.74-0.43,0.74-1.008c-0.015-13.706-0.018-27.411,0.003-41.116
	c0-0.698-0.129-0.893-0.865-0.757c-3.643,0.675-7.19,1.663-10.604,3.106c-4.646,1.964-8.905,4.504-12.306,8.316
	c-0.386,0.432-0.568,0.869-0.568,1.473c0.021,13.706,0.017,27.41,0.017,41.116C53.493,76.117,53.493,76.385,53.493,76.798z
	 M48.461,76.809c0.028-0.247,0.044-0.324,0.044-0.405c0.001-13.98-0.001-27.963,0.014-41.944c0-0.469-0.203-0.773-0.478-1.089
	c-1.844-2.126-4.007-3.873-6.392-5.349c-5.079-3.146-10.611-5.083-16.47-6.144c-0.987-0.179-0.986-0.189-0.986,0.825
	c0,13.623,0.007,27.245-0.021,40.867c-0.001,0.763,0.225,1.015,0.938,1.181c6.446,1.516,12.446,4.072,17.937,7.796
	C44.917,73.813,46.676,75.224,48.461,76.809z M61.057,77.162c0.464,0.077,0.784,0.013,1.109-0.057
	c4.626-0.971,9.308-1.518,14.013-1.922c3.853-0.33,7.716-0.511,11.576-0.73c0.438-0.024,0.73-0.039,0.73-0.669
	c-0.024-13.149-0.023-26.299-0.006-39.448c0.001-0.558-0.202-0.62-0.667-0.609c-1.353,0.03-2.71,0.073-4.061,0.001
	c-0.827-0.043-0.971,0.237-0.969,1.009c0.027,10.442,0.021,20.884,0.019,31.326c0,1.813-0.66,2.655-2.41,3.006
	C73.454,70.456,67,73.002,61.057,77.162z M40.71,77.225c-0.053-0.157-0.054-0.228-0.087-0.251c-0.288-0.212-0.576-0.426-0.875-0.624
	c-5.521-3.653-11.585-5.959-18.051-7.27c-1.871-0.379-2.5-1.169-2.502-3.091c-0.001-4.115,0-8.23,0-12.349
	c0-6.243-0.016-12.486,0.021-18.729c0.004-0.75-0.211-0.908-0.904-0.904c-1.38,0.01-2.762-0.057-4.14-0.135
	c-0.499-0.028-0.652,0.088-0.652,0.619c0.016,13.095,0.016,26.188,0,39.282c0,0.511,0.145,0.652,0.635,0.674
	c2.455,0.119,4.909,0.26,7.361,0.413c4.63,0.292,9.25,0.691,13.832,1.435C37.113,76.584,38.871,76.907,40.71,77.225z"/>
</svg>
