<?xml version="1.0" encoding="utf-8"?>
<!-- Generator: Adobe Illustrator 16.0.0, SVG Export Plug-In . SVG Version: 6.00 Build 0)  -->
<!DOCTYPE svg PUBLIC "-//W3C//DTD SVG 1.1//EN" "http://www.w3.org/Graphics/SVG/1.1/DTD/svg11.dtd">
<svg version="1.1" id="Layer_1" xmlns="http://www.w3.org/2000/svg" xmlns:xlink="http://www.w3.org/1999/xlink" x="0px" y="0px"
	 width="100px" height="100px" viewBox="0 0 100 100" enable-background="new 0 0 100 100" xml:space="preserve">
<path display="none" fill="#E86481" d="M8.767,73.18c0-15.463,0-30.926,0-46.388c0.128-0.018,0.153-0.115,0.19-0.219
	c1.416-3.984,3.671-5.58,7.884-5.58c16.122,0,32.244,0,48.365,0c6.224,0,12.446-0.01,18.67,0.004
	c3.442,0.008,6.173,2.11,7.125,5.413c0.052,0.181-0.049,0.453,0.231,0.543c0,15.409,0,30.818,0,46.227
	c-0.176,0.021-0.172,0.174-0.213,0.295c-1.297,3.797-3.688,5.504-7.701,5.504c-9.174,0-18.352,0-27.523,0
	c-13.198,0-26.397,0.004-39.595-0.004c-3.444-0.002-6.136-2.009-7.15-5.269C8.993,73.521,9.035,73.26,8.767,73.18z M82.816,26.035
	c-0.043-0.056-0.088-0.111-0.131-0.167c-21.797,0-43.595,0-65.392,0c-0.049,0.063-0.098,0.125-0.146,0.188
	c0.198,0.129,0.426,0.229,0.59,0.393c9.988,10.009,19.971,20.023,29.956,30.037c1.552,1.557,3.054,1.563,4.595,0.02
	c7.162-7.181,14.314-14.37,21.486-21.542C76.773,31.969,79.803,29.01,82.816,26.035z M17.05,74.096c22.072,0,43.868,0,65.722,0
	c-0.092-0.119-0.131-0.186-0.184-0.238c-6.648-6.67-13.303-13.336-19.938-20.021c-0.414-0.419-0.604-0.284-0.93,0.048
	c-2.035,2.064-4.088,4.112-6.134,6.164c-3.235,3.246-7.951,3.241-11.184-0.009c-1.987-1.998-3.992-3.978-5.954-5.999
	c-0.48-0.495-0.738-0.582-1.281-0.031c-4.787,4.852-9.605,9.672-14.425,14.49C20.911,70.334,19.045,72.137,17.05,74.096z
	 M13.658,29.396c0,13.71,0,27.506,0,41.4c0.7-0.706,1.32-1.335,1.944-1.962c6.083-6.102,12.163-12.209,18.262-18.295
	c0.444-0.443,0.466-0.68,0-1.11c-0.927-0.854-1.789-1.779-2.685-2.667C25.33,40.962,19.478,35.163,13.658,29.396z M86.376,29.316
	c-0.051-0.034-0.103-0.068-0.153-0.102c-0.17,0.203-0.328,0.418-0.514,0.605c-6.496,6.522-12.988,13.046-19.506,19.547
	c-0.492,0.49-0.52,0.721-0.01,1.229c6.574,6.556,13.125,13.138,19.675,19.72c0.139,0.142,0.212,0.348,0.315,0.521
	c0.063-0.061,0.129-0.115,0.189-0.174C86.376,56.879,86.376,43.098,86.376,29.316z"/>
<path fill-rule="evenodd" clip-rule="evenodd" fill="#0F117A" d="M34.856,37.634c3.761,0,7.522-0.013,11.284,0.014
	c0.557,0.004,0.68-0.153,0.662-0.682c-0.042-1.209-0.046-2.423,0.001-3.631c0.022-0.562-0.16-0.662-0.684-0.66
	c-6.157,0.02-12.314,0.013-18.472,0.012c-2.791,0-4.356-1.561-4.358-4.34c-0.001-2.139-0.006-4.277,0.001-6.415
	c0.009-2.424,1.653-4.081,4.069-4.084c6.234-0.007,12.469-0.013,18.704,0.014c0.626,0.003,0.766-0.181,0.737-0.763
	c-0.047-0.951-0.026-1.906-0.008-2.859c0.017-0.861,0.485-1.332,1.353-1.336c2.396-0.013,4.792-0.014,7.188,0
	c0.862,0.005,1.329,0.481,1.346,1.346c0.018,0.979,0.038,1.959-0.01,2.936c-0.026,0.543,0.127,0.675,0.671,0.673
	c6.156-0.021,12.314-0.014,18.471-0.013c2.834,0,4.369,1.55,4.371,4.405c0,2.01,0,4.019,0,6.028
	c-0.002,2.882-1.54,4.407-4.446,4.407c-6.105,0-12.211,0.01-18.316-0.014c-0.602-0.002-0.778,0.142-0.752,0.75
	c0.052,1.208,0.041,2.421,0.003,3.631c-0.016,0.482,0.118,0.595,0.595,0.592c3.813-0.021,7.626-0.013,11.438-0.011
	c2.523,0.001,4.054,1.517,4.058,4.019c0.004,2.267,0.004,4.534,0,6.801c-0.004,2.501-1.534,4.018-4.059,4.02
	c-3.786,0.003-7.573,0.014-11.36-0.013c-0.542-0.004-0.692,0.127-0.673,0.672c0.046,1.209,0.046,2.422,0,3.631
	c-0.021,0.548,0.135,0.673,0.675,0.671c7.419-0.02,14.838-0.006,22.258-0.025c0.715-0.002,1.272,0.189,1.817,0.653
	c2.218,1.885,4.467,3.73,6.701,5.595c0.991,0.825,0.976,1.557-0.04,2.402c-2.235,1.862-4.483,3.709-6.701,5.594
	c-0.528,0.448-1.069,0.621-1.752,0.62c-7.395-0.018-14.788,0-22.182-0.028c-0.665-0.003-0.781,0.184-0.777,0.804
	c0.03,4.122,0.017,8.244,0.015,12.366c0,1.307-0.387,1.688-1.708,1.688c-2.215,0.001-4.431,0.005-6.646-0.001
	c-1.105-0.003-1.537-0.436-1.538-1.546c-0.004-4.199-0.015-8.399,0.014-12.598c0.004-0.579-0.136-0.716-0.713-0.712
	c-3.761,0.029-7.522,0.018-11.283,0.016c-2.578-0.002-4.094-1.504-4.097-4.059c-0.002-2.268-0.004-4.534,0-6.802
	c0.005-2.447,1.55-3.979,4.018-3.98c3.787-0.003,7.574-0.015,11.361,0.015c0.574,0.004,0.74-0.127,0.714-0.711
	c-0.052-1.183-0.051-2.371,0-3.554c0.025-0.581-0.134-0.714-0.712-0.712c-7.419,0.021-14.839,0.008-22.258,0.025
	c-0.686,0.002-1.223-0.182-1.749-0.629c-2.236-1.902-4.503-3.768-6.757-5.649c-0.943-0.787-0.951-1.512-0.021-2.29
	c2.312-1.932,4.633-3.853,6.936-5.795c0.421-0.355,0.861-0.5,1.407-0.498C27.385,37.641,31.121,37.634,34.856,37.634z
	 M51.715,20.319c-8.036,0-16.072,0-24.108,0c-1.387,0-1.841,0.46-1.842,1.858c-0.002,2.112-0.005,4.224,0.001,6.335
	c0.003,1.187,0.508,1.698,1.691,1.699c16.174,0.002,32.349,0.002,48.523,0c1.23,0,1.724-0.502,1.727-1.742
	c0.005-2.061,0.002-4.122,0.002-6.182c-0.002-1.556-0.413-1.969-1.965-1.969C67.734,20.319,59.725,20.319,51.715,20.319z
	 M56.904,69.79c7.391,0,14.781-0.004,22.172,0.01c0.468,0.001,0.814-0.124,1.172-0.428c1.627-1.385,3.273-2.745,4.926-4.1
	c0.351-0.287,0.53-0.444,0.048-0.829c-1.727-1.384-3.418-2.813-5.106-4.243c-0.28-0.237-0.557-0.31-0.906-0.31
	c-14.832,0.007-29.665,0.005-44.498,0.007c-1.101,0-1.523,0.435-1.525,1.557c-0.004,2.188-0.002,4.377-0.001,6.565
	c0.001,1.418,0.355,1.771,1.78,1.771C42.277,69.79,49.591,69.79,56.904,69.79z M46.557,40.107c-7.395,0-14.789,0-22.184-0.001
	c-0.36,0-0.676,0.013-0.992,0.284c-1.702,1.457-3.422,2.893-5.16,4.306c-0.375,0.305-0.348,0.431,0.008,0.722
	c1.736,1.416,3.456,2.852,5.16,4.305c0.29,0.248,0.577,0.281,0.916,0.281c14.79-0.003,29.579-0.002,44.368-0.003
	c1.204,0,1.612-0.414,1.614-1.628c0.002-2.19,0.002-4.38,0-6.57c-0.001-1.314-0.383-1.694-1.701-1.695
	C61.243,40.107,53.9,40.107,46.557,40.107z M54.21,78.446c0-1.88-0.014-3.76,0.01-5.641c0.006-0.437-0.114-0.563-0.552-0.552
	c-1.287,0.028-2.576,0.028-3.864,0c-0.439-0.011-0.553,0.118-0.551,0.553c0.017,3.761,0.017,7.522,0,11.282
	c-0.002,0.437,0.115,0.563,0.552,0.553c1.288-0.029,2.576-0.029,3.863,0c0.439,0.01,0.558-0.118,0.552-0.554
	C54.196,82.208,54.21,80.327,54.21,78.446z M51.734,37.598c0.812-0.03,1.901,0.386,2.358-0.125c0.4-0.446,0.13-1.517,0.11-2.311
	c-0.02-0.813,0.354-1.902-0.154-2.359c-0.443-0.4-1.516-0.129-2.311-0.11c-0.813,0.02-1.902-0.353-2.358,0.153
	c-0.401,0.444-0.129,1.517-0.11,2.311c0.02,0.813-0.353,1.905,0.154,2.358C49.866,37.911,50.939,37.598,51.734,37.598z
	 M54.21,54.957c0-0.669-0.019-1.339,0.007-2.008c0.014-0.359-0.078-0.49-0.463-0.483c-1.339,0.024-2.679,0.021-4.018,0.002
	c-0.358-0.005-0.489,0.079-0.482,0.464c0.023,1.339,0.021,2.678,0.001,4.018c-0.005,0.357,0.079,0.488,0.463,0.481
	c1.34-0.022,2.679-0.021,4.018-0.001c0.358,0.006,0.5-0.078,0.482-0.464C54.188,56.298,54.21,55.628,54.21,54.957z M51.812,15.372
	c-0.206,0-0.412,0-0.618,0c-2.031,0-2.031,0-1.931,2.011c0.001,0.025,0.003,0.052,0,0.077c-0.043,0.305,0.092,0.393,0.39,0.391
	c1.39-0.013,2.781-0.014,4.171,0c0.304,0.003,0.371-0.101,0.395-0.394c0.169-2.085,0.177-2.085-1.867-2.085
	C52.172,15.372,51.991,15.372,51.812,15.372z"/>
</svg>
