<?xml version="1.0" encoding="utf-8"?>
<!-- Generator: Adobe Illustrator 16.0.0, SVG Export Plug-In . SVG Version: 6.00 Build 0)  -->
<!DOCTYPE svg PUBLIC "-//W3C//DTD SVG 1.1//EN" "http://www.w3.org/Graphics/SVG/1.1/DTD/svg11.dtd">
<svg version="1.1" id="Layer_1" xmlns="http://www.w3.org/2000/svg" xmlns:xlink="http://www.w3.org/1999/xlink" x="0px" y="0px"
	 width="100px" height="100px" viewBox="0 0 100 100" enable-background="new 0 0 100 100" xml:space="preserve">
<path display="none" fill="#E86481" d="M8.767,73.18c0-15.463,0-30.926,0-46.388c0.128-0.018,0.153-0.115,0.19-0.219
	c1.416-3.984,3.671-5.58,7.884-5.58c16.122,0,32.244,0,48.365,0c6.224,0,12.446-0.01,18.67,0.004
	c3.442,0.008,6.173,2.11,7.125,5.413c0.052,0.181-0.049,0.453,0.231,0.543c0,15.409,0,30.818,0,46.227
	c-0.176,0.021-0.172,0.174-0.213,0.295c-1.297,3.797-3.688,5.504-7.701,5.504c-9.174,0-18.352,0-27.523,0
	c-13.198,0-26.397,0.004-39.595-0.004c-3.444-0.002-6.136-2.009-7.15-5.269C8.993,73.521,9.035,73.26,8.767,73.18z M82.816,26.035
	c-0.043-0.056-0.088-0.111-0.131-0.167c-21.797,0-43.595,0-65.392,0c-0.049,0.063-0.098,0.125-0.146,0.188
	c0.198,0.129,0.426,0.229,0.59,0.393c9.988,10.009,19.971,20.023,29.956,30.037c1.552,1.557,3.054,1.563,4.595,0.02
	c7.162-7.181,14.314-14.37,21.486-21.542C76.773,31.969,79.803,29.01,82.816,26.035z M17.05,74.096c22.072,0,43.868,0,65.722,0
	c-0.092-0.119-0.131-0.186-0.184-0.238c-6.648-6.67-13.303-13.336-19.938-20.021c-0.414-0.419-0.604-0.284-0.93,0.048
	c-2.035,2.064-4.088,4.112-6.134,6.164c-3.235,3.246-7.951,3.241-11.184-0.009c-1.987-1.998-3.992-3.978-5.954-5.999
	c-0.48-0.495-0.738-0.582-1.281-0.031c-4.787,4.852-9.605,9.672-14.425,14.49C20.911,70.334,19.045,72.137,17.05,74.096z
	 M13.658,29.396c0,13.71,0,27.506,0,41.4c0.7-0.706,1.32-1.335,1.944-1.962c6.083-6.102,12.163-12.209,18.262-18.295
	c0.444-0.443,0.466-0.68,0-1.11c-0.927-0.854-1.789-1.779-2.685-2.667C25.33,40.962,19.478,35.163,13.658,29.396z M86.376,29.316
	c-0.051-0.034-0.103-0.068-0.153-0.102c-0.17,0.203-0.328,0.418-0.514,0.605c-6.496,6.522-12.988,13.046-19.506,19.547
	c-0.492,0.49-0.52,0.721-0.01,1.229c6.574,6.556,13.125,13.138,19.675,19.72c0.139,0.142,0.212,0.348,0.315,0.521
	c0.063-0.061,0.129-0.115,0.189-0.174C86.376,56.879,86.376,43.098,86.376,29.316z"/>
<g>
	<path fill-rule="evenodd" clip-rule="evenodd" fill="#0F117A" d="M43.966,15.945c0.266,0.256,0.615,0.418,0.794,0.775
		c0.454,0.905-0.111,1.965-1.136,2.085c-0.235,0.028-0.478,0.013-0.717,0.013c-6.104,0-12.209,0.008-18.314-0.013
		c-0.564-0.002-0.756,0.083-0.755,0.713c0.025,8.667,0.021,17.333,0.007,26c0,0.474,0.132,0.768,0.525,1.056
		c8.367,6.142,16.724,12.296,25.069,18.467c0.413,0.306,0.649,0.253,1.026-0.025c8.401-6.216,16.812-12.421,25.229-18.614
		c0.352-0.258,0.463-0.52,0.463-0.942c-0.013-8.666-0.015-17.333,0.005-26c0.002-0.549-0.145-0.656-0.668-0.654
		c-6.224,0.02-12.448,0.014-18.674,0.012c-1.104,0-1.795-0.634-1.73-1.544c0.046-0.645,0.509-0.973,0.946-1.328
		c7.327,0,14.653,0,21.98,0c0.798,0.431,1.027,1.101,1.021,1.993c-0.034,4.686-0.011,9.373-0.024,14.059
		c-0.001,0.415,0.115,0.705,0.411,0.998c2.143,2.118,4.263,4.257,6.398,6.383c0.353,0.352,0.682,0.717,0.956,1.134
		c0,15.946,0,31.893,0,47.839c-0.195,0.571-0.58,0.952-1.149,1.149c-23.751,0-47.504,0-71.256,0
		c-0.568-0.197-0.954-0.578-1.149-1.149c0-15.946,0-31.894,0-47.839c0.27-0.42,0.607-0.78,0.96-1.132
		c2.134-2.127,4.256-4.266,6.398-6.383c0.297-0.294,0.408-0.586,0.407-1c-0.014-4.686,0.009-9.373-0.024-14.059
		c-0.007-0.893,0.223-1.563,1.021-1.993C29.312,15.945,36.639,15.945,43.966,15.945z M81.813,86.601
		c-0.129-0.145-0.185-0.214-0.247-0.276c-7.685-7.686-15.372-15.367-23.048-23.063c-0.312-0.313-0.488-0.282-0.809-0.042
		c-2.184,1.632-4.378,3.248-6.575,4.863c-0.972,0.716-1.426,0.71-2.378,0.01c-2.117-1.561-4.248-3.103-6.341-4.694
		c-0.486-0.371-0.732-0.341-1.16,0.089C33.771,71,26.268,78.495,18.766,85.991c-0.175,0.176-0.393,0.311-0.591,0.463
		c0.042,0.049,0.084,0.098,0.127,0.146C39.428,86.601,60.556,86.601,81.813,86.601z M83.881,43.922
		c-7.714,5.691-15.327,11.318-22.96,16.919c-0.563,0.414-0.182,0.578,0.07,0.831C68.455,69.137,75.92,76.6,83.379,84.068
		c0.14,0.141,0.211,0.348,0.314,0.524c0.062-0.058,0.124-0.118,0.188-0.177C83.881,70.955,83.881,57.493,83.881,43.922z
		 M16.124,84.405c0.06,0.052,0.118,0.104,0.175,0.157c0.134-0.191,0.243-0.408,0.405-0.572c7.408-7.417,14.816-14.833,22.245-22.231
		c0.451-0.447,0.405-0.615-0.079-0.97c-5.863-4.296-11.71-8.614-17.563-12.923c-1.705-1.255-3.413-2.504-5.185-3.803
		C16.124,57.574,16.124,70.989,16.124,84.405z M20.944,44.035c0-2.484,0-4.852,0-7.357c-1.392,1.397-2.693,2.714-4.006,4.017
		c-0.271,0.268-0.044,0.354,0.121,0.476C18.324,42.105,19.59,43.037,20.944,44.035z M83.115,40.915
		c-1.37-1.35-2.734-2.693-4.056-3.996c0,2.23,0,4.554,0,6.983C80.473,42.862,81.813,41.875,83.115,40.915z"/>
	<path fill-rule="evenodd" clip-rule="evenodd" fill="#0F117A" d="M50.431,15.945c0.557,0.392,1.056,0.832,0.944,1.602
		c-0.099,0.687-0.517,1.117-1.197,1.253c-0.615,0.123-1.267-0.23-1.516-0.823c-0.268-0.637-0.145-1.204,0.361-1.691
		c0.127-0.124,0.358-0.122,0.402-0.34C49.761,15.945,50.096,15.945,50.431,15.945z"/>
	<path fill-rule="evenodd" clip-rule="evenodd" fill="#0F117A" d="M38.098,42.54c1.974,0,3.809,0,5.645,0
		c0.264,0,0.527-0.01,0.789,0.003c0.92,0.049,1.54,0.652,1.525,1.474c-0.015,0.82-0.648,1.392-1.581,1.395
		c-2.895,0.007-5.789,0.002-8.684,0.002c-0.144,0-0.288,0.005-0.431-0.004c-1.067-0.069-1.676-1.107-1.207-2.071
		c0.104-0.214,0.243-0.411,0.373-0.61c2.255-3.461,4.513-6.921,6.768-10.382c0.129-0.197,0.25-0.4,0.372-0.597
		c-0.154-0.225-0.363-0.121-0.533-0.122c-1.746-0.01-3.492-0.001-5.239-0.008c-0.993-0.004-1.614-0.561-1.613-1.424
		c0.002-0.861,0.62-1.439,1.615-1.444c2.775-0.014,5.55-0.004,8.325-0.005c0.618,0,1.13,0.208,1.44,0.765
		c0.33,0.593,0.175,1.141-0.178,1.68c-2.3,3.517-4.591,7.04-6.884,10.562C38.458,41.971,38.321,42.191,38.098,42.54z"/>
	<path fill-rule="evenodd" clip-rule="evenodd" fill="#0F117A" d="M55.323,37.059c0-2.152-0.001-4.305,0.002-6.458
		c0.001-1.348,0.509-1.868,1.875-1.847c1.457,0.023,2.919-0.126,4.37,0.109c2.624,0.426,4.542,2.789,4.424,5.436
		c-0.122,2.702-2.242,4.909-4.907,5.081c-0.762,0.048-1.529,0.06-2.294,0.037c-0.449-0.014-0.622,0.088-0.607,0.583
		c0.038,1.266,0.02,2.535,0.011,3.802c-0.007,1.005-0.552,1.608-1.429,1.609c-0.865,0-1.436-0.619-1.44-1.608
		C55.318,41.555,55.323,39.307,55.323,37.059z M58.202,34.074c0.002,0,0.006,0,0.009,0c0,0.645,0.029,1.292-0.01,1.935
		c-0.029,0.463,0.15,0.575,0.575,0.55c0.596-0.035,1.194-0.008,1.792-0.026c1.444-0.042,2.519-1.041,2.558-2.369
		c0.042-1.345-1.032-2.457-2.48-2.532c-0.668-0.035-1.34,0.007-2.007-0.018c-0.35-0.013-0.454,0.113-0.443,0.452
		C58.217,32.735,58.202,33.405,58.202,34.074z"/>
	<path fill-rule="evenodd" clip-rule="evenodd" fill="#0F117A" d="M49.083,37.052c0-2.271-0.015-4.543,0.008-6.815
		c0.008-0.874,0.64-1.483,1.427-1.479c0.765,0.004,1.346,0.577,1.427,1.42c0.021,0.214,0.012,0.43,0.012,0.646
		c0.001,3.372,0.001,6.744,0.001,10.115c-0.001,0.98,0.022,1.961-0.01,2.941c-0.032,1.034-0.729,1.648-1.658,1.521
		c-0.742-0.102-1.202-0.687-1.207-1.605c-0.012-2.248-0.003-4.496-0.003-6.744C49.081,37.052,49.082,37.052,49.083,37.052z"/>
</g>
</svg>
